<?xml version="1.0" standalone="no"?>
<!DOCTYPE svg PUBLIC "-//W3C//DTD SVG 20010904//EN"
 "http://www.w3.org/TR/2001/REC-SVG-20010904/DTD/svg10.dtd">
<svg version="1.0" xmlns="http://www.w3.org/2000/svg"
 width="736.000000pt" height="736.000000pt" viewBox="0 0 736.000000 736.000000"
 preserveAspectRatio="xMidYMid meet">
<metadata>
Created by potrace 1.16, written by Peter Selinger 2001-2019
</metadata>
<g transform="translate(0.000000,736.000000) scale(0.100000,-0.100000)"
fill="#5d4a4a" stroke="none">
<path d="M2725 6653 c-70 -55 -141 -125 -243 -240 -40 -46 -94 -97 -119 -114
-56 -39 -158 -80 -181 -73 -13 5 -14 4 -4 -4 35 -25 -141 -30 -211 -6 -25 8
-66 34 -91 56 -26 22 -46 35 -46 30 0 -18 73 -74 128 -100 78 -35 178 -29 282
18 41 19 88 43 104 54 16 10 27 15 25 10 -2 -5 -27 -54 -55 -109 -28 -55 -57
-116 -64 -135 -7 -19 -26 -51 -40 -70 -29 -38 -53 -80 -46 -80 2 0 25 30 51
66 26 36 49 64 51 62 2 -2 -8 -32 -22 -66 -14 -34 -34 -97 -44 -138 -11 -42
-37 -107 -58 -143 -67 -116 -122 -241 -152 -344 -28 -97 -48 -142 -37 -82 4
17 9 62 13 100 4 39 8 81 9 95 2 14 6 34 10 45 6 16 5 17 -4 5 -9 -13 -11 -13
-11 3 0 9 7 17 16 17 8 0 12 5 8 11 -3 6 -2 14 3 18 11 8 44 93 38 99 -2 3
-13 -16 -24 -41 -11 -26 -44 -75 -73 -111 -105 -127 -118 -145 -137 -193 -23
-60 -38 -149 -23 -140 5 4 13 19 17 34 3 15 22 48 40 73 37 50 113 126 118
119 2 -2 -4 -60 -14 -129 -10 -69 -21 -165 -24 -215 l-5 -90 14 51 c8 29 21
67 29 85 l14 34 12 -55 c15 -62 124 -292 148 -312 15 -12 15 -10 7 17 -5 17
-8 62 -6 100 2 71 30 273 39 289 6 10 132 -123 133 -141 0 -6 4 -13 8 -15 4
-1 18 -18 30 -35 l23 -33 -50 -62 c-63 -77 -66 -107 -17 -138 19 -11 48 -43
65 -70 20 -32 45 -57 70 -70 51 -26 53 -25 92 7 38 32 68 95 69 142 l0 35 24
-33 c38 -51 98 -209 103 -273 8 -78 -9 -138 -75 -271 -7 -15 61 24 105 59 35
29 42 32 45 17 2 -10 10 6 17 36 10 38 12 89 8 172 l-6 117 37 6 c20 3 50 12
65 21 25 13 40 13 125 0 53 -8 103 -15 110 -15 32 0 -12 -329 -56 -417 -21
-41 -110 -163 -119 -163 -3 0 -2 8 2 18 21 52 35 234 29 367 -10 217 -19 196
-19 -46 l0 -221 -55 -49 c-121 -108 -275 -179 -390 -178 -36 0 -74 4 -85 9
-13 5 -15 9 -5 9 8 1 -3 10 -25 21 -51 26 -59 15 -15 -21 54 -45 133 -71 207
-67 119 6 34 -23 -167 -57 -179 -30 -228 -45 -275 -80 -36 -28 -101 -112 -92
-121 2 -2 17 16 33 41 32 51 98 98 159 114 22 5 116 24 209 41 93 17 188 39
210 48 l41 18 52 -42 c48 -39 144 -84 179 -84 21 0 14 -20 -51 -156 -57 -121
-172 -322 -273 -479 -156 -242 -245 -375 -251 -375 -3 0 -26 45 -49 100 -39
88 -142 252 -142 224 0 -5 4 -14 9 -19 10 -12 171 -320 171 -329 0 -3 -12 -6
-27 -6 -15 0 -46 -10 -71 -21 -40 -20 -45 -20 -60 -6 -16 17 -95 222 -138 362
-48 153 -59 368 -25 490 13 48 7 58 -8 14 -26 -76 -35 -206 -22 -326 14 -125
68 -313 120 -417 2 -5 -1 -6 -7 -2 -18 11 -14 2 8 -24 12 -13 18 -30 16 -37
-3 -7 -1 -13 4 -13 6 0 9 -3 8 -7 -1 -5 15 -52 37 -107 38 -96 39 -98 20 -113
-11 -7 -21 -18 -21 -23 -1 -6 -2 -15 -3 -21 0 -5 -5 -7 -11 -4 -5 3 -7 0 -5
-7 3 -8 -6 -24 -20 -36 -14 -13 -23 -27 -20 -32 3 -6 -1 -10 -10 -10 -9 0 -13
-4 -10 -10 3 -5 1 -10 -4 -10 -6 0 -11 -7 -11 -15 0 -8 -11 -31 -25 -51 -14
-20 -25 -43 -25 -51 0 -8 -5 -19 -10 -26 -39 -46 -50 -61 -50 -68 0 -4 -5 -20
-12 -36 -6 -15 -10 -32 -9 -37 1 -5 -2 -12 -7 -15 -13 -8 -56 -113 -109 -266
-24 -71 -49 -137 -54 -147 -9 -17 -15 -51 -18 -113 -1 -14 -4 -16 -9 -7 -8 12
-53 -150 -54 -198 0 -14 -9 -53 -20 -86 -10 -34 -18 -65 -17 -70 1 -5 0 -11
-1 -14 -44 -113 -79 -626 -65 -964 l7 -186 794 0 793 0 -19 33 c-11 18 -26 63
-35 102 -23 99 -40 132 -77 155 -18 11 -28 20 -21 20 29 0 73 -53 89 -108 38
-130 46 -152 65 -176 l20 -26 664 0 663 0 12 35 c6 19 15 37 20 40 5 3 3 -10
-5 -29 -8 -20 -15 -37 -15 -40 0 -2 22 -4 48 -3 32 2 57 9 76 25 31 24 80 29
92 11 5 -8 -1 -10 -18 -6 -18 5 -33 1 -49 -13 l-24 -19 95 1 c52 0 85 3 72 5
-12 2 -20 9 -16 14 3 6 15 4 29 -5 13 -9 35 -15 49 -14 21 2 23 5 15 23 -9 18
-8 18 10 -2 17 -21 41 -31 41 -18 0 3 -22 33 -50 67 -27 34 -50 65 -50 70 0 4
-11 31 -24 60 -13 29 -38 95 -55 147 -17 52 -45 122 -61 155 -64 134 -74 180
-42 191 31 11 82 85 82 120 0 27 -6 35 -34 49 -19 9 -41 16 -50 16 -9 0 -16 4
-16 9 0 5 -11 12 -25 15 -14 4 -25 10 -25 15 0 10 -114 129 -145 151 -11 8
-33 32 -48 53 -16 21 -36 45 -46 55 -9 9 -35 40 -56 67 -21 28 -44 55 -50 60
-24 22 -53 73 -78 138 -39 97 -37 196 13 607 18 149 21 160 46 187 13 14 24
22 24 17 0 -5 12 9 26 31 41 61 42 62 59 19 29 -71 32 -79 54 -122 11 -24 21
-50 21 -58 0 -8 5 -14 11 -14 5 0 7 -4 4 -10 -3 -5 -1 -10 4 -10 6 0 11 -7 11
-15 0 -8 9 -34 19 -57 11 -24 29 -63 40 -88 11 -25 32 -61 46 -80 14 -19 25
-40 25 -47 0 -7 5 -13 10 -13 6 0 10 -6 10 -12 0 -13 97 -116 147 -155 45 -36
81 -66 113 -94 17 -14 47 -35 68 -45 20 -10 39 -22 42 -26 6 -8 36 -5 46 5 4
4 18 7 30 7 25 0 76 44 109 95 19 28 20 47 19 300 0 256 -3 294 -23 347 -5 13
-9 25 -9 28 -2 20 -17 68 -28 85 -7 11 -15 32 -18 47 -2 14 -12 38 -21 52 -10
14 -15 33 -11 41 4 11 2 14 -6 9 -7 -5 -9 0 -6 14 4 12 2 20 -3 16 -5 -3 -9 1
-9 9 0 7 -9 32 -20 55 -11 22 -20 53 -20 67 0 14 -4 24 -9 21 -11 -7 -34 71
-25 86 4 6 3 8 -4 4 -13 -8 -36 59 -26 75 4 7 3 9 -3 6 -21 -13 -147 461 -174
658 -6 44 -8 108 -4 142 7 71 33 113 170 273 44 52 96 120 114 150 58 97 264
359 383 488 51 56 49 86 -5 90 -56 5 -124 -38 -211 -132 -170 -186 -170 -186
-204 -186 l-31 0 14 48 c7 26 21 90 30 142 8 52 27 141 40 198 36 151 33 212
-10 212 -53 0 -99 -93 -146 -295 -34 -144 -89 -286 -89 -229 0 10 -9 47 -20
81 -11 35 -24 113 -31 175 -13 136 -20 158 -53 158 -56 0 -75 -83 -57 -253 7
-67 17 -144 23 -170 11 -53 4 -74 -11 -35 -10 26 -85 73 -101 63 -15 -9 -62
20 -105 64 -50 52 -36 53 20 2 39 -36 85 -67 85 -58 0 13 -135 117 -151 117
-15 0 -19 -7 -19 -38 0 -58 63 -137 149 -188 23 -14 30 -27 40 -82 l12 -65
-38 -55 c-49 -71 -104 -123 -123 -116 -8 3 -11 2 -7 -2 3 -4 -7 -22 -23 -40
-16 -19 -32 -50 -36 -70 -7 -40 12 -171 28 -191 12 -15 -3 -18 -17 -4 -26 24
-135 52 -241 62 -64 5 -118 8 -121 6 -2 -3 31 -8 74 -11 125 -11 198 -26 263
-57 34 -16 58 -24 55 -19 -10 17 12 11 26 -7 12 -15 12 -16 -1 -8 -9 5 -12 4
-7 -1 5 -5 16 -9 25 -9 9 0 16 -6 15 -12 -2 -7 3 -12 10 -10 6 1 11 -4 10 -10
-2 -7 3 -12 10 -10 6 1 11 -4 9 -11 -1 -8 2 -11 7 -8 11 7 35 -20 28 -32 -3
-4 -1 -14 5 -22 8 -12 9 -12 4 3 -10 31 5 18 20 -18 18 -44 18 -58 -1 -25 -18
32 -19 17 0 -42 13 -45 56 -246 70 -332 4 -25 -1 -75 -14 -135 -11 -53 -24
-121 -28 -151 l-9 -55 -22 65 c-22 65 -23 66 -93 104 -39 21 -73 36 -76 32 -6
-6 34 -123 49 -142 5 -7 35 -22 68 -34 33 -12 60 -26 60 -30 0 -5 -26 -20 -58
-35 -47 -22 -64 -37 -96 -86 -21 -32 -40 -59 -41 -59 -2 0 -15 31 -30 69 -27
68 -27 68 -113 117 -65 37 -94 61 -116 94 -17 25 -38 54 -48 64 -10 11 -18 23
-18 28 0 4 -4 8 -10 8 -11 0 -1 -32 14 -42 7 -5 7 -8 -1 -8 -7 0 -13 -5 -13
-10 0 -6 8 -10 17 -8 14 2 17 -5 18 -35 0 -22 -4 -41 -9 -44 -4 -3 -7 13 -4
35 2 22 0 38 -4 36 -4 -3 -7 -31 -6 -62 0 -31 3 -50 6 -42 8 23 31 42 42 35 6
-3 7 1 4 9 -3 9 -10 16 -15 16 -5 0 -9 5 -9 10 0 25 18 6 43 -45 29 -60 34
-80 15 -69 -7 4 -8 3 -4 -5 4 -6 11 -9 15 -7 4 3 18 -17 31 -44 23 -48 23 -49
7 -137 -10 -54 -30 -116 -52 -160 -34 -69 -37 -72 -61 -63 -14 6 -42 10 -62 9
l-37 -1 42 -8 c23 -5 54 -15 70 -23 29 -16 79 -64 72 -71 -2 -2 -60 -13 -127
-25 -68 -12 -157 -34 -198 -50 l-73 -29 32 59 32 59 61 0 c57 0 62 2 68 24 3
13 9 32 12 43 5 17 4 17 -10 -1 -9 -11 -16 -28 -16 -38 0 -15 -9 -18 -55 -18
l-55 0 23 48 c34 67 81 191 75 197 -9 10 -394 -169 -422 -196 -17 -15 -26 -10
-26 15 0 36 -13 39 -81 20 -61 -17 -187 -92 -222 -131 -14 -16 -28 -19 -78
-17 -35 1 -67 8 -74 16 -10 10 -11 43 -4 143 11 161 43 494 70 720 37 315 49
450 49 557 l0 107 38 6 c130 22 213 43 335 86 76 27 148 49 159 49 11 0 38
-11 61 -24 60 -34 104 -45 54 -13 l-38 24 63 6 c82 8 156 33 191 65 37 35 34
46 -5 26 -52 -27 -169 -30 -265 -6 -97 25 -174 67 -249 135 -38 35 -58 47 -63
38 -10 -16 -33 33 -25 54 4 10 0 15 -12 15 -11 0 -42 11 -69 24 -109 50 -195
197 -195 331 l0 65 73 1 c39 0 94 4 120 8 l48 8 -8 -61 c-4 -34 -8 -104 -7
-156 1 -102 13 -140 61 -192 14 -14 22 -31 19 -36 -3 -6 2 -13 11 -16 10 -3
27 -19 38 -35 29 -45 30 -30 1 28 -15 28 -23 51 -19 51 4 0 2 5 -4 11 -6 6 -9
17 -7 24 3 7 1 16 -5 20 -16 9 -13 194 4 289 8 44 12 83 10 86 -3 5 57 40 69
40 2 0 6 -55 10 -122 3 -68 8 -145 11 -173 3 -37 2 -43 -4 -25 -15 42 -12 -6
4 -75 l14 -60 -4 55 c-4 54 -4 54 6 15 6 -22 8 -53 5 -68 -11 -57 41 -173 97
-217 23 -18 117 -54 117 -44 0 2 -22 13 -50 25 -62 27 -116 85 -126 136 -9 46
22 407 37 435 15 28 22 16 9 -16 -13 -34 -13 -80 -1 -143 6 -26 15 -73 21
-104 22 -112 114 -205 223 -223 46 -9 47 -2 2 20 -56 26 -76 63 -76 139 0 70
25 141 64 184 12 13 56 46 97 74 115 77 259 197 301 249 95 120 111 273 53
503 l-7 27 53 -38 c106 -76 213 -234 213 -315 0 -52 10 -40 36 41 65 200 27
328 -219 743 l-23 38 64 -34 c71 -39 137 -62 147 -53 3 4 -6 19 -22 34 -18 18
-25 21 -20 9 5 -13 2 -16 -10 -11 -9 3 -16 10 -16 16 0 5 -5 6 -12 2 -7 -4 -8
-3 -4 5 8 13 -44 89 -96 138 -30 29 -35 30 -52 17 -11 -8 -14 -14 -7 -14 7 0
9 -5 5 -12 -5 -8 -2 -9 11 -5 12 5 25 -1 41 -18 12 -13 19 -27 15 -29 -4 -3
-14 6 -21 19 -15 27 -36 35 -26 9 3 -8 2 -12 -4 -9 -6 3 -10 1 -10 -4 0 -6 5
-11 10 -11 6 0 10 -6 10 -12 0 -7 -23 10 -50 39 -34 35 -48 57 -44 68 4 9 3
15 -2 13 -5 -2 -10 0 -11 5 -2 4 0 7 3 6 4 0 11 5 15 13 9 13 14 -15 11 -55
-1 -11 3 -15 9 -12 14 9 8 66 -9 87 -8 9 -11 22 -7 27 3 6 -14 36 -39 67 -25
31 -46 50 -46 42 0 -7 11 -25 25 -40 14 -15 21 -29 16 -32 -15 -9 -62 69 -55
90 6 18 6 18 -10 -1 -17 -20 -17 -20 -6 3 12 24 -3 67 -21 57 -5 -4 -9 -1 -9
4 0 24 23 7 104 -77 89 -92 160 -181 233 -294 24 -38 46 -68 48 -68 8 0 -67
124 -99 165 -53 67 -101 137 -160 235 l-57 93 47 -7 c60 -8 165 9 216 35 60
31 39 33 -27 3 -53 -24 -65 -26 -154 -22 -158 9 -275 69 -369 190 -68 89 -87
109 -58 63 43 -68 88 -186 107 -280 49 -238 0 -457 -136 -602 -32 -34 -62 -60
-68 -56 -6 3 -7 1 -3 -5 3 -6 -4 -14 -16 -18 -13 -4 -25 -10 -28 -14 -6 -9
-144 -80 -154 -80 -4 0 -4 5 0 12 4 7 -8 3 -27 -8 -49 -29 -72 -37 -62 -21 4
6 25 37 45 69 80 121 116 235 123 385 5 107 7 116 -28 -97 l-12 -75 -5 107
c-4 64 -11 112 -19 122 -10 12 -10 26 -2 67 8 36 8 56 1 63 -7 7 -10 2 -10
-15 0 -74 -97 -307 -155 -374 -15 -16 -24 -24 -20 -18 9 19 15 57 8 49 -7 -7
-14 -32 -15 -56 -1 -21 -109 -130 -122 -123 -6 3 -8 3 -4 -2 4 -4 -5 -17 -20
-29 -41 -34 -122 -88 -122 -81 0 3 9 31 19 63 11 31 26 104 35 162 9 58 22
146 30 195 27 173 28 186 2 100 -13 -44 -45 -134 -71 -200 -26 -66 -48 -134
-50 -153 -1 -18 -11 -43 -22 -55 -11 -12 -42 -63 -69 -113 l-48 -91 -84 126
c-140 210 -156 252 -168 444 -3 59 -9 106 -11 103 -3 -2 -6 -49 -8 -103 -1
-57 -9 -121 -19 -153 -24 -76 -17 -233 13 -310 11 -30 21 -56 21 -57 0 -8 -76
45 -114 78 -51 45 -87 101 -118 181 -25 66 -27 244 -3 363 8 44 15 91 15 105
-1 22 -2 23 -11 7 -30 -52 -83 -287 -62 -274 6 4 13 34 17 68 4 34 9 59 12 56
3 -2 0 -44 -6 -93 -11 -86 -11 -364 0 -364 3 0 12 -21 19 -46 8 -25 33 -72 57
-105 24 -32 42 -59 39 -59 -17 0 -141 53 -170 73 -73 49 -124 142 -126 227
l-1 55 -10 -45 c-14 -68 -2 -169 31 -254 16 -42 27 -76 24 -76 -11 0 -69 46
-93 74 -36 41 -39 49 -62 129 -32 111 -30 227 7 359 18 66 32 103 37 95 5 -7
6 1 2 17 -5 22 -4 27 6 21 9 -5 11 -4 6 4 -4 6 1 28 12 49 10 20 25 55 32 77
7 22 16 42 19 45 4 3 15 26 24 51 53 141 196 321 372 469 61 52 70 60 65 60
-3 0 -32 -21 -65 -47z m1520 -848 c37 -77 59 -162 70 -270 7 -65 8 -68 21 -45
13 24 13 23 14 -23 0 -106 -61 -271 -158 -427 l-47 -75 -13 155 c-15 181 -21
346 -25 710 l-2 266 53 -111 c30 -60 69 -142 87 -180z m-595 -185 c-15 -69
-47 -131 -99 -198 l-41 -52 32 6 c69 13 136 35 200 68 71 37 168 105 168 118
0 4 5 8 11 8 11 0 40 26 39 35 -1 15 34 54 44 48 6 -4 20 -6 31 -5 20 3 20 2
1 -13 -11 -8 -25 -15 -32 -15 -7 0 -12 -16 -12 -37 -2 -67 -3 -70 -36 -70 -17
0 -25 2 -17 5 11 4 11 6 0 13 -7 4 -10 12 -5 16 5 4 11 2 13 -4 3 -7 12 -13
21 -13 16 1 16 2 0 14 -10 7 -15 16 -11 19 3 4 12 2 20 -4 8 -7 13 -8 13 -1 0
17 -27 21 -46 8 -10 -8 -26 -42 -36 -77 -10 -35 -32 -113 -50 -174 -24 -84
-32 -131 -32 -197 -1 -49 -4 -88 -8 -88 -10 0 -38 81 -46 135 l-7 48 -37 -60
c-43 -69 -108 -132 -167 -162 -23 -12 -41 -28 -41 -37 0 -8 -9 -32 -20 -54
-24 -48 -24 -50 -2 -51 24 -1 -56 -25 -107 -32 l-43 -5 6 31 c6 34 13 60 16
65 2 1 3 6 4 11 2 20 26 29 88 34 9 1 16 4 15 7 -1 3 17 32 39 65 51 76 102
165 82 145 -8 -8 -43 -48 -78 -88 -74 -85 -180 -160 -263 -186 -32 -10 -61
-16 -63 -13 -3 3 6 29 21 58 29 59 55 149 54 189 0 20 -3 18 -14 -15 l-13 -40
0 55 c0 30 6 80 13 110 18 73 24 141 14 134 -5 -3 -9 -15 -9 -27 0 -35 -28
-117 -54 -161 -61 -102 -155 -169 -257 -182 l-54 -7 18 24 c23 32 57 96 57
106 -1 4 -12 -12 -24 -37 -13 -25 -36 -58 -51 -74 -14 -15 -24 -31 -21 -34 3
-2 34 0 68 5 35 6 64 9 66 8 6 -5 -28 -168 -45 -220 -22 -68 -58 -122 -95
-145 -18 -11 -33 -18 -35 -17 -1 2 4 21 12 42 19 53 19 213 0 293 -14 60 -56
162 -78 190 -8 9 -13 8 -23 -5 -13 -16 -13 -15 -3 9 10 22 8 30 -9 48 -21 23
-26 38 -37 120 -4 25 -9 54 -12 64 -5 18 -3 18 25 -3 17 -12 47 -28 67 -37
l36 -15 -13 23 c-10 17 -12 50 -8 128 4 95 7 105 25 108 12 2 16 0 9 -5 -17
-12 -9 -97 16 -168 12 -33 25 -73 30 -90 13 -49 48 -141 49 -130 0 6 -6 35
-14 65 -8 30 -18 94 -21 142 -5 59 -11 89 -20 92 -8 3 -14 16 -13 28 0 23 0
23 9 2 5 -12 14 -25 21 -29 6 -4 42 -54 79 -112 l68 -104 31 56 c21 37 37 55
48 53 9 -2 18 3 20 10 3 8 -1 10 -14 6 -17 -6 -17 -6 1 8 10 8 16 20 12 26 -3
6 -1 14 5 18 8 4 9 3 5 -4 -4 -7 -2 -12 5 -12 6 0 9 8 6 20 -3 12 1 23 10 28
8 5 15 15 16 23 3 16 57 98 57 85 0 -4 -8 -20 -18 -34 -27 -40 -34 -62 -16
-55 7 3 14 12 14 21 0 8 2 13 5 10 8 -7 -14 -96 -32 -131 -14 -28 -14 -29 9
-22 81 25 266 188 334 295 41 64 48 69 58 44 3 -8 2 -13 -3 -10 -4 3 -9 -14
-9 -38 -1 -24 -6 -65 -11 -92 -5 -27 -7 -52 -5 -56 3 -5 0 -8 -6 -8 -7 0 -10
-7 -6 -15 3 -8 1 -15 -4 -15 -6 0 -10 -8 -10 -18 0 -10 -7 -28 -16 -40 -9 -13
-14 -26 -11 -28 6 -6 73 108 69 119 -1 4 2 7 6 7 15 0 46 80 46 115 0 19 4 31
8 29 8 -5 9 3 14 66 6 92 8 97 12 25 2 -44 -2 -105 -8 -135z m-1275 -250 c-3
-4 3 -14 13 -21 15 -13 16 -12 3 4 -20 25 -6 21 25 -8 15 -14 46 -35 70 -47
24 -11 41 -25 38 -30 -3 -4 -1 -8 5 -8 5 0 11 3 14 8 2 4 2 1 1 -5 -2 -7 5
-17 14 -22 9 -6 13 -11 7 -11 -5 0 -4 -4 3 -9 9 -5 14 -30 15 -67 1 -33 6 -62
12 -66 6 -5 2 -8 -8 -8 -10 0 -15 -5 -12 -11 4 -6 14 -8 22 -5 11 5 13 2 9
-10 -5 -12 -2 -15 12 -12 12 3 19 0 19 -9 0 -8 -6 -12 -14 -9 -8 4 -11 1 -8
-5 4 -5 12 -8 18 -6 7 2 20 -3 30 -11 16 -15 17 -14 11 4 -7 18 -7 18 13 1 11
-9 23 -14 28 -10 4 5 5 -2 2 -14 -3 -14 0 -23 6 -23 7 0 21 -8 32 -16 19 -16
19 -16 -5 -9 -14 4 -22 4 -18 0 10 -10 68 -14 68 -5 0 4 -10 12 -22 18 -17 8
-18 11 -7 11 21 1 43 -25 36 -41 -2 -7 1 -19 9 -25 10 -10 12 -6 7 25 -3 20
-10 45 -14 54 -12 22 -11 31 0 23 11 -6 35 -114 28 -121 -9 -9 -120 53 -182
101 -88 68 -93 77 -87 150 4 60 -15 125 -37 125 -5 0 -40 18 -78 40 -71 41
-138 100 -114 100 8 0 11 7 7 18 -4 12 0 10 14 -7 11 -12 18 -27 15 -31z
m1731 -147 c11 -60 -37 -174 -104 -246 l-26 -27 -13 22 c-15 28 -17 51 -3 43
6 -4 7 -12 3 -18 -4 -7 0 -7 10 1 9 8 19 23 23 35 4 11 16 29 28 39 13 11 17
21 11 25 -18 15 -16 51 6 95 40 80 55 87 65 31z m-255 -380 c-22 -78 -4 -231
35 -290 20 -32 18 -34 -23 -15 -52 24 -83 45 -83 56 0 5 8 2 18 -6 31 -27 48
-33 28 -10 -19 21 -38 51 -52 82 -4 8 -12 18 -17 22 -6 3 -10 27 -10 52 0 25
-4 43 -8 40 -17 -10 -59 -172 -71 -272 -9 -80 -14 -99 -21 -80 -12 34 -35 155
-40 215 -3 45 -1 52 17 61 34 15 226 172 226 184 0 6 3 9 6 6 3 -4 1 -23 -5
-45z m-1129 -87 c33 -28 48 -49 53 -74 11 -61 7 -185 -10 -246 -23 -87 -35
-101 -28 -33 7 67 -13 224 -34 276 -28 69 -45 106 -55 125 -9 16 -8 17 9 5 11
-8 40 -32 65 -53z m2392 -475 c3 -4 -43 -27 -102 -50 l-107 -41 -90 -101 c-97
-108 -178 -182 -189 -172 -3 3 -6 25 -6 47 0 45 -14 33 150 130 30 18 78 54
106 82 80 77 218 139 238 105z m-2034 -707 c-10 -121 -42 -377 -75 -609 -18
-119 -50 -430 -60 -568 l-7 -99 -37 8 c-20 4 -52 8 -72 9 -53 1 -317 122 -325
149 -4 12 -17 42 -29 68 l-23 47 137 213 c206 320 352 583 452 815 24 56 45
100 47 99 1 -2 -2 -62 -8 -132z m1621 -930 l20 -22 -53 -75 -52 -75 -45 34
c-24 19 -61 39 -83 46 -21 6 -38 14 -38 18 0 4 25 11 56 15 67 8 84 23 115
104 l24 61 18 -42 c10 -24 27 -53 38 -64z m-745 -210 c-26 -74 -103 -229 -119
-243 -9 -7 -17 -17 -17 -22 0 -5 -20 -43 -45 -83 -51 -84 -68 -123 -59 -137 8
-14 34 10 28 26 -3 7 2 27 10 44 15 28 18 29 46 20 16 -6 30 -14 30 -19 0 -15
-43 -61 -71 -75 -27 -14 -32 -14 -69 5 -22 11 -61 34 -87 50 -26 17 -52 30
-57 30 -14 -1 33 -38 62 -50 13 -6 20 -14 17 -20 -3 -6 1 -7 10 -4 10 4 15 2
13 -7 -2 -9 5 -13 20 -12 15 2 21 -1 16 -9 -4 -6 -3 -8 4 -4 6 3 13 2 17 -4 4
-6 11 -8 16 -5 5 4 9 2 9 -3 0 -5 6 -9 14 -9 8 0 12 6 9 12 -4 12 25 30 34 21
14 -14 -108 -182 -127 -174 -4 2 -34 35 -68 75 -47 54 -62 80 -62 102 0 17 -5
51 -12 75 -11 42 -7 101 18 236 4 21 26 36 117 83 114 58 310 147 315 143 1
-2 -4 -20 -12 -42z m-1471 -4 c39 -13 124 -47 190 -76 109 -48 120 -56 123
-81 7 -57 34 -148 62 -202 26 -53 28 -62 23 -143 l-6 -87 27 -7 c34 -8 33 -14
-10 -52 l-35 -31 -51 52 c-92 95 -130 148 -117 163 18 22 32 16 25 -10 -14
-57 40 -52 109 9 29 26 29 27 5 19 -14 -4 -40 -18 -58 -32 -27 -20 -35 -23
-45 -12 -9 10 -9 11 0 6 18 -10 23 6 10 30 -7 12 -48 63 -92 114 -44 51 -99
118 -121 149 -45 61 -142 240 -122 224 7 -6 45 -21 83 -33z m-130 -160 c2 -8
4 -16 4 -17 1 -2 0 -4 0 -5 -1 -2 12 -28 29 -58 17 -30 45 -94 62 -142 18 -49
36 -91 41 -94 5 -3 7 -10 4 -15 -4 -5 -1 -9 6 -9 7 0 9 -3 6 -7 -4 -3 -1 -13
7 -22 7 -9 28 -54 46 -100 19 -46 51 -110 71 -142 21 -32 35 -59 31 -59 -4 0
0 -5 8 -10 22 -14 19 -143 -5 -195 -18 -39 -20 -48 -23 -72 -1 -7 -16 -20 -33
-28 -17 -9 -44 -28 -60 -43 -34 -29 -111 -62 -149 -62 -14 0 -34 -7 -44 -15
-26 -19 -45 -19 -68 1 -16 16 -19 15 -37 -7 -11 -13 -20 -20 -21 -16 0 5 -7 1
-15 -7 -9 -9 -22 -19 -29 -23 -7 -5 -17 -19 -21 -32 -5 -18 -4 -22 5 -16 9 5
11 4 6 -4 -4 -7 -5 -19 -2 -28 6 -14 11 -12 34 10 35 34 86 33 102 -1 13 -30
-1 -57 -41 -78 -28 -14 -31 -19 -25 -50 3 -19 9 -49 12 -66 4 -25 0 -42 -20
-71 -15 -21 -35 -55 -46 -76 -21 -42 -98 -121 -117 -121 -6 0 -15 -5 -18 -11
-4 -5 9 -3 29 5 20 8 36 13 36 10 0 -2 -16 -27 -35 -55 -19 -28 -35 -56 -35
-62 0 -8 -3 -8 -11 0 -6 6 -10 30 -7 52 2 23 1 41 -3 41 -11 0 -19 -41 -19
-95 0 -41 -11 -72 -58 -165 -32 -64 -69 -153 -82 -198 -43 -142 -45 -130 -49
295 -2 204 1 358 8 400 6 37 18 120 26 183 9 63 20 138 26 165 5 28 10 64 10
80 2 37 30 140 71 259 16 49 32 97 34 105 7 29 61 176 82 224 12 27 22 50 22
53 0 14 112 247 123 255 5 3 8 9 7 13 -1 4 13 37 31 74 18 37 33 69 34 72 1 3
8 18 15 34 l14 29 14 -34 c8 -19 16 -41 17 -49z m900 -351 c-4 -5 2 -20 13
-34 14 -18 22 -21 31 -12 6 6 11 7 12 2 0 -6 2 -18 4 -27 3 -16 -68 -89 -84
-88 -3 1 -24 16 -45 34 -38 33 -39 35 -26 65 7 17 17 31 22 31 5 0 8 6 5 13
-2 7 10 17 27 23 33 11 50 8 41 -7z m227 -79 c26 0 50 5 53 11 9 13 57 -30 53
-48 -3 -15 -101 -152 -108 -152 -4 -1 -80 114 -134 202 l-17 27 53 -20 c29
-11 74 -20 100 -20z"/>
</g>
</svg>
