<?xml version="1.0" standalone="no"?>
<!DOCTYPE svg PUBLIC "-//W3C//DTD SVG 20010904//EN"
 "http://www.w3.org/TR/2001/REC-SVG-20010904/DTD/svg10.dtd">
<svg version="1.0" xmlns="http://www.w3.org/2000/svg"
 width="736.000000pt" height="736.000000pt" viewBox="0 0 736.000000 736.000000"
 preserveAspectRatio="xMidYMid meet">
<metadata>
Created by potrace 1.16, written by Peter Selinger 2001-2019
</metadata>
<g transform="translate(0.000000,736.000000) scale(0.100000,-0.100000)"
fill="#5d4a4a" stroke="none">
<path d="M730 7350 c0 -6 9 -27 20 -47 11 -21 20 -47 20 -58 0 -12 4 -25 8
-30 4 -6 19 -37 32 -70 23 -59 127 -237 142 -243 5 -2 8 -8 8 -13 0 -8 65 -98
79 -109 4 -3 22 -25 41 -50 43 -56 53 -65 115 -115 28 -22 52 -42 55 -45 10
-10 45 -31 63 -36 9 -4 17 -10 17 -14 0 -5 14 -12 32 -15 18 -4 39 -11 48 -16
8 -5 38 -18 65 -30 138 -58 167 -81 132 -100 -25 -14 -54 -48 -82 -96 -11 -18
-23 -33 -28 -33 -5 0 -23 -6 -40 -13 -18 -8 -57 -22 -87 -31 -96 -31 -202
-105 -242 -168 -19 -29 -25 -88 -9 -88 5 0 12 -13 16 -30 4 -16 11 -30 16 -30
13 0 11 -44 -2 -57 -7 -7 -12 -48 -13 -97 -1 -68 2 -89 16 -102 16 -16 16 -18
0 -30 -15 -12 -15 -13 -1 -14 9 0 22 -7 29 -15 18 -22 -10 -20 -52 3 -62 33
-107 45 -123 32 -22 -18 -19 -25 28 -72 40 -39 192 -128 220 -128 7 0 29 -9
50 -20 20 -11 43 -20 51 -20 7 0 27 -7 42 -15 16 -8 52 -15 80 -15 45 0 52 -3
58 -22 15 -59 10 -67 -104 -153 -36 -27 -71 -55 -78 -62 -7 -7 -18 -13 -23
-13 -6 0 -17 -6 -24 -12 -8 -7 -21 -18 -28 -25 -20 -16 -103 -53 -120 -53 -7
0 -17 -3 -21 -7 -14 -15 -198 -55 -331 -73 -38 -6 -80 -15 -93 -20 -13 -6 -55
-10 -93 -10 -39 0 -92 -7 -119 -16 -44 -14 -50 -20 -56 -52 -9 -46 3 -213 16
-226 6 -6 10 -21 10 -34 0 -13 6 -38 14 -55 7 -18 24 -61 37 -97 12 -36 26
-67 30 -70 3 -3 9 -14 13 -26 3 -11 14 -29 24 -40 9 -10 26 -32 36 -49 10 -16
39 -50 63 -76 24 -25 50 -56 56 -70 21 -42 96 -34 222 26 28 13 73 33 100 46
28 12 52 24 55 28 3 3 23 15 45 26 51 26 162 100 196 131 14 13 28 24 32 24
13 0 47 34 47 47 0 7 9 17 20 23 17 9 20 8 20 -14 0 -14 -4 -27 -9 -31 -6 -3
-13 -26 -17 -50 -3 -25 -10 -45 -15 -45 -12 0 -12 -247 0 -254 4 -3 11 -28 15
-55 4 -28 11 -53 16 -56 5 -3 12 -26 16 -51 7 -46 3 -60 -36 -119 -10 -16 -29
-50 -42 -75 -13 -25 -26 -47 -30 -50 -3 -3 -17 -25 -30 -50 -13 -25 -61 -101
-106 -169 -45 -69 -82 -130 -82 -137 0 -7 -4 -14 -8 -16 -7 -2 -59 -82 -97
-147 -5 -9 -33 -48 -62 -87 -44 -59 -52 -77 -54 -120 -1 -27 1 -55 5 -62 4 -7
1 -12 -8 -12 -9 0 -16 -4 -16 -10 0 -5 7 -10 15 -10 27 0 16 -20 -15 -26 -23
-5 -29 -11 -26 -28 2 -12 10 -19 17 -18 8 2 30 6 49 8 33 4 34 4 7 -5 -16 -5
-34 -14 -41 -20 -7 -6 -37 -15 -66 -21 -44 -8 -56 -7 -70 5 -10 9 -25 13 -36
9 -30 -11 -95 -65 -144 -119 -92 -102 -404 -405 -418 -405 -5 0 -59 -44 -105
-85 -15 -14 -31 -25 -35 -25 -4 -1 -17 -9 -29 -19 -22 -19 -23 -24 -23 -208 0
-168 2 -191 18 -209 10 -10 21 -26 25 -34 4 -8 13 -24 20 -36 12 -20 300 -307
390 -389 44 -40 117 -172 117 -212 0 -11 4 -23 10 -29 5 -5 10 -41 12 -79 1
-39 5 -74 9 -80 3 -5 10 -62 13 -125 10 -156 27 -168 25 -18 0 65 2 122 6 128
3 5 19 10 35 10 16 0 32 5 35 10 8 12 56 13 87 1 13 -5 44 -14 71 -20 65 -15
134 -48 183 -87 57 -45 155 -192 229 -343 92 -186 92 -171 -7 -171 -54 0 -92
-5 -108 -15 -27 -16 -41 -22 -67 -31 -16 -6 -16 -7 2 -14 28 -12 55 -13 37 -1
-18 11 33 21 109 21 l59 0 0 -41 c0 -35 -3 -40 -17 -34 -10 4 -39 12 -65 18
-26 7 -47 16 -45 22 1 5 -1 11 -6 13 -4 1 -6 -1 -4 -5 1 -5 -18 -10 -43 -13
-33 -4 -46 -10 -48 -23 -8 -39 15 -47 134 -47 l114 0 0 55 c0 54 5 61 41 57 4
-1 14 7 23 17 16 18 15 23 -31 102 l-48 83 1 121 c1 135 9 164 75 276 113 194
364 385 826 630 28 15 50 29 47 32 -3 2 2 7 11 11 9 3 13 2 10 -4 -3 -6 1 -10
10 -10 9 0 13 4 10 10 -3 5 0 7 9 4 22 -8 202 43 270 76 32 16 63 27 68 24 13
-8 -24 -33 -91 -62 -31 -13 -42 -20 -26 -17 17 4 55 19 85 34 34 18 62 26 74
21 24 -8 -17 -33 -207 -127 -142 -70 -303 -167 -414 -250 -104 -78 -371 -359
-300 -317 6 5 0 -8 -15 -27 -96 -120 -275 -455 -358 -667 -24 -63 -25 -72 -5
-72 9 0 15 9 15 23 1 12 9 37 18 55 l18 32 35 -52 35 -53 282 -3 282 -2 0 67
c0 94 15 141 60 186 38 37 39 38 68 23 17 -9 33 -21 36 -28 3 -7 4 -1 1 15 -5
24 -2 27 20 27 15 0 48 -9 75 -21 64 -27 76 -56 73 -176 l-2 -93 1091 0 c871
0 1088 3 1080 13 -11 14 -103 283 -100 294 0 5 -4 22 -11 38 -7 17 -17 50 -23
75 l-10 45 111 192 c61 106 111 194 111 196 0 3 -33 29 -72 60 -40 30 -83 66
-96 80 l-23 24 56 11 c120 24 256 125 309 230 30 60 56 159 56 220 0 43 25 82
53 82 48 0 129 157 197 383 21 71 44 135 50 142 7 8 31 25 55 39 60 36 99 94
136 203 37 111 50 116 123 51 79 -69 136 -156 301 -463 l49 -90 -35 26 c-19
14 -48 33 -66 42 -38 20 -27 46 -87 -213 -63 -273 -65 -294 -31 -375 16 -36
26 -67 24 -69 -2 -3 -25 5 -51 16 l-46 20 -96 -43 c-53 -23 -93 -45 -91 -47 3
-3 47 -13 97 -23 l93 -18 43 30 c24 17 46 28 49 25 4 -3 -11 -49 -31 -101
l-38 -96 26 -37 c14 -20 39 -52 54 -71 l28 -33 32 66 c47 99 44 118 -40 254
l-20 33 28 -6 c16 -4 58 -16 94 -28 41 -14 90 -22 133 -22 l69 0 2 -130 2
-130 -82 3 c-75 3 -87 1 -142 -27 -33 -17 -68 -38 -78 -48 -17 -17 -17 -17
-11 0 5 13 -5 24 -41 47 -26 16 -55 30 -64 30 -9 0 -37 -16 -63 -36 -26 -19
-50 -34 -55 -32 -4 2 -100 88 -212 192 -204 190 -253 225 -338 241 -28 5 -23
1 21 -18 67 -28 101 -52 152 -105 l39 -39 -22 -149 c-44 -308 -93 -511 -195
-813 -24 -74 -43 -137 -40 -139 3 -3 7 -3 8 -1 9 10 117 337 117 352 0 32 15
17 32 -31 26 -73 91 -165 143 -206 27 -20 53 -36 58 -36 6 0 -7 -18 -28 -40
-30 -31 -35 -40 -21 -40 10 0 52 32 93 70 41 39 79 70 84 70 5 0 -3 -26 -17
-57 -14 -32 -28 -64 -31 -70 -6 -15 19 -17 33 -3 7 7 20 7 40 0 17 -6 82 -9
145 -8 l115 3 -54 100 c-30 55 -71 146 -91 203 -21 56 -41 99 -46 95 -4 -5 -5
-2 -1 5 10 16 -15 127 -25 111 -4 -7 -5 -19 -1 -27 3 -10 1 -13 -6 -8 -11 7
-17 -6 -13 -28 1 -5 -5 -4 -14 4 -11 9 -12 16 -5 25 7 8 7 15 2 19 -6 3 -12
-1 -16 -9 -3 -8 -15 -15 -27 -15 -16 0 -20 4 -15 18 5 15 4 14 -9 -2 -8 -10
-12 -23 -9 -28 3 -4 -1 -11 -10 -14 -8 -3 -12 -12 -10 -19 3 -8 -2 -12 -13
-12 -13 2 -17 -4 -15 -18 1 -13 -8 -27 -28 -40 -20 -14 -28 -26 -24 -37 3 -12
0 -18 -9 -18 -8 0 -17 -8 -21 -17 -3 -10 -10 -28 -16 -41 -5 -13 -6 -21 -1
-18 10 7 33 -18 25 -27 -3 -3 7 -14 23 -23 15 -10 31 -23 35 -29 4 -5 8 -1 8
10 0 12 3 16 8 9 12 -18 50 -23 56 -8 3 8 13 14 22 14 11 0 4 -10 -21 -30 -21
-16 -41 -30 -45 -30 -4 0 -35 20 -69 45 -59 44 -126 123 -165 197 l-20 36 32
114 c63 226 112 455 112 526 l0 33 118 -107 c64 -60 122 -117 129 -129 7 -11
12 -38 13 -60 1 -80 69 -382 116 -511 57 -157 109 -264 129 -264 12 0 7 16
-19 67 -50 101 -123 291 -135 353 -10 49 -53 290 -66 363 -5 28 -3 28 53 -22
133 -118 184 -169 173 -175 -6 -4 -16 -4 -21 -1 -6 4 -9 2 -8 -3 2 -5 -18 -29
-44 -52 -74 -65 -65 -81 63 -114 30 -8 94 -33 142 -56 77 -37 94 -50 149 -117
35 -42 95 -113 134 -157 l71 -81 601 -3 602 -2 0 297 0 298 -73 47 c-39 26
-80 50 -89 54 -10 3 -18 12 -18 19 0 8 -15 24 -32 37 -18 12 -60 44 -93 70
-61 50 -153 91 -189 86 -12 -1 -36 8 -54 21 -40 28 -36 38 6 14 l30 -17 56 42
c81 61 105 120 71 169 -8 12 -49 40 -90 63 -41 23 -77 45 -79 49 -3 4 -14 50
-25 101 -12 51 -28 104 -36 117 -23 34 -101 70 -123 57 -9 -6 -43 -63 -75
-127 -75 -150 -79 -151 -192 -36 -81 82 -119 109 -153 109 -10 0 -61 43 -114
98 -95 96 -178 212 -236 328 l-31 60 31 30 c32 30 67 96 68 127 0 10 4 16 8
13 11 -7 8 97 -3 114 -5 9 -4 11 3 6 8 -5 12 0 12 13 0 11 10 29 22 41 12 11
19 23 15 26 -4 4 -2 14 5 21 15 18 22 163 8 163 -5 0 -10 9 -10 20 0 11 -7 20
-15 20 -8 0 -15 6 -15 14 0 8 -5 16 -11 18 -13 4 -21 58 -10 58 5 0 9 35 10
78 1 59 -3 88 -19 124 -34 78 -88 85 -190 22 -19 -11 -39 -22 -45 -24 -5 -1
-20 -6 -33 -11 -13 -5 -27 -9 -31 -9 -5 0 -8 39 -7 88 1 48 -1 92 -4 97 -4 6
-15 32 -25 60 -10 27 -33 65 -51 83 -33 34 -35 34 -101 30 -39 -2 -68 -9 -71
-16 -2 -7 -9 -12 -16 -12 -6 0 -19 -9 -29 -20 -10 -12 -22 -18 -27 -15 -6 3
-10 -1 -10 -10 0 -9 -4 -14 -9 -11 -5 3 -11 -1 -15 -9 -3 -8 -12 -15 -20 -15
-8 0 -16 -4 -18 -8 -4 -11 -102 -78 -105 -72 -1 3 -8 -3 -15 -12 -7 -9 -47
-42 -88 -73 -41 -30 -108 -88 -149 -128 l-73 -72 4 38 c2 20 1 37 -3 37 -3 0
-9 17 -12 38 -4 20 -16 45 -27 55 -23 20 -69 23 -71 5 -1 -7 -3 -33 -4 -57 -2
-24 -8 -48 -14 -54 -14 -14 -14 -30 -1 -22 19 12 10 -4 -22 -38 -18 -19 -44
-37 -58 -41 -19 -6 -21 -5 -10 3 12 9 11 11 -8 11 -13 0 -20 -4 -17 -10 3 -5
-6 -12 -20 -16 -31 -8 -98 4 -90 16 3 5 -5 9 -17 8 -13 0 -30 0 -39 1 -19 1
-69 45 -69 60 0 6 -6 14 -13 18 -8 4 -16 18 -19 30 -6 23 5 26 44 9 29 -13
129 5 128 23 -1 13 -26 36 -42 39 -10 1 -32 16 -50 32 -18 17 -36 30 -40 30
-5 0 -8 5 -8 12 0 6 -11 26 -26 45 -14 18 -22 38 -18 45 4 6 3 8 -3 5 -6 -4
-15 5 -21 18 -10 22 -9 26 17 39 16 9 31 12 35 9 3 -4 6 -1 6 5 0 16 30 15 31
0 1 -7 5 -2 9 12 6 20 8 15 9 -25 1 -55 22 -95 50 -95 9 0 22 -5 29 -12 6 -6
34 -12 61 -12 42 0 55 4 81 29 16 16 30 33 30 37 0 23 70 100 110 120 25 13
48 27 51 31 3 5 8 8 10 8 13 -2 49 13 49 20 0 5 7 9 15 9 8 0 21 14 30 30 9
17 12 30 8 30 -5 0 -9 19 -10 43 -2 23 -9 47 -18 53 -8 6 -15 19 -15 29 0 14
6 16 28 12 39 -8 163 14 169 30 3 7 9 10 14 7 5 -3 9 0 9 7 0 7 3 10 6 6 3 -3
18 5 32 19 15 13 32 24 39 24 7 0 13 7 13 15 0 8 5 15 11 15 5 0 8 4 5 9 -4 5
-1 11 5 13 12 4 42 52 80 126 12 24 28 46 35 49 8 3 14 11 14 19 0 8 5 14 10
14 6 0 10 6 10 13 0 12 10 27 50 75 21 24 70 131 70 151 0 12 5 21 10 21 6 0
10 46 10 118 1 113 1 116 17 87 9 -16 19 -32 23 -35 4 -3 11 -16 15 -30 4 -14
11 -27 15 -30 3 -3 17 -27 29 -55 12 -27 27 -58 33 -69 14 -26 -32 -116 -60
-116 -6 0 -12 -7 -16 -15 -3 -8 -12 -15 -20 -15 -7 0 -16 -7 -20 -15 -5 -13
-2 -14 17 -4 69 36 127 103 127 145 0 32 -80 185 -141 272 -81 113 -84 116
-58 58 19 -45 21 -59 14 -159 -4 -60 -13 -131 -21 -158 -15 -49 -99 -183 -136
-216 -21 -18 -21 -18 -15 7 3 14 11 75 17 135 7 65 19 126 30 150 20 42 50
203 50 268 0 20 16 76 34 125 74 186 97 257 102 316 8 90 5 87 70 67 l57 -18
78 -139 c99 -175 145 -288 160 -397 11 -71 10 -92 -1 -129 l-14 -43 -6 80 c-9
117 -54 194 -209 356 l-80 84 15 -60 c9 -32 33 -101 55 -153 70 -169 91 -247
96 -367 5 -103 3 -116 -26 -205 -17 -52 -38 -106 -46 -120 -12 -23 -13 -15 -9
76 3 85 8 109 29 145 14 24 25 49 25 54 0 6 -13 -13 -30 -42 -43 -74 -160
-163 -196 -149 -9 3 -12 1 -9 -4 3 -6 19 -10 34 -10 25 0 38 8 89 50 24 21 34
0 27 -58 -4 -31 -10 -62 -15 -67 -5 -6 -12 -29 -16 -51 -4 -30 -2 -43 10 -53
9 -7 16 -9 16 -3 0 5 8 12 18 14 9 3 26 24 37 46 11 23 23 42 28 42 4 0 7 6 7
13 0 6 7 25 15 40 8 15 17 45 21 65 4 20 13 49 20 64 8 15 14 38 14 52 0 14 8
30 18 35 9 6 14 11 10 11 -10 0 23 32 48 46 10 5 30 30 42 55 22 40 23 53 18
148 -3 57 -10 109 -16 115 -5 5 -10 23 -10 38 0 16 -4 36 -9 46 -8 14 -20 43
-26 62 -6 20 -33 70 -51 95 -11 17 -31 53 -44 80 -13 28 -26 52 -29 55 -11 9
-31 49 -52 102 -18 48 -21 80 -24 313 -3 143 -7 271 -11 285 -9 40 -25 151
-28 195 -1 22 -5 47 -8 55 -8 19 -16 80 -10 80 2 0 22 -16 45 -35 22 -19 47
-35 54 -35 7 0 13 -4 13 -9 0 -5 12 -11 28 -14 40 -8 114 -28 137 -37 55 -22
279 13 365 57 14 7 31 13 38 13 6 0 12 4 12 9 0 5 11 12 25 15 52 13 155 118
155 158 0 10 4 18 9 18 10 0 34 111 33 155 0 17 -3 50 -6 75 -3 25 -9 64 -12
88 -3 23 -9 42 -15 42 -5 0 -9 7 -9 15 0 15 -66 145 -79 155 -3 3 -19 23 -36
45 -56 76 -175 183 -233 210 -31 14 -69 33 -84 41 -14 8 -35 14 -45 14 -10 0
-24 5 -31 12 -7 7 -51 14 -102 16 -76 4 -90 2 -90 -11 0 -17 58 -57 84 -57 9
0 16 -4 16 -10 0 -5 8 -10 18 -10 9 0 29 -6 43 -14 14 -7 37 -16 52 -19 58
-15 170 -146 197 -232 11 -32 28 -180 30 -255 2 -82 -43 -175 -114 -238 -44
-39 -75 -52 -120 -52 -17 0 -37 -5 -44 -12 -11 -11 -58 6 -100 37 -44 32 -245
241 -254 264 -2 5 -29 37 -61 72 -31 35 -91 102 -131 149 -41 47 -87 92 -103
100 -32 17 -53 35 -53 47 -1 24 -177 203 -250 253 -13 8 -28 20 -34 26 -7 6
-23 15 -36 19 -14 4 -28 12 -31 17 -4 6 -31 13 -60 17 l-54 6 2 44 c1 25 7 47
12 51 6 3 13 33 17 65 4 33 10 65 14 70 14 18 24 235 11 235 -7 0 -11 -22 -11
-59 0 -138 -54 -340 -134 -498 -93 -185 -217 -318 -419 -446 -45 -29 -30 -11
23 27 28 20 50 40 50 44 0 5 22 31 49 59 27 28 72 85 100 127 31 46 56 74 63
70 7 -4 8 -3 4 4 -4 7 -3 12 2 12 9 0 62 73 63 87 0 5 6 15 14 23 7 8 16 26
20 40 4 14 18 44 31 67 13 23 37 82 55 130 26 73 32 107 37 201 4 94 2 112
-10 112 -12 0 -16 -24 -22 -122 -3 -71 -12 -136 -20 -153 -32 -67 -46 -104
-46 -119 0 -9 -4 -16 -9 -16 -5 0 -12 -13 -16 -30 -4 -16 -10 -30 -15 -30 -4
0 -11 -8 -14 -17 -4 -10 -16 -35 -29 -55 -129 -214 -130 -216 -218 -307 -25
-26 -65 -57 -90 -70 -24 -12 -64 -34 -89 -48 -156 -91 -319 -173 -341 -173
-11 0 -19 -4 -19 -9 0 -5 -16 -12 -36 -16 -20 -3 -44 -10 -53 -14 -9 -5 -50
-19 -91 -31 -41 -13 -89 -29 -107 -37 -17 -7 -37 -13 -45 -13 -8 0 -19 -5 -25
-11 -5 -5 -24 -11 -42 -11 -17 -1 -31 -6 -31 -11 0 -6 -3 -8 -6 -4 -3 3 -31
-3 -61 -14 -68 -23 -111 -26 -94 -5 8 10 8 20 -4 42 -18 34 -31 17 175 224
146 146 159 156 222 178 38 13 70 28 74 33 3 5 13 9 23 9 17 0 91 66 91 81 0
15 59 69 75 69 8 0 15 5 15 10 0 6 5 10 11 10 7 0 33 13 59 29 25 16 62 32 81
36 19 4 39 11 44 15 26 19 127 42 190 44 58 2 71 6 73 20 7 37 -9 65 -60 100
-29 20 -66 53 -83 73 -52 63 -119 130 -135 135 -13 4 -11 13 9 54 31 61 75
104 108 104 23 0 52 23 53 43 0 4 -61 7 -135 7 -74 0 -134 -3 -133 -7 1 -5 -1
-25 -5 -45 -6 -26 -24 -53 -64 -92 -46 -47 -54 -58 -43 -71 7 -8 18 -15 26
-15 24 0 84 -71 84 -100 0 -32 47 -80 93 -95 17 -5 33 -18 35 -27 3 -15 -4
-18 -35 -18 -21 0 -51 -7 -67 -15 -15 -8 -33 -15 -38 -15 -14 0 -91 -35 -211
-96 -59 -29 -116 -54 -127 -54 -10 0 -22 -4 -25 -10 -3 -5 -16 -10 -27 -10
-18 0 -20 4 -15 33 23 127 26 163 22 252 -3 55 -8 118 -10 140 -19 157 -20
144 11 156 18 6 54 8 90 4 48 -5 63 -3 67 8 4 10 31 16 87 21 76 6 130 26 130
47 0 5 -128 9 -290 9 l-289 0 -16 -55 c-10 -34 -16 -87 -15 -142 2 -98 -1
-138 -12 -149 -13 -12 -9 -52 5 -57 6 -2 -24 -7 -69 -11 -44 -4 -86 -11 -92
-15 -7 -4 -64 -58 -128 -120 -63 -62 -117 -111 -121 -108 -9 10 26 101 68 172
38 66 57 120 110 323 20 77 62 152 77 137 4 -3 0 -10 -8 -15 -11 -7 -10 -9 7
-7 17 1 20 5 13 18 -5 9 -6 19 -2 23 3 4 -15 6 -41 5 -42 -2 -47 -5 -47 -26 0
-28 -11 -30 -28 -3 -10 16 -23 20 -67 20 -67 0 -74 -19 -7 -21 l47 -2 -40 -6
c-36 -5 -40 -9 -40 -34 -1 -16 3 -31 7 -33 4 -3 8 2 8 10 0 21 10 20 40 -4 20
-16 22 -20 8 -20 -13 0 -18 -8 -18 -30 0 -33 11 -38 30 -15 7 8 16 15 21 15
12 0 12 -57 0 -65 -5 -3 -13 -30 -16 -60 -4 -31 -11 -58 -16 -61 -5 -3 -9 -13
-9 -23 0 -18 -36 -58 -44 -50 -3 2 -8 56 -12 119 -3 63 -10 120 -15 125 -4 6
-11 45 -15 88 -6 67 -9 77 -26 77 -14 0 -18 -5 -14 -17 32 -104 49 -210 50
-308 l1 -109 -90 -53 c-49 -29 -92 -53 -95 -53 -3 1 -20 33 -38 73 -18 40 -67
119 -108 177 -78 109 -104 171 -104 247 l0 43 -140 0 -140 0 29 -53 c16 -29
32 -67 36 -85 3 -18 11 -32 16 -32 5 0 9 -5 9 -11 0 -5 16 -31 35 -56 44 -57
44 -67 3 -58 -53 12 -278 17 -291 7 -7 -5 -47 -13 -89 -17 -43 -4 -80 -10 -83
-15 -3 -5 -24 -11 -47 -15 -23 -4 -49 -11 -58 -16 -158 -84 -464 -33 -705 117
-67 42 -188 161 -204 202 -13 31 -15 32 -77 32 -36 0 -64 -4 -64 -10z m2230
-434 c0 -2 -16 -42 -36 -88 -24 -55 -34 -94 -32 -115 5 -46 -22 -44 -62 5 -44
53 -48 78 -18 109 37 37 148 104 148 89z m1841 -48 c61 -20 177 -109 267 -202
231 -243 402 -563 473 -889 23 -103 49 -409 48 -562 l0 -100 -14 50 c-7 28
-18 61 -24 75 l-10 25 0 -25 c-1 -14 6 -65 14 -115 8 -49 15 -109 15 -132 0
-23 5 -54 11 -70 l10 -28 -28 25 c-48 43 -50 50 -46 119 3 40 -4 122 -17 206
-11 77 -32 217 -46 310 -13 94 -34 199 -45 235 -30 91 -140 344 -179 410 -40
68 -135 204 -173 247 l-28 32 35 7 c20 3 36 8 36 11 0 8 -87 118 -114 142 -19
18 -23 28 -16 42 14 26 12 50 -6 70 -16 17 -18 17 -48 -6 -21 -16 -56 -28
-105 -36 -63 -9 -79 -9 -117 6 -24 9 -44 18 -44 21 0 2 14 35 31 74 35 77 47
83 120 58z m-2311 -64 c73 -33 116 -76 151 -149 46 -96 44 -103 -75 -219 -57
-55 -117 -118 -134 -140 l-30 -38 -69 37 c-37 21 -86 51 -107 68 -31 25 -37
27 -28 10 16 -30 67 -70 124 -99 57 -29 58 -42 1 -24 -51 17 -114 54 -143 85
-19 20 -21 27 -10 40 10 12 10 15 -3 15 -15 0 -118 115 -139 155 -12 24 49
-42 78 -86 l22 -31 7 54 c4 29 16 73 26 97 10 24 19 46 19 48 0 3 -41 3 -90 1
-92 -3 -112 4 -62 23 28 11 166 9 177 -3 3 -3 1 -25 -5 -48 -21 -77 -29 -148
-20 -177 l8 -28 1 30 c1 17 8 66 17 110 9 44 17 94 18 110 l1 30 -72 3 c-40 2
-73 6 -73 11 0 9 115 102 150 121 66 36 173 33 260 -6z m3377 -38 c160 -34
264 -86 358 -181 151 -151 234 -329 235 -502 0 -180 -115 -309 -325 -363 -208
-53 -404 -28 -530 68 -43 33 -50 44 -70 112 -54 186 -154 393 -272 565 l-34
50 33 -36 c18 -19 89 -100 158 -179 299 -343 345 -387 480 -455 71 -36 161
-66 194 -64 18 1 17 2 -4 8 -14 5 -54 23 -90 41 l-64 32 51 20 c74 27 144 94
179 170 26 56 29 75 31 173 2 130 -8 186 -52 280 -41 90 -118 164 -218 210
-40 18 -85 37 -100 40 -15 4 -30 11 -33 16 -7 12 -8 12 73 -5z m-3128 -249
c-69 -64 -81 -86 -79 -145 5 -103 8 -98 -67 -106 -38 -4 -90 -9 -118 -13 l-49
-6 98 105 c93 101 146 146 226 195 52 32 51 27 -11 -30z m-642 -104 c22 -27
43 -63 46 -80 6 -30 4 -33 -18 -33 -48 0 -126 22 -132 38 -6 15 43 122 57 122
4 0 25 -21 47 -47z m2525 -19 l78 -26 -15 -35 c-9 -20 -13 -38 -11 -40 2 -3
18 3 34 11 30 15 31 15 65 -23 19 -21 58 -77 87 -125 29 -47 55 -86 57 -86 6
0 -37 81 -73 138 -19 29 -34 55 -34 59 0 3 -11 21 -26 40 -30 39 -22 41 50 9
99 -44 199 -116 297 -215 135 -136 223 -277 267 -427 26 -86 79 -436 87 -569
l6 -100 -26 30 c-14 17 -41 62 -61 100 -33 66 -36 83 -59 291 -20 180 -32 245
-65 358 -39 133 -71 210 -105 251 l-17 20 7 -20 c90 -254 106 -318 144 -575
44 -300 80 -391 202 -512 43 -43 74 -78 69 -78 -34 0 -131 50 -185 96 -122
103 -131 125 -296 663 -29 96 -55 169 -57 162 -2 -7 6 -39 17 -72 27 -73 48
-151 67 -250 16 -83 48 -182 87 -270 l25 -56 -22 -64 c-27 -76 -48 -118 -89
-178 -34 -50 -209 -240 -232 -254 -8 -4 9 30 38 77 56 88 93 193 100 279 5 65
-3 52 -29 -50 -24 -95 -56 -175 -97 -240 l-26 -41 -71 24 c-39 12 -92 26 -118
29 -31 4 -15 -3 45 -19 119 -32 136 -41 123 -66 -17 -32 -12 -33 37 -6 l47 27
20 -22 c21 -21 21 -22 1 -15 -23 8 -17 2 39 -38 32 -24 36 -25 27 -8 -6 11
-26 35 -46 53 l-35 33 79 81 c43 44 91 99 106 123 l28 43 17 -53 c9 -29 40
-108 69 -176 66 -155 85 -240 77 -350 -7 -113 -13 -121 -61 -82 -49 39 -84 48
-100 26 -7 -9 -18 -50 -24 -91 -7 -41 -16 -75 -19 -75 -4 0 -16 7 -26 15 -18
14 -17 19 28 177 25 90 46 169 46 176 0 23 18 12 25 -15 9 -36 47 -125 51
-120 2 2 -8 50 -22 106 -14 57 -31 144 -39 195 l-13 91 -1 -88 c-1 -125 -38
-278 -110 -459 l-10 -27 -51 52 -50 52 23 20 c12 11 36 30 52 42 l30 21 -46
-5 c-26 -3 -86 3 -146 16 -204 42 -360 16 -461 -78 l-33 -30 -39 39 c-44 44
-104 65 -159 55 -42 -8 -158 -68 -178 -93 -8 -9 -25 -35 -40 -57 -37 -59 -83
-104 -128 -128 -34 -19 -55 -22 -150 -21 -191 1 -344 51 -438 142 -83 81 -98
125 -118 363 -10 119 -10 168 1 260 17 151 17 152 -48 163 -29 6 -51 14 -49
20 2 6 39 31 82 56 82 46 215 162 215 186 0 20 6 18 57 -21 32 -24 50 -32 58
-25 8 6 23 -4 49 -36 53 -63 76 -75 165 -85 94 -11 257 -65 360 -120 40 -22
76 -38 78 -36 2 3 -31 23 -74 45 -105 54 -271 111 -352 120 -36 4 -66 12 -66
17 -1 6 -7 21 -14 35 -27 48 -14 243 24 345 5 16 5 17 -4 5 -20 -28 -11 2 11
39 23 38 49 62 59 56 3 -2 11 -29 18 -60 7 -30 17 -55 22 -55 6 0 7 -9 4 -21
-5 -16 -4 -19 6 -14 9 6 11 3 6 -9 -8 -20 42 -160 79 -225 37 -62 82 -117 113
-138 20 -13 18 -7 -13 28 -54 63 -150 266 -176 374 -12 50 -23 97 -26 106 -3
12 5 18 32 22 21 4 50 19 66 34 l28 27 19 -21 c11 -11 47 -37 80 -58 l61 -36
1 -52 c1 -29 5 -63 9 -77 l8 -25 1 25 c1 19 3 22 10 11 9 -13 7 38 -3 90 -2
10 4 15 17 15 35 -1 48 39 44 129 -2 44 -7 87 -11 96 -6 13 0 18 26 23 50 9
96 42 115 81 15 31 21 35 57 35 51 0 124 35 144 70 l15 26 53 -28 c54 -30 164
-71 171 -64 12 11 -12 163 -32 201 l-21 43 29 17 c36 21 67 71 67 109 0 24 -3
28 -22 23 -135 -31 -168 -36 -210 -31 -27 4 -48 8 -48 10 0 2 11 20 25 40 13
20 28 59 31 86 l7 50 36 -7 c20 -3 71 -17 113 -31z m469 -33 c43 -55 47 -64
53 -137 7 -78 7 -78 78 -168 91 -115 91 -116 86 -116 -3 0 -31 34 -63 75 -101
133 -259 266 -381 322 -30 13 -54 26 -54 28 0 10 72 -23 135 -61 39 -23 71
-41 73 -39 2 2 4 18 4 36 0 19 6 43 11 54 16 28 15 38 -2 58 -12 15 -13 17 0
12 8 -3 35 -32 60 -64z m-3131 -32 c76 -46 113 -98 125 -180 5 -35 3 -55 -10
-80 -25 -49 -75 -109 -89 -109 -7 0 -33 14 -57 30 -43 30 -43 30 10 -20 62
-56 63 -52 -27 -106 -42 -26 -43 -26 -64 -8 -19 17 -21 17 -15 2 10 -28 -14
-21 -50 13 l-32 32 -36 -36 -37 -37 -36 19 c-46 23 -66 46 -81 91 -10 31 -9
36 10 51 22 16 22 16 -15 23 -29 6 -40 15 -57 48 -18 36 -20 47 -10 79 14 48
26 55 56 35 35 -23 42 -20 16 8 -21 22 -22 28 -12 59 13 40 64 92 83 84 7 -2
21 -27 31 -55 l17 -51 41 44 c75 81 168 106 239 64z m2294 -280 c8 -74 -5
-119 -43 -153 -19 -18 -27 -18 -85 -8 -57 11 -196 65 -196 77 0 2 18 14 39 25
44 22 71 54 71 85 0 18 6 20 75 20 64 0 78 3 97 22 28 28 33 20 42 -68z
m-1074 -93 c0 -8 -20 -17 -52 -24 -29 -6 -168 -36 -308 -66 -140 -30 -277 -57
-305 -61 -27 -4 -59 -9 -70 -12 -17 -5 -18 -4 -6 11 9 10 10 16 2 16 -25 0 -9
18 22 23 83 14 122 17 102 7 -14 -7 -9 -8 20 -2 22 3 56 6 75 5 25 -1 30 1 20
8 -10 6 -5 7 18 3 20 -4 48 0 75 10 37 14 84 23 126 25 8 1 11 4 7 8 -9 9 75
31 149 39 33 4 69 10 80 15 30 12 45 10 45 -5z m285 -31 c-18 -59 -25 -95 -25
-140 0 -32 -7 -58 -18 -73 l-18 -24 -52 41 c-29 23 -52 45 -52 50 0 18 52 100
91 145 36 40 42 44 60 33 14 -8 18 -18 14 -32z m-131 -47 c-5 -7 -27 -39 -51
-71 -23 -32 -56 -83 -74 -113 -26 -47 -33 -53 -46 -42 -9 7 -24 31 -33 54 -10
23 -32 57 -49 76 -31 35 -38 62 -23 85 5 8 21 8 62 -3 60 -16 129 -12 182 11
41 18 41 18 32 3z m-1518 -84 c109 -153 114 -282 14 -335 -20 -11 -55 -19 -82
-19 -39 0 -54 6 -83 31 -41 37 -70 120 -60 172 11 53 137 233 155 222 5 -3 30
-35 56 -71z m1821 20 c24 -4 40 -11 37 -15 -3 -5 -7 -28 -9 -52 -1 -23 -8 -55
-14 -72 -28 -73 -34 -85 -44 -85 -25 0 -147 64 -147 77 0 8 16 33 35 56 19 22
41 56 47 74 10 27 17 33 33 28 11 -3 39 -8 62 -11z m-944 -41 c20 -3 37 -7 37
-10 0 -8 -91 -141 -104 -152 -11 -9 -16 -5 -25 20 -6 18 -11 39 -11 48 0 9 -9
34 -20 56 -11 22 -20 40 -20 41 0 6 58 11 80 8 14 -3 42 -7 63 -11z m368 -99
c13 -14 41 -35 62 -45 20 -11 37 -22 37 -25 0 -2 -11 -27 -25 -54 -29 -56 -32
-73 -9 -44 15 18 15 18 5 -3 -18 -36 -77 -93 -97 -93 -37 0 -106 64 -152 141
-23 37 -23 39 -5 45 53 16 104 47 124 74 13 16 26 30 29 30 4 0 17 -12 31 -26z
m-499 -80 c16 -11 28 -24 28 -30 0 -17 -117 -123 -156 -142 -32 -15 -34 -14
-54 9 -32 38 -43 60 -28 57 15 -3 69 102 61 116 -4 5 -1 6 5 2 11 -6 13 -3 12
19 0 3 12 16 27 29 l27 24 26 -33 c14 -18 37 -41 52 -51z m-1397 -84 c88 -27
261 -37 363 -21 73 11 74 11 93 -13 25 -32 97 -66 140 -66 19 0 53 9 75 19
l42 19 -1 -21 c0 -12 3 -30 7 -39 13 -29 -61 -43 -229 -42 -138 0 -159 3 -255
31 -58 18 -131 41 -162 53 -61 22 -164 86 -188 115 -14 17 -14 17 15 3 17 -9
62 -26 100 -38z m2394 -87 c-8 -23 -12 -74 -10 -133 4 -139 6 -147 27 -172
l19 -22 -31 22 c-17 11 -48 42 -68 67 -36 43 -37 46 -25 80 9 24 16 31 22 22
5 -7 6 0 3 18 -3 17 -6 55 -8 85 -2 54 -2 54 30 61 18 4 36 9 39 13 14 13 14
-5 2 -41z m-1290 -80 c-5 -14 -6 -29 -3 -34 8 -14 31 7 38 36 4 17 17 28 45
36 35 11 44 9 92 -15 29 -14 68 -26 86 -26 23 0 35 -5 39 -17 13 -44 81 -179
103 -205 l24 -29 29 28 30 28 -7 -30 c-4 -16 -8 -36 -10 -42 -3 -10 0 -10 15
0 14 8 20 23 20 50 0 39 81 223 93 211 16 -16 81 -3 131 25 81 46 85 32 35
-124 -22 -70 -47 -157 -54 -194 -14 -67 -36 -95 -80 -104 -14 -3 -12 -5 8 -6
33 -1 37 -30 6 -38 -21 -6 -21 -7 -4 -19 23 -17 23 -17 -165 -71 -12 -3 -12
-5 0 -13 17 -10 54 -4 129 22 79 26 83 25 79 -24 l-3 -43 -62 1 c-55 1 -61 -1
-50 -14 6 -8 34 -26 61 -38 49 -23 50 -24 83 -116 35 -98 54 -168 46 -168 -2
0 -34 26 -70 58 -70 62 -134 149 -153 209 -23 73 -27 53 -10 -49 27 -157 75
-325 104 -363 47 -61 131 -124 200 -150 99 -37 114 -30 19 9 -101 40 -157 78
-195 130 -32 44 -62 135 -73 216 -3 30 -9 63 -11 73 -8 28 10 20 30 -13 22
-38 78 -93 133 -131 28 -19 45 -41 54 -66 36 -112 91 -185 177 -235 l43 -25
-33 -20 c-90 -52 -184 -71 -247 -50 -22 8 -41 14 -41 12 0 -1 27 -19 59 -39
75 -46 153 -132 193 -214 40 -81 51 -223 22 -287 l-18 -40 -7 77 c-8 88 -19
109 -96 186 -74 72 -109 89 -312 148 -9 3 0 -4 20 -15 82 -45 216 -241 264
-386 48 -141 42 -294 -15 -412 -36 -74 -71 -115 -140 -158 -122 -77 -154 -87
-275 -93 -65 -3 -119 -1 -130 5 -13 8 -5 11 38 16 81 8 140 38 208 106 112
113 148 252 113 435 -4 19 -9 25 -14 16 -6 -9 -12 -5 -23 16 -8 16 -29 42 -46
58 -17 16 -28 34 -24 39 4 6 1 7 -6 3 -7 -5 -20 -1 -29 7 -41 35 -249 133
-261 122 -3 -3 5 -8 18 -12 17 -4 20 -8 9 -15 -9 -6 -6 -7 10 -3 28 8 29 -1 1
-15 -11 -6 -26 -8 -33 -3 -14 9 14 -14 47 -39 12 -9 -55 22 -150 69 -95 48
-169 91 -166 96 3 6 1 7 -6 3 -15 -10 -94 36 -121 71 -12 16 -24 26 -27 25
-10 -7 -104 108 -98 118 5 8 11 7 21 -1 7 -6 11 -16 8 -21 -4 -6 4 -5 16 2 22
12 22 12 -21 56 -24 24 -44 44 -45 44 -1 0 -5 -7 -8 -16 -4 -10 -2 -13 6 -8 7
5 8 3 3 -6 -5 -8 -2 -18 9 -26 10 -7 13 -15 7 -18 -6 -4 -18 6 -28 21 -10 15
-22 32 -28 36 -6 5 -3 7 8 3 19 -6 20 -5 11 18 -3 9 -11 13 -18 9 -6 -4 -6 0
2 9 8 10 9 19 3 22 -5 4 -12 2 -16 -3 -3 -5 -14 -9 -25 -8 -10 1 -16 6 -12 12
3 5 5 23 3 40 -3 33 -8 35 84 -41 77 -64 168 -106 239 -110 36 -2 53 0 41 4
-11 4 -42 18 -70 31 -27 13 -60 24 -72 24 -11 1 -19 5 -17 9 5 7 -23 25 -41
27 -21 2 -65 42 -59 53 4 7 2 8 -5 4 -17 -11 -74 36 -110 88 -40 57 -79 176
-82 249 -3 56 -2 58 31 76 35 18 70 71 70 105 0 11 -8 43 -17 73 l-17 54 41
97 c22 53 52 123 67 155 14 31 24 57 21 57 -3 0 -19 -22 -36 -50 -71 -116
-237 -218 -454 -280 -60 -17 -135 -40 -165 -51 -67 -25 -167 -95 -204 -144
-32 -42 -66 -131 -66 -175 0 -16 -4 -30 -10 -30 -15 0 -23 65 -18 148 6 102
57 209 144 302 66 69 134 114 331 217 l122 64 20 -39 c11 -21 32 -47 46 -56
14 -9 23 -20 21 -25 -3 -4 20 -4 51 0 123 17 178 113 131 229 l-15 35 66 73
c36 39 68 72 72 72 4 0 9 -15 12 -32 3 -18 10 -46 16 -61 11 -27 11 -27 42
-12 33 18 122 108 152 155 16 25 21 28 42 18 20 -9 22 -14 14 -35z m975 28 c3
-5 -27 -52 -67 -106 -39 -54 -72 -102 -72 -109 0 -21 -25 -55 -48 -66 -21 -11
-21 -11 -3 4 11 9 16 16 11 16 -5 0 -19 -10 -32 -22 -13 -12 -25 -19 -28 -16
-8 8 32 151 62 220 l27 65 41 -4 c23 -2 50 2 65 11 31 17 37 18 44 7z m10
-103 c-9 -18 -31 -51 -47 -73 -24 -30 -25 -35 -8 -20 13 11 37 40 54 65 17 25
32 47 34 50 5 6 23 -22 23 -36 0 -22 -122 -144 -179 -179 -32 -19 -61 -35 -65
-35 -7 0 87 139 152 224 47 61 66 63 36 4z m-1444 -71 c35 -68 40 -87 40 -143
0 -57 -3 -68 -26 -89 -21 -19 -38 -25 -75 -25 -84 0 -138 71 -119 155 13 57
115 204 131 188 5 -5 27 -43 49 -86z m3493 -163 c25 -34 66 -77 92 -95 54 -39
65 -61 65 -127 0 -38 -48 -207 -90 -317 l-8 -20 -7 20 c-4 11 -29 67 -56 125
-52 115 -73 180 -89 283 -10 63 -9 71 17 131 16 35 29 64 30 63 0 -1 21 -30
46 -63z m-4561 -201 c-5 -10 -13 -38 -17 -63 -6 -33 -10 -40 -15 -26 -6 18 -7
18 -13 2 -4 -10 -4 -23 0 -28 3 -7 1 -8 -5 -4 -7 4 -12 1 -12 -8 0 -17 20 -18
32 -2 3 5 9 -8 13 -30 4 -21 15 -66 26 -98 19 -59 19 -60 -1 -78 -20 -19 -21
-19 -40 24 -55 126 -45 317 17 330 24 6 26 3 15 -19z m1043 -108 c15 -25 32
-75 38 -111 11 -66 11 -66 -16 -90 -39 -33 -81 -31 -118 5 -41 42 -38 79 13
168 23 40 45 73 49 73 5 0 20 -20 34 -45z m-124 -207 c11 -15 29 -30 40 -33
19 -6 21 -13 16 -64 -3 -41 -18 -84 -56 -161 -28 -58 -48 -94 -44 -80 13 44 9
85 -7 86 -8 1 -19 3 -25 4 -5 1 -20 1 -33 0 -20 -1 -22 2 -17 27 15 69 30 111
37 107 4 -3 8 7 8 23 -1 25 -4 22 -25 -23 -37 -79 -75 -211 -84 -294 -8 -71
-9 -73 -11 -25 -10 179 27 304 139 460 33 46 36 48 40 25 1 -14 12 -37 22 -52z
m2641 -220 c33 -25 52 -55 78 -122 14 -39 23 -27 9 13 -11 32 0 61 24 61 16 0
-9 -150 -27 -162 -23 -16 -32 -7 -28 26 6 53 -24 132 -61 160 -43 32 -70 39
-117 31 -38 -6 -51 -17 -111 -85 -20 -22 -32 -31 -36 -22 -2 6 -11 12 -19 12
-26 0 -14 35 19 56 80 54 110 64 173 61 48 -2 69 -9 96 -29z m-24 -28 c40 -25
66 -81 57 -124 -12 -54 -7 -95 20 -177 32 -96 84 -176 145 -223 59 -44 192
-114 247 -128 24 -6 46 -14 49 -19 2 -4 -12 -17 -33 -28 -21 -11 -32 -20 -24
-21 7 0 29 10 48 22 28 16 49 21 97 19 34 -1 74 3 89 8 42 16 117 91 149 149
26 46 32 51 47 40 14 -11 14 -11 3 4 -11 14 -8 23 22 63 39 50 42 46 25 -36
-6 -30 -12 -65 -15 -79 -8 -46 -36 -110 -45 -105 -5 4 -6 0 -4 -8 7 -16 -54
-98 -92 -125 -40 -28 -157 -62 -214 -62 -80 0 -178 46 -217 101 -13 19 -12 19
15 14 l28 -5 -30 14 c-16 9 -36 15 -43 16 -18 0 40 -83 80 -114 l33 -25 -68
-69 c-38 -39 -111 -95 -170 -132 -101 -63 -514 -280 -572 -300 -25 -9 -38 -6
-90 19 -140 70 -485 312 -572 403 l-43 43 26 50 c24 46 25 58 22 152 -4 94 -8
109 -42 178 -24 48 -58 97 -92 131 -54 53 -54 54 -26 54 17 0 63 21 110 49
l82 49 77 -24 c43 -13 85 -24 93 -23 8 0 1 5 -16 10 -17 5 -38 16 -45 26 -13
15 -10 16 34 10 60 -8 70 -14 64 -37 -4 -15 6 -20 62 -31 36 -7 111 -12 166
-12 130 -1 180 20 262 106 32 34 67 66 77 72 11 5 29 30 42 54 12 24 32 50 45
57 36 20 99 17 137 -6z m992 -38 c44 -43 52 -82 23 -114 -21 -24 -24 -23 -77
12 -48 33 -48 31 -30 118 7 33 38 27 84 -16z m-790 -8 c0 -39 23 -96 46 -115
12 -10 21 -6 45 17 17 16 37 44 46 62 36 76 113 38 113 -56 0 -34 -7 -58 -25
-85 -14 -20 -28 -37 -31 -37 -18 0 -174 81 -201 104 -30 25 -33 33 -33 81 0
49 6 61 33 64 4 1 7 -15 7 -35z m435 -69 c21 -26 24 -38 16 -52 -12 -23 -102
-108 -121 -115 -19 -7 -4 -23 28 -33 22 -6 23 -5 13 14 -10 18 -8 22 25 36 19
8 56 28 80 45 75 51 75 45 -11 -87 -30 -46 -35 -51 -85 -71 -22 -10 -21 -10
10 -5 57 9 94 39 131 103 19 33 39 67 44 74 13 17 85 29 85 14 0 -19 -71 -241
-86 -270 -12 -24 -21 -28 -56 -28 -71 0 -120 21 -171 74 -26 27 -49 47 -52 44
-8 -8 50 -82 79 -101 31 -21 32 -31 6 -92 -19 -45 -22 -47 -53 -41 -58 12
-211 93 -256 137 -24 23 -56 70 -71 103 -28 61 -68 221 -58 232 3 3 23 -11 44
-31 22 -19 83 -58 136 -85 53 -28 110 -61 125 -74 l29 -24 1 34 c1 31 -2 36
-27 40 l-28 6 37 37 c38 38 71 121 71 180 l0 32 45 -31 c24 -17 56 -46 70 -65z
m-1910 -409 c28 -12 66 -38 84 -57 47 -47 94 -150 99 -218 l4 -56 -46 45 c-26
25 -70 79 -98 120 -29 41 -71 101 -95 133 -42 54 -43 57 -21 57 13 0 46 -11
73 -24z m-871 -78 c-3 -5 0 -8 7 -7 8 2 79 -29 159 -68 152 -75 317 -179 349
-219 52 -67 113 -343 92 -421 -28 -103 -177 -159 -289 -109 -49 22 -61 17 -38
-18 21 -33 89 -72 151 -87 109 -26 104 -17 45 -82 -95 -104 -275 -194 -406
-204 -146 -11 -222 43 -259 187 -14 56 -35 58 -53 5 -29 -86 7 -220 77 -290
27 -27 28 -31 13 -52 -8 -13 -17 -54 -20 -92 l-5 -69 -46 13 c-25 7 -86 25
-135 40 -86 27 -89 28 -100 9 -34 -58 -35 -179 -1 -283 5 -17 4 -22 -6 -19
-49 18 -92 -85 -93 -222 0 -85 3 -101 29 -155 25 -52 29 -72 30 -150 0 -78 4
-98 28 -148 16 -31 46 -72 67 -89 l38 -33 -38 -25 c-69 -46 -214 -173 -272
-239 -77 -87 -135 -203 -154 -311 -9 -47 -18 -96 -20 -108 -4 -20 -14 -9 -62
67 -90 142 -118 178 -169 215 -82 60 -274 116 -345 101 -21 -5 -34 -3 -40 6
-8 11 -9 10 -5 -3 3 -9 0 -19 -7 -21 -19 -8 -50 127 -35 156 9 19 8 20 -3 6
-11 -14 -17 -7 -40 53 l-26 70 24 -23 c14 -13 22 -29 19 -37 -2 -7 0 -10 5 -7
6 3 10 0 10 -7 0 -8 5 -6 11 5 7 11 7 23 1 30 -5 7 -14 35 -21 62 -6 28 -17
63 -23 79 -10 25 -13 27 -24 12 -10 -15 -12 -15 -17 -1 -4 8 -1 14 6 12 17 -3
21 41 5 56 -9 9 -12 30 -10 60 4 41 7 47 27 47 13 0 25 -5 27 -11 6 -17 48 12
48 32 0 10 15 20 40 28 22 6 40 16 40 21 0 6 7 10 15 10 8 0 19 9 25 20 6 11
17 20 25 20 8 0 15 9 15 20 0 11 5 20 10 20 6 0 10 7 10 15 0 9 8 27 17 41 9
15 18 45 19 68 3 39 2 40 -9 14 -13 -33 -31 -38 -21 -6 6 19 4 21 -7 12 -10
-8 -18 -6 -31 7 -9 9 -14 20 -11 23 3 3 0 12 -7 20 -6 9 -10 21 -7 28 4 8 6 7
6 -4 1 -10 7 -18 14 -18 6 0 24 -7 40 -14 26 -14 27 -14 17 5 -6 10 -7 19 -2
19 16 0 34 52 22 64 -14 14 -13 29 2 20 8 -5 9 -2 5 10 -4 11 -3 15 4 11 6 -4
8 -13 6 -19 -11 -27 7 -36 46 -24 20 6 37 15 37 20 0 4 6 8 13 8 20 0 147 130
147 150 0 5 9 15 20 22 11 7 20 18 20 25 0 17 31 84 50 108 9 11 22 40 30 65
7 25 20 55 27 68 9 15 13 38 9 62 -3 24 -1 40 6 42 10 4 10 11 -3 42 -2 5 4
10 14 12 9 1 17 -2 17 -8 0 -6 9 1 20 15 11 14 20 29 20 34 0 4 -7 -1 -15 -11
-16 -22 -49 -31 -42 -13 3 7 10 11 16 9 7 -1 10 2 7 6 -9 14 54 123 66 116 6
-4 8 -2 4 4 -7 11 13 62 24 62 4 0 7 6 7 13 0 14 75 191 111 262 14 28 27 44
30 36 2 -7 1 -16 -4 -20 -18 -13 -56 -101 -51 -116 4 -8 3 -15 -2 -15 -11 0
-64 -109 -66 -135 0 -6 -9 -27 -19 -48 -10 -21 -15 -41 -12 -44 3 -4 6 -1 6 5
0 6 11 23 26 37 14 14 23 29 20 34 -3 5 1 14 9 21 8 7 15 20 15 29 0 13 2 13
9 2 12 -18 20 -2 25 49 3 28 17 57 44 94 30 40 39 59 35 76 -4 15 -2 21 4 17
6 -4 28 16 48 44 33 47 36 54 24 75 -7 13 -9 27 -6 31 4 3 7 -1 7 -10 0 -39
22 -21 78 63 56 84 144 194 184 229 21 18 107 69 131 77 9 4 17 13 17 20 0 8
4 14 9 14 5 0 24 12 42 27 19 16 42 26 53 24 29 -4 16 7 -14 13 -55 12 -115
30 -120 36 -3 4 -24 17 -47 30 -24 13 -41 25 -39 27 2 2 26 -9 53 -25 58 -34
220 -79 247 -69 23 9 17 16 -19 23 -15 3 -41 11 -58 20 -18 8 -23 12 -12 8 11
-3 34 -7 50 -9 17 -1 21 0 11 2 -16 4 -17 7 -5 14 11 7 8 9 -9 9 -13 0 -21 4
-17 9 7 12 -32 34 -45 26 -6 -4 -7 1 -3 11 4 11 3 15 -4 11 -16 -10 -40 1 -40
17 0 8 6 12 14 9 7 -3 10 -9 7 -15z m1254 -453 c271 -207 442 -315 501 -315
17 0 31 -4 31 -8 0 -5 -27 -25 -61 -45 -51 -31 -64 -34 -80 -24 -26 16 -24 23
14 37 31 11 31 12 12 26 -31 23 -95 36 -152 32 -97 -8 -293 -147 -352 -249
l-27 -48 -12 32 c-16 44 -74 105 -117 123 -19 8 -35 20 -35 27 0 6 -7 57 -15
112 -14 99 -14 101 11 174 24 69 26 85 21 195 -2 67 -8 132 -12 146 -6 19 7
11 61 -40 38 -36 134 -115 212 -175z m2115 -72 c14 -16 38 -55 54 -88 24 -52
28 -73 28 -155 l0 -95 -50 -17 c-41 -13 -215 -48 -222 -44 -3 2 24 188 32 221
13 52 64 140 93 158 27 18 27 18 2 11 -77 -21 -106 -79 -127 -246 -8 -67 -23
-145 -34 -174 -18 -48 -76 -140 -84 -132 -2 1 1 28 7 58 14 75 6 147 -18 165
-44 33 -81 18 -239 -99 -211 -157 -425 -297 -474 -311 l-23 -7 18 32 c23 39
117 116 238 194 49 32 134 101 190 154 123 118 238 209 371 292 200 126 197
125 238 83z m391 -302 c27 -47 27 -137 -2 -221 -16 -46 -41 -89 -87 -145 -59
-72 -82 -125 -56 -125 38 0 127 66 152 113 6 9 -10 -2 -34 -26 -38 -38 -107
-77 -107 -60 0 9 81 116 98 131 9 6 28 12 44 12 32 0 56 -30 65 -84 9 -55 -49
-168 -123 -240 -59 -57 -69 -60 -119 -41 -19 8 -19 7 -2 -11 26 -28 106 -26
146 4 16 12 32 22 34 22 12 0 -13 -84 -36 -122 -25 -43 -54 -75 -61 -67 -14
19 -99 167 -100 176 -1 7 -9 20 -18 30 -8 10 -43 59 -77 110 -58 88 -116 143
-151 143 -8 0 8 13 36 29 75 43 154 120 214 208 70 103 119 163 132 163 6 0
17 -8 25 -17 13 -16 13 -16 3 4 -5 12 -15 25 -21 29 -17 10 -68 -44 -137 -150
-58 -89 -148 -193 -158 -183 -3 2 5 24 16 48 11 24 20 58 20 74 0 33 -24 75
-43 75 -15 0 -298 -128 -311 -141 -23 -22 -25 -6 -3 24 14 17 34 50 45 72 l20
40 106 17 c116 19 328 85 391 123 52 31 75 28 99 -14z m-1134 -116 c0 -27 -9
-36 -98 -93 -67 -42 -109 -62 -130 -62 -33 0 -56 19 -25 21 10 1 -4 7 -32 14
l-50 12 65 0 c106 1 177 48 221 148 l21 50 14 -30 c7 -16 13 -44 14 -60z
m-756 60 c3 -8 1 -16 -4 -16 -6 -1 -16 -2 -22 -3 -27 -2 -19 -43 14 -77 19
-19 41 -46 50 -60 10 -15 37 -43 62 -64 39 -32 56 -38 138 -50 138 -21 211
-20 233 5 10 11 23 20 28 20 6 0 3 -8 -6 -17 -30 -31 -149 -216 -173 -268 -12
-27 -32 -99 -44 -160 -19 -99 -55 -238 -67 -257 -2 -5 -21 3 -41 17 -46 31
-57 31 -94 0 -17 -14 -33 -23 -37 -19 -3 3 11 21 33 38 30 26 37 37 32 54 -9
27 -121 123 -165 142 -19 7 -30 18 -27 26 3 7 10 32 16 56 8 26 29 61 55 89
49 52 124 200 132 259 5 38 4 40 -40 67 -31 18 -48 36 -52 54 -5 21 -16 30
-58 43 -29 10 -73 20 -99 23 -26 3 -45 10 -42 15 4 5 -7 3 -22 -5 -16 -8 -44
-18 -63 -22 -27 -6 -32 -4 -25 6 4 8 -13 -3 -40 -25 -26 -21 -49 -36 -52 -33
-7 6 60 64 99 83 31 17 32 17 17 -2 -8 -10 5 -2 30 19 69 59 220 98 234 62z
m1172 -17 c23 -43 21 -114 -4 -170 -17 -40 -26 -48 -73 -66 -76 -28 -99 -34
-99 -28 0 3 14 49 31 102 22 69 40 107 67 137 29 33 32 38 12 26 -67 -42 -134
-204 -144 -349 -4 -56 -3 -78 3 -65 5 11 10 39 10 62 1 51 13 60 130 103 85
31 117 37 106 20 -4 -6 -10 -8 -14 -6 -4 3 -8 -1 -8 -9 0 -9 13 -5 41 14 60
41 273 151 292 151 8 0 12 5 8 11 -4 7 1 10 12 7 24 -4 30 -64 13 -125 -13
-47 -58 -93 -90 -93 -26 0 -20 20 28 110 l35 65 -32 -30 c-38 -36 -93 -147
-115 -234 -38 -147 -77 -219 -143 -258 -47 -29 -55 -29 -49 3 3 17 1 24 -8 20
-10 -3 -10 4 -4 32 5 20 8 46 8 57 -1 48 -20 -34 -28 -120 -12 -121 -61 -286
-126 -422 -53 -111 -88 -152 -120 -139 -17 6 -20 39 -5 67 6 10 8 19 6 19 -15
0 -34 -65 -40 -135 -17 -198 -39 -256 -129 -342 -71 -68 -144 -107 -239 -126
-61 -13 -69 -13 -94 3 l-27 18 44 22 c58 30 151 125 182 187 14 28 34 95 45
149 l18 99 63 36 c34 20 83 54 109 75 89 74 83 71 98 49 8 -10 14 -30 15 -44
0 -23 1 -24 8 -6 10 25 -5 71 -26 79 -17 7 -18 7 -104 -56 -37 -26 -69 -48
-71 -48 -2 0 4 39 13 86 10 47 20 115 23 152 l6 67 -14 -70 c-27 -138 -65
-261 -66 -213 0 9 -12 30 -26 47 l-25 31 -37 -19 c-82 -41 -173 -64 -229 -58
-30 3 -57 7 -59 9 -6 7 -6 324 1 358 6 29 17 41 70 74 35 22 81 55 102 73 33
30 30 29 -32 -11 -72 -46 -125 -66 -125 -48 0 14 28 146 41 194 10 40 9 40
369 278 104 69 223 149 265 178 42 28 85 52 96 52 11 0 25 -13 35 -32z m-1533
-54 c3 -3 -3 -23 -14 -42 -10 -20 -19 -41 -19 -47 0 -5 -39 -55 -86 -110 -47
-55 -102 -126 -121 -157 -20 -32 -42 -58 -49 -58 -7 0 -19 -3 -27 -6 -11 -4
-19 5 -27 30 -15 45 -26 52 -51 30 -10 -9 -22 -14 -27 -10 -4 4 -9 43 -10 86
l-4 78 42 46 c47 51 111 86 159 86 27 0 31 -3 27 -18 -4 -10 -20 -74 -36 -143
-17 -68 -33 -133 -35 -144 -11 -45 44 87 74 177 18 53 41 108 52 122 11 15 16
26 10 26 -6 0 -11 -5 -11 -11 0 -6 -7 -3 -16 5 -8 9 -20 16 -26 16 -26 0 8 16
65 32 65 17 120 22 130 12z m-705 -122 c-2 -10 10 -33 25 -52 16 -18 42 -59
58 -91 16 -33 31 -59 34 -59 6 0 -29 89 -56 142 -17 33 -18 42 -7 49 30 20
115 -15 146 -58 24 -35 29 -51 41 -138 8 -56 7 -74 -4 -92 -14 -21 -16 -20
-98 60 -62 61 -94 101 -120 154 -20 39 -41 74 -47 78 -14 8 -3 25 16 25 9 0
14 -7 12 -18z m-655 -378 c192 -44 180 -31 137 -147 l-21 -57 -62 -2 -62 -2
58 -3 c49 -4 59 -8 74 -31 9 -15 28 -39 41 -54 l25 -27 -33 -38 c-18 -21 -76
-81 -129 -133 l-96 -94 -115 -4 c-64 -2 -127 1 -141 6 -38 15 -116 176 -128
263 -5 36 -6 81 -2 100 l7 34 59 0 c33 0 116 -3 185 -7 83 -4 98 -4 44 1 -45
5 -87 12 -94 16 -6 4 -21 26 -31 49 -20 45 -26 164 -9 196 9 17 12 17 67 -5
32 -12 134 -40 226 -61z m951 -60 l38 -36 -58 -54 c-33 -29 -62 -53 -65 -54
-4 0 -16 22 -27 49 -16 40 -25 50 -47 53 -17 2 -38 16 -54 38 l-26 34 35 -21
c32 -20 38 -20 69 -7 41 17 44 17 35 2 -5 -7 5 -3 20 10 16 12 31 22 35 22 3
0 23 -17 45 -36z m-1400 -5 c116 -33 150 -54 121 -75 -12 -9 -13 -13 -3 -17 7
-3 -19 -6 -59 -6 -82 -1 -80 2 -91 -103 -8 -69 -21 -79 -74 -59 -20 8 -28 21
-38 63 -25 103 -16 228 17 228 9 0 66 -14 127 -31z m1395 -180 c-72 -135 -93
-221 -65 -264 21 -31 46 -42 123 -50 84 -10 162 8 209 49 44 38 40 53 -17 62
-28 5 -36 10 -27 15 35 23 127 -5 129 -39 4 -60 -16 -94 -72 -123 -51 -26
-171 -49 -255 -49 -65 0 -143 23 -145 44 -6 70 6 179 27 234 20 55 142 247
151 239 1 -2 -25 -55 -58 -118z m807 7 c31 -30 53 -59 50 -64 -3 -6 -58 -41
-122 -78 -64 -38 -112 -70 -108 -71 5 -2 45 13 89 32 43 19 81 32 83 30 3 -3
-24 -41 -95 -134 -1 -2 -22 9 -45 25 -24 16 -79 48 -123 71 -44 23 -75 43 -68
43 20 0 84 62 79 76 -3 7 0 11 7 9 7 -3 46 22 87 55 41 33 83 60 93 60 9 0 43
-24 73 -54z m-936 -56 c0 -5 -9 -24 -19 -42 -38 -64 -80 -211 -88 -308 l-8
-94 -35 -9 c-19 -5 -73 -7 -120 -5 -95 4 -174 33 -192 73 -18 39 7 99 70 167
37 40 46 55 27 41 -78 -55 -132 -148 -121 -208 6 -31 5 -33 -45 -55 -59 -25
-229 -70 -265 -70 -13 0 -24 3 -24 8 0 20 70 120 97 137 17 11 39 25 49 32 11
7 -1 4 -26 -7 -60 -26 -131 -26 -155 -1 -16 19 -16 21 3 48 24 33 70 76 130
123 32 24 46 30 55 21 6 -6 34 -11 62 -11 43 0 62 7 122 44 49 30 107 54 185
76 144 41 160 44 123 26 -42 -20 -32 -19 65 8 81 22 110 24 110 6z m-1352 -76
c68 -29 91 -61 115 -159 9 -33 18 -69 22 -80 4 -14 -6 -37 -32 -75 l-39 -55
-82 -3 -83 -3 -19 43 c-41 93 -43 221 -5 316 21 51 38 53 123 16z m2411 -3
c28 -15 46 -35 68 -78 17 -32 41 -77 54 -101 l24 -43 -23 -19 c-12 -10 -59
-33 -104 -50 l-81 -31 -38 43 c-21 24 -36 49 -33 57 2 8 -1 11 -10 8 -7 -3
-25 7 -40 22 l-26 27 35 49 c28 40 120 133 133 135 1 0 20 -9 41 -19z m-362
-94 c65 -33 156 -103 222 -171 49 -50 53 -56 38 -70 -14 -15 -19 -13 -48 24
-37 46 -146 138 -236 198 -100 68 -90 76 24 19z m2188 -114 c21 -31 8 -25 -56
29 -26 21 -49 38 -51 38 -3 0 10 -41 27 -92 36 -104 50 -118 158 -163 l67 -28
-20 -31 c-12 -17 -33 -55 -47 -83 -25 -52 -26 -53 -67 -52 -22 1 -68 4 -101 8
-40 4 -85 1 -137 -10 -43 -9 -80 -14 -82 -12 -2 3 13 41 34 86 32 67 45 114
70 252 17 94 33 180 35 193 5 22 10 19 80 -43 40 -36 81 -78 90 -92z m-1275
27 c26 -51 25 -64 -4 -83 -23 -16 -24 -15 -30 15 -3 17 -6 40 -6 52 0 17 2 18
10 6 6 -9 10 -10 10 -3 0 6 -4 14 -9 18 -16 9 -31 -30 -31 -78 0 -69 -35 -229
-65 -296 -30 -67 -106 -146 -171 -179 l-40 -20 -37 31 c-35 30 -37 34 -27 67
19 70 40 242 40 335 l0 95 33 0 c63 0 201 30 246 53 25 13 49 25 53 26 4 0 17
-17 28 -39z m-1613 -43 c14 -30 90 -94 223 -187 186 -131 240 -197 254 -310 3
-25 8 -56 11 -70 5 -20 -4 -13 -41 29 -27 30 -50 63 -51 74 -8 53 -58 119
-137 179 -45 34 -106 87 -136 118 -30 30 -48 46 -40 35 13 -17 11 -16 -17 3
-18 13 -36 28 -39 35 -4 7 3 3 17 -8 l24 -20 -19 23 c-11 12 -25 21 -32 18 -8
-3 -11 1 -8 9 3 8 -4 20 -15 27 -13 8 -21 23 -21 40 0 34 13 36 27 5z m849
-49 c55 -53 74 -78 74 -97 0 -25 -25 -129 -32 -137 -2 -1 -36 23 -75 54 -89
71 -214 205 -205 219 6 9 86 26 151 32 7 0 46 -31 87 -71z m-1774 27 c41 0 48
-3 53 -24 7 -27 -6 -38 -78 -72 -26 -13 -46 -27 -44 -33 7 -21 56 -47 101 -54
46 -7 47 -8 29 -24 -10 -10 -75 -51 -143 -93 l-125 -76 -37 41 c-42 47 -78
133 -78 186 0 43 22 88 64 132 l31 34 90 -8 c50 -5 111 -9 137 -9z m1637 -161
c19 -21 35 -47 36 -56 1 -10 5 -21 10 -25 4 -5 4 2 1 15 -4 12 -4 22 0 22 8 0
74 -40 74 -45 0 -2 -9 -24 -20 -50 -11 -26 -20 -55 -20 -65 0 -32 -52 -160
-64 -160 -7 0 -22 -18 -35 -40 -33 -60 -34 -48 -1 22 45 94 55 154 40 230 -15
77 -41 132 -88 180 -19 21 -36 50 -38 65 -3 28 -3 28 34 -13 20 -22 52 -58 71
-80z m-758 -18 c21 -24 87 -74 146 -111 189 -118 237 -153 300 -217 34 -35 69
-80 77 -100 15 -35 15 -37 -4 -33 -25 5 -25 -2 1 -44 14 -23 19 -44 15 -63 -3
-15 -3 -28 1 -28 9 0 113 81 113 89 1 3 15 22 32 41 31 35 30 27 -3 -21 -10
-14 -15 -30 -11 -34 4 -5 0 -5 -8 0 -9 5 -12 5 -7 -1 13 -14 31 -11 44 6 25
31 12 -3 -19 -48 -53 -78 -384 -443 -372 -411 3 10 2 19 -3 22 -4 3 -9 -8 -10
-25 -1 -17 -18 -50 -40 -77 -20 -25 -38 -47 -39 -49 -1 -2 -14 4 -27 13 l-26
16 4 -31 c2 -17 6 -34 9 -39 3 -4 -5 -8 -17 -8 -69 1 -79 -3 -74 -23 7 -29 0
-25 -22 11 -19 31 -19 32 0 52 10 12 19 26 19 31 0 6 -5 4 -10 -4 -5 -8 -10
-10 -10 -3 0 6 -11 10 -25 8 -21 -2 -32 6 -55 40 -16 23 -75 102 -130 176
-156 206 -187 281 -178 443 4 80 8 95 53 183 39 77 68 116 138 190 49 51 92
93 94 93 3 0 23 -20 44 -44z m-1291 8 c52 -20 71 -32 75 -48 2 -11 9 -47 15
-78 6 -31 20 -68 30 -81 l19 -25 -52 -35 c-41 -26 -58 -32 -70 -25 -31 17 -96
108 -108 150 -12 47 -15 140 -5 157 10 15 16 14 96 -15z m4444 -304 c52 -24
107 -59 135 -85 l48 -45 -16 -45 -16 -45 -147 0 c-81 0 -149 4 -152 8 -10 16
-19 169 -12 205 6 31 11 36 39 40 18 2 32 5 33 5 1 1 40 -16 88 -38z m-3847
-209 c12 -21 38 -59 57 -85 41 -52 42 -56 21 -56 -27 0 -64 -31 -109 -90 l-43
-58 -53 66 c-29 36 -53 72 -54 78 -1 13 140 184 152 184 4 0 17 -17 29 -39z
m-488 -83 c-4 -30 2 -39 24 -38 45 4 47 1 47 -50 0 -49 1 -50 31 -50 45 0 68
-16 65 -45 l-3 -24 27 19 c42 30 110 27 149 -6 17 -14 31 -29 31 -34 0 -17
-32 -19 -60 -5 -41 21 -103 19 -124 -4 -58 -64 -22 -162 61 -161 39 1 111 46
126 80 4 8 5 -31 2 -87 -4 -73 -2 -103 6 -103 7 0 9 11 5 30 -3 17 -2 29 3 26
5 -3 11 -19 13 -36 5 -30 4 -30 -44 -30 -52 0 -58 7 -28 35 13 12 20 31 20 55
0 20 6 42 13 50 6 7 -4 1 -23 -15 -55 -44 -94 -57 -139 -45 -73 19 -104 82
-78 158 l15 42 -34 0 -34 0 0 50 0 50 -45 0 -45 0 0 49 c0 29 -5 51 -12 53 -7
3 -5 12 8 26 21 25 26 27 23 10z m5183 -25 c13 -12 18 -32 19 -77 1 -34 3 -53
6 -43 7 25 61 22 90 -5 13 -12 23 -25 23 -29 0 -14 -28 -17 -66 -7 -22 5 -63
9 -91 8 -29 0 -53 2 -53 7 0 4 7 26 15 48 8 22 14 57 15 78 0 40 13 47 42 20z
m-4515 -143 c39 -23 60 -55 70 -101 6 -31 5 -33 -11 -20 -19 16 -18 18 -44
-36 -39 -77 -120 -117 -174 -85 -15 9 -28 19 -28 22 0 3 -10 16 -21 30 l-20
25 15 -32 c9 -18 16 -41 16 -53 0 -11 14 -45 31 -75 17 -30 27 -55 23 -55 -5
0 -27 7 -51 16 -50 19 -60 41 -69 155 -7 76 -6 79 15 79 11 0 39 -18 61 -40
49 -49 86 -53 130 -12 22 19 33 39 37 68 7 57 -9 84 -52 84 -18 0 -37 -4 -40
-10 -9 -15 -27 -12 -19 3 4 7 3 9 -2 4 -5 -5 -9 -13 -9 -19 0 -19 -33 -34 -46
-21 -8 8 -7 18 7 36 44 58 121 74 181 37z"/>
<path d="M3265 4874 l6 -72 -47 -7 c-89 -13 -92 -16 -96 -89 -2 -55 0 -65 12
-61 8 2 26 7 40 10 l25 6 -3 -79 c-3 -65 0 -86 17 -120 25 -50 14 -54 -42 -17
-45 31 -49 20 -7 -20 20 -19 27 -32 20 -39 -17 -17 -11 -27 11 -16 24 13 141
6 284 -16 50 -8 106 -14 125 -14 32 0 37 4 52 43 10 23 20 72 24 109 l7 68 29
-18 c16 -9 61 -46 99 -81 l70 -63 -26 58 c-46 105 -141 225 -222 278 -21 14
-91 39 -158 57 -129 34 -154 48 -198 112 l-29 42 7 -71z m111 -385 c31 -45 60
-69 84 -69 22 0 94 76 86 89 -4 6 -4 20 -1 31 17 52 115 -9 115 -72 0 -41 -17
-105 -31 -114 -5 -3 -84 7 -175 22 -164 28 -164 28 -184 61 -21 36 -16 67 18
108 l17 20 -25 -20 c-14 -11 -28 -24 -32 -30 -12 -16 -9 1 4 31 7 15 26 33 42
39 29 13 31 12 42 -22 7 -19 25 -52 40 -74z"/>
<path d="M2261 835 l-52 -55 41 -53 c23 -28 45 -52 49 -52 7 0 91 92 91 100 0
3 -68 106 -74 113 -2 1 -26 -23 -55 -53z"/>
</g>
</svg>
