<?xml version="1.0" standalone="no"?>
<!DOCTYPE svg PUBLIC "-//W3C//DTD SVG 20010904//EN"
 "http://www.w3.org/TR/2001/REC-SVG-20010904/DTD/svg10.dtd">
<svg version="1.0" xmlns="http://www.w3.org/2000/svg"
 width="494.000000pt" height="607.000000pt" viewBox="0 0 494.000000 607.000000"
 preserveAspectRatio="xMidYMid meet">
<metadata>
Created by potrace 1.16, written by Peter Selinger 2001-2019
</metadata>
<g transform="translate(0.000000,607.000000) scale(0.100000,-0.100000)"
fill="#5d4a4a" stroke="none">
<path d="M1571 5981 c-10 -6 -8 -24 6 -82 14 -56 18 -110 17 -224 -1 -82 -4
-170 -7 -195 -20 -166 -19 -213 5 -320 2 -11 -7 -15 -39 -16 -26 -1 -72 -15
-120 -38 -43 -21 -85 -39 -93 -41 -8 -2 -23 -6 -32 -10 -10 -4 -18 -3 -18 3 0
5 -11 7 -25 4 -27 -5 -79 23 -70 38 3 4 -4 6 -15 3 -13 -3 -20 0 -20 8 0 9 -3
10 -11 2 -31 -31 77 -204 117 -189 10 4 12 2 8 -6 -5 -8 -2 -9 9 -5 10 3 17 2
17 -3 0 -6 11 -10 25 -10 14 0 25 -5 25 -11 0 -5 4 -8 9 -5 4 3 6 -6 3 -21 -4
-19 -2 -24 7 -18 9 5 9 2 0 -13 -11 -18 -10 -24 5 -41 10 -11 23 -18 27 -15 5
3 9 0 9 -6 0 -6 4 -9 8 -6 9 6 74 -61 92 -94 6 -11 20 -20 30 -20 11 0 20 -4
20 -9 0 -20 -44 -61 -73 -70 -31 -9 -30 -9 16 -10 37 -1 47 2 47 15 0 22 32
74 46 74 20 0 47 -64 42 -102 -2 -20 0 -34 4 -32 15 9 43 -37 49 -79 l5 -42
16 34 c12 26 22 35 47 37 17 2 31 -1 31 -6 0 -6 7 -10 15 -10 9 0 18 -12 21
-30 7 -33 41 -51 55 -29 4 8 11 31 14 51 4 21 11 38 15 38 5 0 16 7 25 17 29
29 76 25 112 -9 34 -33 53 -30 53 8 0 13 5 24 10 24 6 0 8 11 4 25 -4 15 -2
25 4 25 6 0 22 11 36 25 14 14 31 25 38 25 8 0 24 7 36 16 20 14 24 14 44 0
12 -9 36 -16 52 -16 28 0 29 1 23 43 -7 50 23 119 60 136 13 6 23 15 23 21 0
6 18 10 43 9 78 -3 86 7 42 59 -22 26 -24 34 -14 55 l11 25 59 -30 c105 -54
220 -197 279 -347 17 -43 21 -77 22 -175 1 -67 3 -111 5 -99 6 34 31 49 54 35
27 -17 24 -5 -6 21 -23 20 -24 26 -15 57 5 19 10 60 10 90 0 44 -6 66 -33 110
-18 30 -50 89 -71 130 -56 108 -167 268 -215 308 -9 7 -16 22 -16 34 0 14 -11
28 -30 38 -16 8 -32 16 -34 18 -3 1 -6 27 -8 57 -2 50 0 55 19 55 35 0 154
-76 213 -137 30 -31 55 -54 55 -50 0 14 -108 115 -150 142 -25 15 -48 32 -51
37 -3 5 -9 9 -13 8 -18 -4 -75 46 -74 66 1 11 -8 41 -20 68 -13 26 -19 52 -16
58 4 7 3 8 -4 4 -7 -4 -12 -1 -12 8 0 9 -4 16 -10 16 -5 0 -19 17 -30 38 -12
20 -18 28 -15 18 6 -19 5 -19 -15 -1 -22 20 -27 30 -8 19 7 -4 8 -3 4 4 -4 6
-12 9 -20 6 -7 -3 -25 8 -40 23 -26 26 -32 27 -134 29 -123 2 -189 -9 -214
-36 -11 -12 -25 -17 -35 -13 -10 4 -14 2 -10 -4 4 -6 0 -14 -9 -17 -8 -3 -12
-2 -9 4 11 18 -2 11 -44 -24 -22 -18 -37 -37 -33 -40 3 -4 -1 -4 -10 -1 -14 5
-17 20 -16 73 0 72 -12 105 -54 143 -17 16 -34 50 -48 98 -12 40 -30 82 -40
94 -11 11 -17 23 -15 27 3 5 -2 11 -11 14 -8 3 -12 11 -9 16 4 6 3 9 -2 8 -4
-1 -17 3 -29 9 -11 6 -26 8 -33 4z m295 -648 c0 -27 6 -95 14 -153 l13 -105
12 55 c6 30 23 78 39 106 28 53 58 74 101 74 23 0 25 -4 25 -46 0 -25 5 -54
10 -64 9 -17 5 -21 -30 -30 -22 -6 -55 -23 -73 -38 -17 -15 -44 -35 -59 -45
-25 -16 -28 -15 -49 2 -20 16 -21 21 -10 35 7 9 9 16 3 16 -5 0 -15 -7 -22
-15 -7 -8 -16 -15 -21 -15 -15 0 -98 113 -105 143 -7 31 17 67 45 67 11 0 106
54 106 60 0 0 0 -21 1 -47z m-68 -268 c3 -3 1 -5 -4 -5 -5 0 -18 -15 -28 -32
l-19 -33 30 28 30 28 28 -33 c20 -26 25 -28 20 -11 -4 16 0 25 14 32 30 17 34
14 28 -21 -2 -18 1 -52 8 -74 l12 -42 -45 -6 c-25 -3 -47 -4 -50 -2 -2 3 3 15
12 28 25 36 19 43 -9 10 -19 -22 -31 -29 -47 -24 -19 5 -20 4 -7 -10 7 -9 17
-14 21 -12 4 2 9 0 12 -5 11 -17 -12 -22 -28 -5 -11 10 -16 11 -16 3 0 -6 8
-18 18 -25 17 -14 5 -20 -13 -6 -17 11 -37 65 -27 71 7 5 8 31 3 79 0 7 -16
12 -39 12 -21 0 -44 -6 -51 -12 -10 -11 -15 -10 -25 5 -18 23 -26 22 -26 -5 0
-16 -3 -19 -11 -11 -14 14 -2 53 16 53 7 0 16 -8 19 -17 6 -14 10 -12 24 12
21 35 75 55 116 44 16 -5 31 -11 34 -14z m-141 -220 c28 -20 34 -61 14 -96
-13 -24 -14 -31 -2 -38 18 -12 -2 -23 -26 -14 -16 6 -16 5 -4 -10 8 -10 9 -17
3 -17 -6 0 -13 4 -17 9 -3 6 -13 9 -23 8 -29 -2 -82 44 -82 71 0 18 4 23 16
18 11 -4 19 4 29 29 22 52 54 66 92 40z"/>
<path d="M1404 4493 c-16 -21 -27 -42 -26 -48 2 -5 1 -7 -3 -3 -9 8 -55 -32
-55 -48 0 -7 -4 -14 -8 -16 -20 -7 -72 -93 -72 -117 0 -40 11 -71 25 -71 7 0
22 -8 34 -17 l22 -18 -33 -35 c-18 -20 -42 -48 -53 -64 -11 -16 -26 -34 -33
-42 -7 -8 -10 -14 -6 -14 4 0 -5 -12 -19 -26 -15 -14 -29 -35 -32 -45 -4 -11
-11 -17 -16 -14 -5 4 -9 -3 -9 -14 0 -11 -5 -23 -10 -26 -6 -4 -20 -25 -31
-48 l-21 -41 26 -22 c14 -13 26 -27 26 -32 0 -10 62 -11 70 -1 3 4 14 3 25 -2
11 -4 14 -8 6 -8 -11 -1 -10 -5 3 -20 11 -12 16 -30 13 -48 -6 -38 8 -73 30
-73 10 0 31 11 47 23 27 22 32 23 58 10 l28 -14 2 -147 c3 -248 -4 -376 -31
-531 -11 -63 -18 -118 -15 -123 3 -5 0 -7 -7 -6 -8 2 -20 -19 -31 -52 -9 -30
-23 -64 -29 -75 -35 -57 -15 -125 35 -125 21 0 23 -3 17 -32 -5 -23 -12 -32
-24 -30 -11 2 -19 -6 -23 -23 -3 -14 -10 -25 -16 -25 -5 0 -7 -4 -3 -10 3 -5
-2 -17 -12 -27 -15 -16 -57 -97 -58 -113 -1 -11 -39 -105 -45 -110 -3 -3 -12
-21 -20 -40 -8 -19 -21 -40 -30 -47 -8 -7 -11 -13 -6 -13 4 0 -6 -13 -24 -30
-18 -16 -29 -30 -25 -30 4 0 -5 -10 -21 -22 -16 -13 -32 -22 -37 -20 -5 1 -6
-2 -3 -7 3 -5 -1 -14 -9 -21 -8 -7 -15 -9 -15 -4 0 5 -5 1 -11 -9 -6 -9 -15
-15 -20 -11 -5 3 -8 0 -7 -8 2 -7 -3 -12 -10 -10 -8 1 -11 -2 -7 -7 7 -12 -29
-33 -40 -23 -3 4 -5 2 -3 -5 1 -6 -11 -24 -28 -40 -50 -46 -58 -78 -50 -210 4
-64 12 -126 16 -139 6 -15 5 -24 -3 -27 -8 -2 -9 -19 -1 -66 11 -66 9 -77 -13
-60 -10 9 -13 8 -13 -2 -1 -8 -23 -31 -51 -53 -35 -27 -47 -42 -40 -49 12 -12
10 -13 -137 -137 -49 -41 -86 -77 -81 -78 5 -2 7 -8 4 -12 -5 -8 55 -30 83
-30 23 0 12 -15 -82 -110 -82 -82 -102 -109 -145 -197 -28 -57 -51 -108 -51
-115 0 -7 -12 -48 -26 -91 -29 -86 -27 -107 10 -107 21 0 25 -5 28 -32 4 -42
34 -50 60 -17 13 16 21 20 25 12 7 -18 40 -16 47 3 3 9 6 34 6 55 0 22 4 48 9
57 5 9 11 50 15 90 3 40 8 77 11 82 3 4 28 24 55 44 57 41 61 36 30 -51 -23
-65 -26 -116 -7 -131 31 -26 60 1 104 98 19 41 56 107 82 145 27 39 51 80 55
91 4 12 21 28 38 35 30 12 31 11 73 -36 l42 -49 16 25 c17 26 47 160 47 209 0
17 -7 39 -16 48 -15 14 -15 16 3 23 14 5 20 18 21 48 5 71 14 84 76 105 54 19
93 55 68 64 -14 4 38 82 55 82 7 0 13 4 13 9 0 5 10 12 23 15 37 10 155 103
172 136 9 17 26 82 39 146 21 103 27 120 59 152 19 21 42 51 51 69 9 18 22 36
29 40 13 8 97 171 97 188 0 5 -7 0 -16 -11 -14 -18 -15 -18 -4 4 26 53 62 194
76 297 8 61 19 125 25 144 8 24 8 35 0 40 -13 8 16 91 31 91 5 0 6 6 2 13 -5
8 -2 8 9 -2 15 -12 17 -11 17 3 0 24 18 19 26 -6 3 -13 12 -29 18 -37 6 -8 11
-30 12 -50 0 -20 5 -57 11 -84 7 -32 7 -49 0 -54 -5 -3 -7 -1 -4 4 4 6 0 13
-7 16 -11 4 -13 0 -10 -16 20 -106 24 -145 19 -195 -3 -31 -8 -73 -10 -92 -10
-97 -66 -213 -93 -196 -19 12 -103 16 -120 7 -9 -6 -13 -11 -8 -11 5 0 3 -6
-3 -14 -9 -11 -9 -16 0 -22 7 -4 15 -2 17 4 2 7 10 12 17 12 16 0 28 -28 18
-42 -3 -7 -1 -8 6 -4 6 4 10 15 9 24 -2 12 5 17 25 17 34 1 40 -6 21 -23 -8
-7 -14 -10 -14 -6 0 3 -11 -1 -25 -10 -13 -9 -32 -16 -42 -16 -28 0 -47 -16
-40 -34 5 -13 11 -14 34 -5 27 10 27 10 8 -10 -10 -12 -24 -21 -32 -21 -7 0
-13 -6 -13 -14 0 -11 -22 -24 -52 -30 -4 0 -15 -8 -25 -16 -10 -8 -30 -23 -44
-32 -31 -20 -60 -79 -41 -86 7 -2 12 -11 13 -20 0 -14 2 -14 6 -2 8 21 34 50
46 50 6 0 0 -11 -12 -24 -18 -20 -21 -28 -12 -44 6 -11 16 -22 23 -25 14 -4 1
-35 -51 -117 -15 -25 -26 -51 -23 -59 4 -10 1 -13 -10 -9 -19 8 -49 -11 -31
-19 15 -6 -4 -57 -42 -115 -28 -42 -31 -53 -12 -41 6 4 17 8 24 9 15 3 -3 -50
-23 -67 -16 -13 -19 -34 -4 -24 14 9 14 10 -25 -114 -36 -116 -43 -142 -124
-491 -53 -226 -86 -353 -119 -457 l-20 -63 394 0 393 0 7 35 c7 41 24 37 24
-6 l0 -29 219 0 219 0 32 138 c18 75 51 214 74 307 l43 170 -23 28 c-35 42
-39 84 -14 158 50 144 133 376 159 442 20 51 15 67 -22 67 -18 0 -50 9 -72 21
-22 12 -35 16 -28 9 11 -12 11 -20 -4 -58 -3 -9 -7 -21 -7 -27 -3 -22 -29
-121 -36 -134 -4 -8 -12 12 -19 50 -11 52 -10 68 2 98 17 41 46 141 53 179 7
39 12 38 19 -2 4 -20 11 -36 15 -36 4 0 38 37 76 82 85 102 119 141 162 187
l34 36 -6 -115 c-3 -63 -9 -209 -12 -324 l-7 -210 -38 -49 c-35 -47 -37 -53
-38 -131 0 -63 4 -93 22 -134 29 -68 49 -66 59 6 5 29 12 62 18 72 7 13 5 21
-6 31 -25 20 -35 56 -28 99 7 42 22 51 109 66 22 3 47 15 56 26 16 20 17 20
44 2 16 -10 39 -17 52 -16 17 3 29 -7 52 -42 16 -26 35 -61 42 -78 l13 -32 7
26 c4 15 2 62 -4 106 -9 71 -13 81 -39 98 -32 21 -151 251 -228 441 -72 179
-74 174 38 97 53 -37 113 -80 132 -94 19 -15 55 -38 80 -50 25 -12 49 -28 53
-34 10 -12 4 17 -8 48 -7 16 -5 17 12 8 14 -8 23 -8 30 -1 8 8 28 -2 67 -33
30 -23 78 -60 106 -81 33 -24 56 -52 66 -77 9 -22 25 -42 35 -45 16 -5 18 -10
9 -20 -9 -11 -3 -19 29 -39 22 -14 45 -26 50 -26 6 0 17 -10 25 -22 9 -12 16
-17 16 -10 0 6 5 12 10 12 14 0 12 -104 -2 -118 -9 -9 -9 -12 3 -13 7 -1 18
-1 23 0 13 3 0 -67 -18 -93 -13 -21 -19 -22 -72 -15 -32 4 -60 6 -62 4 -7 -7
20 -109 39 -147 32 -63 85 -73 135 -27 16 15 24 17 29 9 5 -8 16 -3 35 15 35
33 63 27 87 -18 9 -18 31 -52 50 -77 19 -24 53 -83 76 -130 59 -122 91 -152
125 -118 18 18 14 55 -12 133 -14 39 -22 72 -19 75 3 3 8 -1 10 -7 3 -7 11
-13 18 -13 8 0 32 -17 55 -38 38 -37 40 -42 40 -99 0 -36 6 -67 15 -79 9 -12
12 -32 8 -55 -3 -20 0 -46 6 -58 13 -23 46 -28 55 -8 5 9 7 9 12 -1 10 -22 36
-43 48 -39 6 2 15 20 20 40 7 26 15 37 28 37 30 0 33 28 8 94 -12 33 -26 77
-30 96 -4 19 -27 76 -50 125 -38 78 -56 102 -137 180 l-93 90 40 18 c22 9 46
17 54 17 47 0 47 100 0 174 -16 25 -34 46 -41 46 -6 0 -21 -16 -33 -36 -18
-28 -28 -34 -49 -32 -15 2 -25 8 -23 16 1 8 -2 11 -8 7 -15 -9 -41 14 -33 29
3 6 3 8 -2 4 -14 -13 -37 13 -24 28 13 16 -15 60 -44 70 -33 11 -40 45 -23
112 9 34 19 68 22 75 5 15 -22 17 -45 3 -10 -7 -11 -3 -6 15 4 13 12 27 18 31
14 9 9 233 -6 266 -7 15 -33 48 -59 73 -26 25 -46 49 -43 52 3 4 2 5 -2 2 -9
-7 -73 56 -73 73 0 7 -4 11 -9 7 -12 -7 -53 50 -43 60 4 5 2 5 -4 2 -14 -8
-38 18 -30 32 3 5 0 11 -8 14 -16 6 -78 122 -69 131 4 3 1 6 -5 6 -7 0 -12 5
-12 11 0 5 -11 34 -23 62 -13 29 -30 73 -37 100 -7 26 -16 50 -21 52 -4 3 -3
-11 3 -31 5 -20 7 -38 4 -41 -3 -3 -12 21 -22 53 -9 33 -25 73 -35 90 -24 40
-24 40 11 48 43 8 53 40 28 89 -11 22 -18 51 -17 65 3 43 -18 85 -39 77 -50
-20 -71 -23 -76 -9 -3 8 -12 14 -20 14 -19 0 -51 70 -81 175 -13 44 -24 71
-24 59 -1 -11 15 -70 34 -130 19 -60 35 -110 35 -112 0 -2 -11 9 -25 23 -14
14 -33 25 -42 25 -13 0 -8 -9 16 -34 26 -26 32 -42 33 -75 0 -23 -2 -44 -4
-47 -3 -2 -20 2 -39 10 -19 7 -39 11 -46 9 -6 -2 -19 7 -29 22 -14 22 -23 25
-56 22 -31 -3 -42 -9 -54 -31 -7 -16 -14 -38 -13 -50 0 -14 6 -7 15 20 l15 41
35 -18 c20 -10 43 -15 52 -12 12 4 10 -2 -8 -23 -14 -16 -26 -31 -27 -33 -2
-2 -11 6 -22 17 -24 28 -26 28 -27 -6 -1 -15 1 -21 3 -14 3 6 9 12 14 12 6 0
7 -4 4 -10 -3 -5 2 -10 12 -11 13 0 12 -3 -7 -10 -19 -8 -27 -6 -37 7 -12 17
-13 17 -13 -2 -1 -15 -4 -13 -16 10 -12 21 -15 57 -15 141 1 127 -3 144 -53
199 -20 22 -36 43 -36 48 0 4 -6 8 -13 8 -8 0 -21 8 -30 18 -10 10 -40 29 -67
42 -39 18 -50 29 -50 47 0 27 -53 88 -111 129 l-41 28 30 8 c39 10 62 42 62
86 0 45 16 72 43 72 49 0 60 -20 68 -126 4 -54 8 -102 9 -105 0 -3 12 -11 26
-18 22 -10 25 -9 20 6 -10 32 -44 167 -49 200 -6 29 -3 33 36 51 23 10 74 30
112 42 39 13 65 25 59 27 -13 4 -110 -26 -183 -58 -35 -16 -56 -20 -58 -13 -2
6 -15 9 -29 6 -14 -2 -24 0 -22 5 6 17 -26 83 -39 83 -8 0 -12 4 -9 9 4 5 -3
7 -14 4 -13 -3 -20 0 -20 8 0 9 -3 10 -8 3 -4 -6 -28 -20 -54 -33 -26 -12 -62
-39 -81 -60 -19 -21 -41 -41 -51 -44 -25 -10 -31 -36 -12 -50 16 -12 16 -14
-1 -29 -17 -15 -20 -15 -45 7 -34 29 -34 32 -5 56 l22 18 -21 1 c-12 0 -29 11
-37 24 -24 36 -104 79 -148 79 -30 0 -45 -7 -66 -30 -24 -26 -42 -90 -21 -77
11 7 27 -28 34 -76 11 -66 63 -99 116 -72 15 7 33 10 39 6 6 -3 15 -1 19 6 11
19 70 21 70 3 0 -8 -5 -11 -12 -8 -7 4 -6 0 3 -7 9 -7 28 -37 43 -66 38 -76
76 -106 206 -168 184 -87 217 -106 260 -147 34 -34 40 -45 40 -82 0 -23 -8
-66 -19 -96 -22 -64 -83 -189 -92 -189 -3 0 -11 18 -18 39 -21 73 -201 308
-225 294 -5 -3 -6 -1 -2 6 4 6 3 17 -2 24 -26 33 -93 181 -89 197 4 15 1 17
-22 10 -14 -4 -41 -5 -60 -2 -22 3 -32 1 -28 -5 18 -29 -74 -220 -149 -311
-64 -79 -105 -154 -138 -256 -6 -17 -11 -14 -37 25 -71 105 -101 179 -106 264
-4 60 -1 90 11 120 l16 40 -21 -28 c-18 -24 -24 -26 -38 -15 -14 12 -14 11 -3
-4 12 -15 11 -20 -6 -39 -27 -28 -35 -81 -23 -144 9 -49 5 -65 -28 -115 -8
-12 -10 -11 -8 7 0 12 5 19 9 17 4 -3 8 5 8 17 0 20 -2 21 -17 7 -34 -29 -43
-30 -52 -5 -7 19 -20 26 -52 31 -39 6 -46 4 -61 -18 -12 -16 -25 -22 -38 -19
-10 3 -29 -2 -42 -11 -30 -21 -38 -20 -39 7 0 18 -3 16 -12 -10 -7 -18 -20
-40 -30 -50 -17 -17 -18 -17 -8 10 17 45 31 68 77 130 44 57 48 72 11 40 -19
-17 -19 -17 -12 7 17 55 47 130 52 130 3 0 3 -20 0 -45 -4 -27 -3 -45 3 -45 6
0 10 37 10 88 0 56 7 111 19 155 11 38 17 76 15 85 -5 15 -4 15 5 2 9 -13 11
-12 11 3 0 10 -13 29 -29 43 -33 27 -56 84 -48 116 4 14 -4 31 -29 57 -18 20
-34 42 -34 49 0 29 182 1 205 -31 8 -12 15 -16 15 -10 0 6 -7 16 -15 23 -8 7
-19 27 -23 44 -5 17 -14 31 -22 31 -7 0 -19 20 -27 45 -16 52 -36 271 -25 281
4 4 24 9 45 12 30 4 40 1 48 -15 6 -11 13 -17 16 -14 4 3 12 1 19 -5 8 -6 21
-9 29 -5 8 3 15 1 15 -5 0 -6 7 -9 15 -5 8 3 15 1 15 -4 0 -6 5 -10 10 -10 6
0 -18 30 -54 66 -66 69 -74 84 -116 226 -20 67 -21 79 -9 95 12 16 12 17 -2 6
-33 -26 -57 50 -24 77 8 7 15 18 15 25 0 7 10 25 22 41 l22 29 -23 -20 c-36
-31 -73 -113 -86 -190 l-12 -70 -16 37 c-37 83 -8 234 59 307 13 13 20 29 17
34 -3 4 5 19 17 32 22 24 22 24 1 18 -12 -3 -27 -1 -34 5 -6 5 -40 9 -74 8
-33 0 -59 2 -56 7 13 22 -9 2 -33 -30z m1126 -1652 c0 -5 -10 -13 -21 -16 -17
-6 -18 -9 -8 -16 11 -6 10 -9 -4 -15 -9 -3 -17 -13 -17 -20 0 -8 -7 -17 -16
-21 -11 -4 -14 -14 -10 -33 7 -36 -23 -65 -59 -58 -26 5 -34 -9 -14 -29 7 -7
-3 -10 -35 -10 -40 0 -44 2 -36 18 14 24 12 29 -5 23 -22 -9 -62 4 -69 22 -3
8 -2 24 4 34 7 13 5 21 -9 31 -11 8 -22 25 -26 39 -7 23 -7 23 9 7 10 -9 22
-17 27 -17 5 0 9 -7 9 -15 0 -8 9 -15 19 -15 25 0 51 -10 51 -19 0 -4 -13 -6
-30 -3 -36 5 -51 -21 -27 -45 14 -15 18 -15 39 -1 27 18 34 60 13 78 -20 16
-18 30 4 58 24 28 27 28 55 -5 l24 -28 -25 -29 c-13 -16 -20 -32 -15 -35 4 -3
11 -14 15 -24 9 -25 36 -32 53 -15 23 23 7 51 -27 46 -16 -3 -29 -1 -29 3 0 9
26 19 51 19 10 0 19 6 19 14 0 8 9 18 20 21 11 3 20 12 20 20 0 15 27 45 41
45 5 0 9 -4 9 -9z m374 -226 c3 -31 11 -63 16 -73 13 -23 34 -75 34 -87 1 -5
9 -19 18 -29 10 -10 15 -23 12 -28 -3 -4 0 -8 5 -8 6 0 11 -5 11 -11 0 -6 8
-23 19 -37 10 -15 24 -50 30 -79 7 -29 19 -57 27 -64 18 -15 48 -115 38 -130
-4 -7 -3 -9 3 -6 6 4 16 -33 26 -96 37 -232 52 -401 35 -391 -6 4 -8 1 -6 -7
3 -8 11 -13 17 -11 7 1 10 -2 6 -8 -9 -15 -26 -12 -67 9 -19 11 -38 18 -41 15
-7 -7 -54 56 -67 91 l-11 30 25 -24 c19 -18 24 -20 22 -6 -1 9 -22 35 -47 57
-24 22 -38 37 -30 33 8 -5 7 2 -5 20 l-17 27 48 -31 c50 -32 71 -39 60 -21 -3
6 -2 10 3 10 12 0 32 46 32 76 0 14 -11 36 -25 49 -21 22 -33 25 -98 25 -87 0
-98 8 -118 90 -22 90 -18 442 6 480 3 6 2 10 -3 10 -14 0 -24 -26 -38 -95 -9
-49 -12 -53 -13 -25 0 19 4 51 9 70 6 19 13 60 16 90 6 59 11 93 13 99 0 2 9
-3 18 -10 15 -12 16 -12 10 4 -7 19 1 47 13 47 4 0 10 -25 14 -55z m-548 -80
c10 -2 25 -4 32 -4 7 -1 12 -17 12 -44 0 -23 7 -53 16 -65 18 -26 7 -30 -12
-5 -7 10 -14 16 -16 13 -2 -3 -14 -20 -26 -38 l-24 -33 31 16 c36 18 40 11 10
-21 -23 -25 -40 -114 -21 -114 6 0 16 8 21 18 10 16 10 16 11 0 0 -10 -4 -18
-9 -18 -5 0 -17 -7 -26 -16 -22 -23 -28 -12 -26 44 1 36 -4 56 -19 75 -24 30
-26 41 -5 33 19 -7 19 8 0 24 -8 7 -12 17 -9 22 3 5 -3 4 -14 -3 -15 -9 -18
-17 -11 -25 13 -15 -3 -26 -25 -18 -20 8 -21 23 -1 31 24 9 45 57 45 103 0 37
2 40 23 35 13 -4 32 -8 43 -10z m-295 -1278 c0 -20 -42 -129 -48 -123 -2 2 -6
66 -10 142 -5 133 -5 141 18 184 l24 45 8 -115 c4 -63 8 -123 8 -133z"/>
<path d="M1985 4338 c5 -12 -2 -21 -24 -32 -41 -22 -51 -20 -51 8 0 26 -11 28
-47 8 -26 -14 -29 -29 -10 -51 8 -9 22 -45 31 -81 35 -129 75 -161 198 -159
l73 2 -70 7 c-38 4 -77 10 -85 14 -20 8 -60 68 -60 89 0 9 -5 37 -12 62 -14
53 -4 69 24 35 19 -25 20 -25 15 -2 -4 15 1 25 13 32 27 14 30 13 30 -16 0
-23 2 -25 16 -13 14 12 19 10 38 -14 27 -34 33 -34 64 1 l26 27 7 -25 7 -25 1
28 c1 30 26 37 51 15 8 -7 4 0 -10 16 -34 40 -95 66 -155 66 -28 0 -57 6 -64
13 -10 10 -11 9 -6 -5z"/>
<path d="M2695 4340 c-3 -5 -26 -10 -49 -10 -56 0 -119 -22 -153 -55 -29 -26
-26 -32 7 -15 15 8 17 6 13 -9 -4 -15 0 -18 19 -14 19 4 27 -1 36 -21 15 -33
27 -33 48 -1 16 25 44 34 44 14 0 -5 5 -7 10 -4 6 3 10 17 10 31 0 22 2 23 21
14 16 -9 19 -17 14 -38 l-7 -27 31 29 31 30 0 -25 c0 -27 -24 -113 -41 -144
-17 -35 -51 -49 -124 -56 l-70 -6 73 -1 c122 -3 169 32 193 148 7 30 16 63 21
72 7 14 3 19 -19 25 -16 4 -30 8 -33 9 -49 13 -71 29 -67 45 6 21 2 25 -8 9z"/>
<path d="M2949 4284 c-6 -54 -37 -127 -69 -164 -11 -13 -20 -30 -20 -39 0 -34
-22 -92 -45 -120 -17 -20 -39 -31 -71 -37 -42 -8 -47 -12 -60 -49 -18 -52 -19
-48 16 -68 20 -12 38 -16 53 -11 12 5 24 8 27 9 32 6 160 114 160 135 0 9 -11
31 -25 50 -33 44 -32 64 4 82 42 20 102 95 97 121 -3 12 -5 25 -5 28 -1 4 -12
17 -25 30 -13 14 -26 38 -28 54 -3 23 -5 18 -9 -21z"/>
<path d="M2160 3751 c0 -10 -10 -25 -22 -33 -20 -14 -20 -15 -4 -41 10 -14 17
-36 16 -49 -4 -44 -1 -48 36 -48 29 0 35 -3 30 -16 -3 -8 -2 -12 4 -9 19 12
79 -24 96 -57 15 -28 19 -30 22 -13 2 11 11 28 19 37 20 22 93 58 120 58 22 0
57 33 47 43 -4 4 -3 12 3 19 5 7 10 27 12 45 3 35 -14 39 -42 11 -9 -9 -37
-26 -62 -38 -25 -12 -59 -38 -75 -58 l-30 -37 -31 38 c-17 20 -52 49 -77 64
-57 33 -62 40 -55 75 3 15 3 28 -1 28 -3 0 -6 -8 -6 -19z"/>
<path d="M3102 821 c0 -36 -30 -101 -90 -196 -89 -139 -83 -134 -157 -131 -35
2 -70 8 -77 14 -11 8 -17 6 -26 -9 -7 -10 -19 -19 -27 -19 -13 0 -13 4 2 26
16 25 16 26 -2 23 -10 -2 -22 -11 -28 -20 -8 -13 -3 -24 26 -52 19 -20 38 -45
42 -57 9 -29 28 -20 39 18 7 27 13 31 30 26 12 -3 24 -9 28 -13 4 -3 -45 -82
-108 -176 -104 -153 -154 -234 -154 -250 0 -3 15 -5 33 -5 29 0 37 8 86 83
134 205 226 327 247 327 50 0 234 -80 234 -102 0 -7 6 -3 14 8 13 17 11 22
-22 52 -43 40 -68 53 -142 77 -30 10 -58 20 -62 24 -4 3 14 40 39 81 67 110
113 224 106 264 -6 39 -32 45 -31 7z"/>
</g>
</svg>
