<?xml version="1.0" standalone="no"?>
<!DOCTYPE svg PUBLIC "-//W3C//DTD SVG 20010904//EN"
 "http://www.w3.org/TR/2001/REC-SVG-20010904/DTD/svg10.dtd">
<svg version="1.0" xmlns="http://www.w3.org/2000/svg"
 width="737.000000pt" height="919.000000pt" viewBox="0 0 737.000000 919.000000"
 preserveAspectRatio="xMidYMid meet">
<metadata>
Created by potrace 1.16, written by Peter Selinger 2001-2019
</metadata>
<g transform="translate(0.000000,919.000000) scale(0.100000,-0.100000)"
fill="#5d4a4a" stroke="none">
<path d="M2468 8888 c1 -167 7 -312 12 -323 4 -11 11 -79 13 -150 5 -129 20
-200 63 -292 7 -17 14 -34 14 -37 0 -3 14 -28 30 -56 17 -28 28 -55 25 -59 -7
-12 -87 -31 -129 -31 -19 0 -38 -4 -41 -10 -3 -5 -21 -10 -40 -10 -19 0 -37
-4 -40 -10 -3 -5 -26 -10 -50 -10 -24 0 -47 -4 -50 -10 -3 -5 -17 -10 -30 -10
-13 0 -27 -4 -30 -10 -4 -6 -78 -10 -189 -10 -198 0 -215 -4 -201 -52 7 -23
29 -46 122 -128 99 -88 148 -120 183 -120 10 0 22 -4 25 -10 3 -5 24 -10 46
-10 21 0 39 -4 39 -10 0 -5 10 -10 23 -10 35 -1 57 -24 63 -66 7 -47 38 -118
69 -159 13 -17 33 -71 45 -119 26 -100 25 -104 -48 -193 -28 -35 -41 -43 -68
-43 -19 0 -34 -4 -34 -10 0 -5 -6 -10 -14 -10 -8 0 -19 -13 -24 -30 -11 -30
-114 -140 -132 -140 -5 0 -10 -4 -10 -10 0 -5 -7 -10 -15 -10 -8 0 -15 -4 -15
-10 0 -5 -6 -10 -13 -10 -8 0 -40 -13 -73 -29 -95 -46 -224 -185 -224 -242 0
-31 26 -86 77 -164 18 -27 33 -56 33 -63 0 -19 -53 -92 -67 -92 -6 0 -13 -4
-15 -8 -1 -5 -39 -32 -83 -62 -44 -29 -90 -65 -103 -79 -109 -127 -104 -120
-130 -162 -19 -31 -22 -51 -22 -138 l0 -101 28 -1 c15 -1 34 -1 44 0 9 1 19
-3 23 -9 3 -5 18 -10 33 -10 46 0 55 -29 47 -141 -6 -82 -5 -101 8 -114 17
-17 87 -21 87 -5 0 17 42 11 56 -7 16 -21 20 -218 5 -228 -5 -3 -13 -36 -16
-73 -4 -37 -11 -74 -15 -82 -5 -8 -13 -60 -20 -115 -6 -55 -16 -104 -21 -110
-5 -5 -9 -19 -9 -30 0 -12 -8 -46 -19 -76 -10 -31 -22 -83 -26 -117 -4 -34
-18 -85 -31 -113 -13 -27 -29 -72 -35 -99 -6 -27 -15 -52 -20 -56 -5 -3 -9
-15 -9 -28 0 -25 -28 -111 -56 -173 -9 -21 -25 -58 -36 -83 -11 -25 -35 -77
-54 -116 -18 -39 -36 -86 -40 -105 -3 -19 -10 -44 -16 -56 -6 -13 -8 -45 -4
-80 9 -75 9 -79 -2 -136 -12 -62 -35 -83 -117 -103 -76 -19 -113 -50 -133
-110 -14 -41 -39 -98 -54 -124 -19 -34 -21 -43 -11 -59 8 -12 22 -15 54 -13
24 2 48 8 53 13 6 5 18 9 28 9 10 0 18 4 18 10 0 5 28 10 62 12 l63 3 27 130
c29 143 46 191 77 217 27 23 36 23 66 -4 23 -20 25 -28 23 -89 -2 -92 12 -113
91 -128 75 -15 89 -33 71 -97 -13 -46 -95 -134 -124 -134 -9 0 -16 -4 -16 -10
0 -6 -33 -10 -80 -10 -47 0 -80 4 -80 10 0 6 -24 10 -54 10 -49 0 -54 -2 -64
-27 -6 -16 -12 -48 -15 -73 -2 -25 -17 -67 -34 -95 -16 -27 -32 -65 -36 -82
-6 -29 -3 -35 23 -48 18 -9 31 -11 35 -5 8 13 185 13 185 0 0 -16 89 -12 106
4 8 8 14 24 14 35 0 33 40 132 76 187 19 28 34 55 34 59 0 14 55 55 70 53 28
-6 21 -52 -20 -133 -22 -44 -40 -84 -40 -90 0 -5 12 -21 25 -34 15 -14 25 -34
25 -52 0 -32 -19 -79 -31 -79 -8 0 -36 -20 -64 -48 -8 -6 -18 -12 -24 -12 -6
0 -11 -4 -11 -10 0 -5 -11 -10 -24 -10 -14 0 -28 -4 -31 -10 -3 -5 -31 -10
-60 -10 -57 0 -114 24 -146 61 -17 20 -49 26 -49 9 0 -5 -6 -10 -14 -10 -17 0
-46 -59 -46 -97 0 -20 -15 -44 -56 -86 -65 -69 -80 -101 -63 -134 11 -20 20
-23 69 -23 31 0 61 5 67 11 11 11 33 5 33 -9 0 -4 -10 -19 -23 -34 -12 -14
-29 -36 -37 -48 -8 -12 -25 -36 -37 -53 -13 -17 -23 -39 -23 -49 0 -10 -4 -18
-9 -18 -10 0 -61 -111 -61 -133 0 -8 -5 -17 -11 -19 -23 -8 -52 -193 -45 -283
9 -110 53 -205 94 -205 19 0 43 32 33 45 -18 24 -35 116 -36 195 0 81 13 138
40 166 5 6 17 22 25 35 8 12 34 43 57 68 24 25 43 49 43 54 0 4 4 7 10 7 5 0
27 18 49 40 22 22 43 40 48 40 5 0 15 9 23 20 8 11 18 20 21 20 13 0 89 53 89
62 0 4 4 8 10 8 12 0 43 24 99 78 24 23 48 42 52 42 5 0 9 3 9 8 1 4 22 22 48
41 26 18 58 48 72 65 14 18 53 64 87 102 85 95 125 150 153 209 13 28 30 57
37 65 21 26 123 229 123 245 0 8 4 23 10 33 11 19 38 123 51 197 6 28 14 59
18 70 17 38 42 150 56 250 8 55 19 127 24 160 31 192 36 256 36 510 0 175 -4
289 -12 325 -16 73 -30 202 -49 450 -17 223 -13 706 5 790 6 25 17 79 25 120
19 97 47 204 56 210 4 3 13 22 19 43 7 20 16 37 21 37 4 0 24 -18 44 -40 20
-22 40 -40 46 -40 5 0 10 -5 10 -11 0 -5 10 -3 23 6 13 9 26 33 33 63 6 31 15
46 24 44 7 -2 16 2 20 8 4 7 13 2 24 -15 21 -31 87 -95 99 -95 23 0 151 -151
185 -219 34 -67 73 -113 173 -202 78 -69 90 -79 99 -79 5 0 10 -4 10 -10 0 -5
7 -10 15 -10 8 0 15 -4 15 -9 0 -4 29 -23 65 -41 35 -18 67 -41 70 -50 18 -56
-52 -202 -141 -296 l-63 -67 -63 7 c-155 18 -212 17 -253 -3 -97 -45 -132 -51
-180 -29 -19 9 -28 9 -37 0 -7 -7 -19 -12 -28 -12 -24 0 -49 -31 -56 -68 -4
-18 -11 -35 -15 -38 -5 -3 -9 -18 -9 -34 0 -16 -7 -48 -16 -70 -13 -31 -14
-47 -6 -63 18 -37 21 -114 6 -143 -16 -30 -19 -154 -4 -154 6 0 10 -9 10 -19
0 -11 7 -26 15 -35 27 -26 34 -61 23 -102 -19 -66 -14 -115 15 -172 15 -29 32
-59 39 -66 7 -7 22 -25 33 -41 22 -30 65 -75 113 -117 22 -19 30 -34 27 -50
-1 -13 -6 -43 -10 -68 -3 -25 -12 -54 -20 -66 -7 -12 -17 -38 -21 -59 -4 -21
-13 -50 -20 -64 -8 -14 -14 -38 -14 -53 0 -24 4 -28 28 -28 15 0 33 5 40 12
25 25 97 -33 130 -104 9 -21 21 -38 25 -38 17 0 73 -68 100 -118 30 -60 35
-118 12 -161 -17 -33 -42 -101 -56 -151 -6 -19 -14 -44 -18 -55 -25 -61 -51
-134 -57 -160 -4 -16 -10 -34 -14 -40 -4 -5 -19 -50 -35 -100 -15 -49 -32 -99
-36 -110 -15 -36 -40 -109 -48 -140 -4 -17 -12 -39 -18 -50 -6 -11 -18 -45
-28 -75 -9 -30 -26 -73 -36 -94 -10 -22 -22 -55 -25 -74 -4 -19 -13 -47 -20
-61 -8 -14 -14 -36 -14 -49 0 -12 -7 -39 -15 -59 -8 -19 -15 -47 -15 -62 0
-15 -4 -31 -9 -37 -11 -11 -60 -146 -68 -186 -3 -16 -9 -28 -14 -28 -5 0 -12
-18 -15 -40 -4 -22 -13 -45 -20 -51 -8 -6 -14 -18 -14 -26 0 -7 -13 -42 -29
-76 -15 -34 -34 -80 -41 -102 -7 -22 -16 -42 -20 -45 -4 -3 -19 -32 -34 -65
-15 -33 -31 -68 -37 -77 -5 -10 -9 -23 -9 -30 0 -20 -51 -112 -67 -121 -20
-12 -73 -126 -73 -158 0 -43 -16 -76 -61 -124 -22 -23 -50 -56 -62 -72 -12
-16 -28 -36 -35 -44 -34 -38 -52 -63 -52 -70 0 -4 -7 -15 -17 -24 -22 -22 -31
-158 -13 -181 22 -25 99 -16 129 15 34 35 76 133 91 211 25 131 55 204 98 241
31 27 62 72 62 91 0 7 6 25 14 40 8 15 17 42 21 60 6 34 45 129 56 138 8 6
129 259 129 269 0 5 11 29 25 55 14 26 25 52 25 57 0 11 41 120 66 176 8 17
14 38 14 46 0 9 4 18 9 21 4 3 23 47 42 98 18 51 39 104 46 118 7 14 13 33 13
42 0 9 4 19 9 22 5 3 12 18 15 33 7 28 37 111 62 170 8 17 14 37 14 45 0 8 4
18 9 24 5 5 14 27 20 49 7 22 16 49 21 60 5 11 13 34 19 50 5 17 21 62 35 100
14 39 26 76 26 83 0 8 6 28 14 45 7 18 21 55 29 82 19 60 37 113 48 140 15 36
41 110 46 132 5 21 33 22 33 1 0 -15 43 -102 52 -106 4 -2 10 -19 14 -37 3
-19 12 -39 20 -46 8 -6 14 -19 14 -28 0 -9 6 -25 13 -36 8 -11 20 -42 27 -70
7 -27 16 -54 21 -60 4 -5 10 -31 14 -58 4 -26 11 -50 16 -53 5 -3 9 -16 9 -29
0 -13 9 -44 20 -70 11 -26 23 -64 26 -86 4 -22 11 -42 15 -45 20 -12 8 -53
-22 -78 -26 -22 -40 -26 -94 -26 -46 0 -74 -6 -105 -22 -42 -23 -103 -78 -130
-118 -8 -12 -21 -29 -28 -36 -8 -8 -16 -33 -19 -54 -7 -54 15 -80 68 -80 35 0
55 10 94 48 8 6 18 12 24 12 6 0 11 5 11 10 0 6 7 10 15 10 8 0 15 5 15 10 0
6 6 10 13 10 28 0 9 -41 -49 -109 -79 -92 -94 -113 -94 -127 0 -6 -7 -17 -15
-24 -8 -7 -15 -20 -15 -29 0 -23 -87 -141 -104 -141 -20 0 -44 -31 -61 -80 -9
-24 -19 -47 -24 -50 -5 -3 -21 -30 -36 -60 -15 -30 -31 -57 -35 -60 -3 -3 -20
-32 -36 -65 -16 -33 -32 -62 -36 -63 -5 -2 -8 -10 -8 -18 0 -7 -9 -30 -19 -51
-34 -66 -61 -131 -61 -145 0 -14 -69 -78 -84 -78 -5 0 -15 -8 -23 -18 -20 -25
-63 -118 -63 -136 0 -9 -4 -16 -8 -16 -11 0 -11 0 -21 -175 -6 -107 -13 -159
-25 -180 -9 -16 -16 -40 -16 -53 0 -12 -7 -39 -15 -59 -8 -19 -15 -43 -15 -52
0 -9 -6 -28 -14 -42 -7 -14 -16 -43 -20 -65 -4 -21 -9 -47 -12 -56 -5 -17 73
-18 1531 -18 l1537 0 -6 32 c-4 18 -11 56 -17 83 -5 28 -13 98 -18 156 -4 58
-11 110 -14 116 -3 5 -11 133 -16 284 -6 151 -13 334 -16 407 l-5 132 29 0
c23 0 30 -6 35 -26 4 -15 9 -24 11 -22 3 2 0 20 -5 40 -10 35 -11 36 -39 25
-24 -9 -37 -7 -71 8 -64 29 -72 48 -55 120 21 88 37 302 33 448 -2 70 0 127 4
127 3 0 8 8 10 18 9 45 309 -313 324 -387 3 -14 32 -80 65 -146 67 -134 79
-189 60 -289 -9 -51 -9 -64 7 -95 13 -28 25 -38 55 -44 43 -10 44 -15 16 -51
-18 -23 -19 -30 -8 -64 17 -52 97 -257 125 -319 42 -93 96 -267 104 -333 6
-58 -1 -152 -16 -202 -4 -13 0 -18 16 -18 22 0 22 1 18 158 -4 159 -14 208
-64 319 -8 17 -14 36 -14 43 0 7 -7 24 -15 38 -22 41 -53 114 -60 145 -4 15
-11 30 -16 33 -5 3 -9 13 -9 22 0 9 -7 30 -15 46 -18 33 -20 118 -4 148 13 24
-8 100 -46 173 -13 24 -21 46 -18 49 4 3 2 6 -4 6 -6 0 -13 22 -17 49 -4 28
-13 62 -21 78 -8 15 -15 33 -15 40 0 15 -41 97 -51 101 -4 2 -13 23 -20 48 -7
24 -17 44 -21 44 -4 0 -8 7 -8 16 0 22 -38 104 -66 141 -13 17 -24 34 -24 37
0 12 59 6 63 -6 3 -10 8 -10 17 -2 13 13 4 104 -11 104 -5 0 -9 9 -9 20 0 11
-5 20 -10 20 -6 0 -23 12 -38 26 -44 42 -122 61 -122 30 0 -7 -6 -18 -13 -24
-10 -8 -21 -3 -45 23 -17 19 -36 35 -41 35 -5 0 -13 9 -16 20 -3 11 -10 20
-15 20 -5 0 -21 25 -35 55 -23 46 -26 63 -21 108 3 30 10 66 16 81 5 15 8 31
5 36 -3 5 -1 11 4 14 11 7 67 -47 76 -73 3 -12 10 -21 15 -21 5 0 12 -10 16
-22 10 -33 46 -78 61 -78 7 0 13 -4 13 -10 0 -6 40 -10 100 -10 60 0 100 4
100 10 0 6 11 10 25 10 14 0 25 4 25 9 0 5 13 14 30 21 24 10 30 20 36 56 3
24 3 55 0 69 -5 20 -3 25 14 25 11 0 20 4 20 9 0 5 9 13 20 16 11 4 34 18 50
32 17 13 30 21 30 17 0 -5 8 7 18 26 23 43 20 138 -4 157 -19 14 -16 79 4 75
6 -1 12 5 12 13 0 8 4 23 9 33 16 32 29 102 18 102 -5 0 -7 14 -3 33 4 23 3
28 -4 17 -8 -12 -10 -11 -10 6 0 12 -10 32 -22 46 -13 13 -32 36 -43 51 -11
15 -25 27 -32 27 -7 0 -13 5 -13 10 0 6 -7 10 -15 10 -8 0 -23 4 -33 9 -9 5
-26 12 -36 16 -18 5 -17 7 8 20 16 8 48 15 72 15 24 0 44 3 44 8 0 4 18 13 40
20 47 14 140 70 140 83 0 5 6 9 13 9 19 0 54 60 72 125 10 33 20 65 24 70 3 6
6 12 7 15 4 25 18 71 29 101 12 31 55 192 72 269 12 52 15 210 4 210 -6 0 -11
11 -11 25 0 14 -4 25 -10 25 -5 0 -7 7 -4 15 4 8 1 15 -7 15 -7 0 -10 3 -6 6
3 4 -1 13 -9 21 -8 8 -28 36 -46 61 -17 26 -46 63 -64 82 -77 81 -85 90 -79
90 3 0 2 7 -3 16 -7 12 -4 24 11 41 41 47 30 75 -67 177 -36 38 -68 77 -71 87
-5 15 5 47 45 144 5 11 12 36 16 55 4 19 15 51 25 70 11 19 19 42 19 52 0 9 4
19 9 22 4 3 14 34 21 68 7 35 16 68 21 73 4 6 10 28 14 50 4 22 12 48 17 58 5
10 13 43 18 74 5 31 16 63 25 73 8 9 15 31 15 48 0 31 -2 32 -39 32 -22 0 -43
-4 -46 -10 -3 -5 -15 -10 -26 -10 -10 0 -19 -4 -19 -10 0 -5 -7 -10 -16 -10
-9 0 -30 -10 -47 -22 -31 -23 -75 -48 -83 -48 -2 0 -4 23 -4 51 0 53 -10 80
-42 116 -17 18 -22 44 -29 150 -5 70 -13 137 -18 148 -5 11 -12 36 -16 55 -7
40 -50 108 -80 124 -11 6 -32 19 -47 29 -14 9 -35 17 -46 17 -12 0 -23 4 -26
9 -5 7 -80 23 -123 25 -6 1 -15 5 -19 9 -4 4 -31 7 -60 7 -29 0 -56 5 -59 10
-3 6 -26 10 -51 10 -24 0 -44 5 -44 10 0 6 -9 10 -21 10 -38 0 -52 26 -46 86
3 31 10 61 15 67 5 7 13 28 17 47 4 19 11 40 15 45 25 32 50 90 50 116 0 30
-19 59 -39 59 -6 0 -11 5 -11 10 0 6 -8 10 -17 10 -33 1 -80 98 -66 138 10 31
48 102 55 102 3 0 16 15 27 34 23 37 28 114 10 181 -6 22 -15 60 -20 85 -5 25
-14 53 -19 62 -6 10 -10 50 -11 90 0 97 -36 308 -59 349 -5 9 -12 34 -16 55
-12 64 -68 174 -129 252 -21 28 -111 115 -132 129 -13 9 -23 24 -23 34 0 11
-4 19 -10 19 -5 0 -10 8 -10 18 0 23 -63 145 -97 187 -32 41 -35 46 -57 80
-24 38 -136 155 -148 155 -5 0 -19 10 -32 23 -35 34 -58 50 -91 67 -17 8 -32
17 -35 20 -6 6 -96 49 -125 60 -11 4 -31 12 -45 18 -76 31 -172 42 -361 42
-107 0 -212 -5 -234 -11 -22 -6 -58 -13 -80 -16 -22 -2 -50 -8 -62 -14 -13 -5
-33 -13 -45 -18 -47 -18 -123 -56 -126 -63 -2 -5 -8 -8 -14 -8 -5 0 -15 -6
-23 -12 -30 -29 -56 -48 -65 -48 -6 0 -10 -4 -10 -10 0 -5 -5 -10 -10 -10 -6
0 -23 -11 -38 -25 -40 -37 -59 -40 -82 -13 -11 13 -22 32 -26 43 -4 11 -19 38
-34 60 -15 22 -39 75 -54 118 -33 96 -79 171 -137 220 -49 43 -79 96 -79 141
0 17 -3 55 -6 84 l-7 52 -106 0 -106 0 3 -302z m1109 -543 c23 -42 48 -134 38
-144 -3 -3 -8 5 -12 17 -3 12 -9 22 -14 22 -14 0 -11 -28 4 -33 9 -4 9 -8 -2
-15 -10 -7 -10 -14 -2 -30 8 -15 8 -21 -2 -25 -6 -2 -8 -8 -4 -13 5 -5 14 -1
21 9 17 22 26 22 26 -2 0 -10 -6 -21 -14 -24 -20 -8 -42 -131 -22 -124 6 2 10
17 9 33 -2 28 -2 28 6 4 6 -19 10 -21 14 -10 4 8 6 22 5 30 -1 8 0 26 2 40 2
17 5 10 9 -20 5 -36 2 -49 -14 -68 -30 -34 -69 -52 -112 -51 l-38 1 33 14 c37
16 33 24 -25 57 -41 22 -60 23 -42 0 12 -14 12 -16 -1 -11 -8 3 -15 14 -15 25
0 12 -3 25 -7 29 -5 4 -8 12 -8 18 0 5 7 1 15 -10 14 -18 14 -17 15 13 0 17 8
45 17 61 17 29 17 31 0 50 -19 21 -22 42 -7 42 6 0 10 8 10 18 0 20 59 55 86
50 11 -2 20 4 22 14 4 21 -6 19 -92 -23 -33 -16 -65 -29 -73 -29 -7 0 -21 -4
-31 -9 -9 -5 -30 -15 -45 -22 -20 -9 -27 -19 -24 -31 8 -30 -7 -20 -25 16
l-16 34 36 6 c58 9 133 31 140 42 7 9 36 27 85 52 36 18 34 25 -5 20 -28 -5
-29 -4 -12 9 28 20 46 12 71 -32z m489 -122 c41 -95 56 -123 81 -148 28 -27
24 -31 -52 -50 -47 -13 -119 -46 -198 -92 -12 -7 -41 -9 -73 -6 -66 7 -92 -1
-74 -22 7 -9 8 -15 2 -15 -13 0 -25 27 -28 64 -1 19 1 24 7 15 12 -20 42 57
35 91 -4 21 5 39 41 86 26 32 56 66 67 74 45 34 103 60 134 60 31 0 35 -4 58
-57z m-479 -325 c40 -17 63 -38 63 -59 0 -22 -9 -28 -62 -38 l-43 -9 53 -1 52
-1 0 -69 c0 -62 -2 -69 -22 -74 -26 -7 -33 -3 -23 13 4 6 13 9 21 6 20 -8 17
1 -7 25 -11 11 -27 18 -35 15 -7 -3 -18 3 -23 12 -6 9 -11 13 -11 8 0 -5 -7
-3 -15 4 -8 7 -12 17 -8 24 4 6 -1 5 -10 -3 -18 -14 -14 -28 15 -49 18 -13 24
-58 10 -77 -4 -6 -22 -22 -40 -37 -28 -23 -36 -26 -57 -16 -36 16 -43 68 -15
108 12 16 25 30 30 30 21 0 18 36 -6 74 -25 37 -28 38 -35 19 -9 -26 -47 -37
-51 -15 -3 14 -5 14 -20 -2 -9 -9 -15 -24 -12 -34 5 -13 4 -14 -4 -3 -19 26
32 129 65 130 12 1 83 -77 83 -91 0 -4 5 -8 11 -8 6 0 -6 23 -26 51 -20 28
-33 55 -28 59 21 21 110 25 150 8z m-274 -5 c3 -5 -20 -7 -51 -7 -92 3 -145
-46 -100 -91 7 -7 9 -1 4 16 -6 28 -2 32 57 49 17 5 25 5 22 -1 -6 -8 8 -13
28 -10 5 1 6 -3 3 -8 -4 -5 -2 -12 4 -16 5 -3 10 -2 10 3 0 6 6 12 14 15 11 4
11 -1 1 -31 -11 -32 -17 -37 -50 -39 -59 -3 -78 -28 -72 -89 5 -46 3 -54 -20
-74 -29 -25 -37 -19 -48 39 -4 19 -18 55 -31 78 -13 24 -24 50 -24 58 0 33 62
85 130 108 24 8 118 8 123 0z m1697 -148 c39 -60 67 -130 95 -232 37 -137 63
-349 43 -355 -4 -2 8 -49 27 -106 44 -128 51 -242 15 -242 -5 0 -14 17 -20 38
-20 60 -27 57 -34 -11 -8 -82 -30 -157 -56 -190 -11 -14 -20 -37 -20 -50 0
-14 -7 -54 -15 -89 -8 -35 -15 -98 -16 -140 -2 -73 -3 -76 -36 -98 -28 -19
-41 -21 -85 -16 -134 16 -185 18 -192 7 -4 -6 1 -14 11 -18 10 -4 23 -13 28
-20 27 -36 216 -58 233 -26 6 10 16 14 26 10 21 -8 22 -97 0 -160 l-16 -46
-57 3 c-63 4 -115 23 -148 54 -21 21 -63 118 -63 147 0 8 -5 17 -11 21 -8 4
-9 0 -4 -15 8 -26 -12 -28 -32 -3 -13 15 -13 15 -7 -8 15 -60 60 -143 90 -170
36 -31 89 -50 141 -50 17 0 35 -5 38 -10 5 -8 11 -7 21 1 23 19 26 4 4 -24
-11 -14 -20 -30 -20 -36 0 -6 -4 -11 -8 -11 -11 0 -5 -99 7 -114 8 -9 5 -19
-10 -34 -11 -12 -24 -23 -29 -23 -6 -1 -14 -2 -20 -3 -5 0 -25 -24 -44 -51
-39 -58 -102 -121 -196 -195 -36 -28 -73 -58 -83 -66 -68 -55 -131 -68 -198
-40 -19 7 -49 17 -67 21 l-32 7 17 -35 c13 -26 21 -32 31 -25 26 22 10 0 -42
-54 -29 -31 -61 -73 -70 -92 -15 -32 -46 -50 -46 -27 0 4 -18 29 -40 54 -42
48 -127 94 -211 117 l-46 12 -22 83 c-12 45 -31 100 -43 121 -25 49 -70 117
-83 126 -17 13 14 9 50 -6 44 -19 66 -37 124 -101 19 -21 40 -56 47 -79 10
-33 13 -36 13 -15 2 55 -118 191 -180 204 -16 4 -29 11 -29 16 0 5 -3 8 -7 7
-5 -1 -35 6 -68 16 -33 10 -68 20 -77 22 -10 3 -18 1 -18 -4 0 -6 23 -16 52
-22 51 -13 114 -63 102 -82 -3 -4 -1 -8 4 -8 17 0 72 -118 92 -196 36 -139 21
-220 -57 -298 -25 -25 -41 -46 -36 -46 4 0 26 18 48 40 22 21 47 39 55 39 8 0
35 -9 60 -20 43 -20 44 -22 23 -32 -14 -6 -23 -19 -23 -34 0 -12 -9 -32 -21
-44 -26 -26 -21 -58 20 -125 32 -51 44 -74 81 -161 14 -33 30 -54 44 -57 52
-15 84 -74 62 -116 -4 -8 1 -4 11 9 10 14 18 41 18 60 0 29 4 36 28 42 15 4
25 4 22 0 -2 -5 14 -14 35 -21 38 -12 42 -12 65 10 22 21 26 48 4 35 -5 -3 -6
1 -3 9 5 14 2 14 -30 1 -44 -19 -48 -12 -5 9 l30 15 157 -156 c86 -85 181
-173 210 -195 28 -22 52 -44 52 -48 0 -4 -14 -13 -31 -21 -25 -10 -41 -10 -78
0 -71 19 -128 71 -205 185 l-26 38 -10 -28 c-14 -36 -67 -93 -99 -105 -22 -9
-22 -11 -7 -22 15 -11 13 -14 -19 -31 -19 -11 -35 -23 -35 -28 0 -14 16 -9 44
13 24 19 29 20 44 6 9 -8 28 -20 42 -26 24 -11 23 -11 -3 9 -52 41 -52 55 -2
101 25 23 45 49 45 58 1 11 8 6 23 -14 12 -16 41 -51 66 -77 l43 -48 -32 -30
c-37 -34 -26 -41 14 -9 l27 21 26 -23 c14 -13 43 -50 64 -81 112 -164 115
-289 10 -473 -86 -150 -188 -365 -194 -409 -7 -41 -26 -70 -34 -50 -2 7 -41
68 -85 135 -107 162 -144 222 -179 292 -51 100 -149 380 -149 425 0 23 -14 30
-25 12 -3 -5 -10 -10 -14 -10 -12 0 -31 48 -31 78 0 34 -19 56 -92 111 -32 24
-58 49 -58 55 0 19 58 106 71 106 7 0 9 3 6 6 -4 4 -13 1 -22 -6 -16 -14 -24
0 -45 81 -18 70 -49 139 -92 204 -40 60 -116 145 -129 145 -4 0 10 -19 32 -42
47 -50 76 -107 85 -165 5 -32 3 -43 -7 -43 -8 0 -6 -5 6 -14 15 -10 22 -41 36
-142 10 -71 22 -158 28 -194 5 -36 13 -104 16 -151 7 -83 6 -86 -15 -92 -14
-4 -32 1 -46 11 -27 20 -84 125 -84 156 0 12 -5 28 -11 36 -16 24 1 -59 23
-110 10 -25 32 -61 48 -81 21 -27 26 -39 17 -48 -6 -6 -16 -11 -23 -11 -22 0
-91 87 -123 153 -32 66 -49 90 -31 43 22 -58 63 -129 95 -165 39 -42 42 -51
20 -51 -8 0 -30 -7 -49 -16 l-34 -17 -32 37 c-18 20 -35 35 -37 32 -8 -8 30
-71 68 -113 39 -42 43 -57 30 -101 -6 -23 -8 -22 -47 25 -27 31 -48 72 -62
117 -28 87 -28 106 -2 106 23 0 28 38 8 58 -21 21 -38 13 -38 -18 0 -23 -10
-39 -36 -62 -19 -17 -42 -44 -50 -60 -11 -21 -20 -28 -32 -23 -9 4 -56 11
-104 17 l-88 11 0 61 0 61 -61 63 c-34 34 -63 62 -65 62 -2 0 -4 -38 -4 -85 0
-93 4 -101 74 -151 l29 -21 -20 -34 c-11 -19 -28 -58 -38 -86 -9 -29 -21 -55
-26 -58 -17 -11 -55 40 -73 99 -17 54 -18 71 -7 196 9 115 23 192 37 209 2 2
83 -37 181 -86 172 -87 271 -125 256 -99 -30 54 -63 81 -156 127 -56 29 -113
60 -127 69 -14 10 -53 33 -85 51 -33 17 -68 38 -77 46 -15 13 -18 12 -32 -10
-20 -30 -43 -135 -52 -239 -4 -43 -10 -75 -15 -72 -5 2 -20 40 -33 84 -20 63
-26 102 -27 192 -1 100 1 120 24 176 43 104 219 282 280 282 9 0 24 -11 33
-25 9 -14 21 -25 28 -25 7 0 7 3 1 8 -5 4 -32 33 -58 65 -49 58 -67 69 -67 42
0 -20 -3 -19 -52 15 -24 17 -53 38 -66 47 -12 8 -25 14 -27 11 -3 -2 31 -31
75 -64 82 -61 94 -78 61 -89 -10 -3 -51 -41 -91 -86 -70 -76 -73 -79 -92 -63
-17 17 -20 16 -46 -3 -15 -11 -28 -29 -30 -41 -3 -17 1 -19 20 -14 13 3 28 13
35 21 7 9 -2 -24 -19 -74 -29 -86 -30 -95 -25 -205 6 -121 29 -202 105 -377
31 -68 40 -100 24 -78 -4 6 -26 23 -49 39 -54 36 -136 135 -170 204 -20 41
-24 62 -21 97 8 64 32 98 66 91 l27 -6 -30 23 c-46 34 -96 88 -106 114 -5 13
-9 43 -9 67 0 34 6 48 30 71 28 27 30 28 55 11 37 -24 45 -11 10 15 -46 37
-85 99 -85 136 0 32 34 93 52 93 5 0 16 -16 25 -35 9 -19 23 -35 30 -35 19 0
16 16 -11 58 -13 20 -30 53 -37 74 -11 32 -10 40 5 63 l18 27 123 -4 c82 -2
122 0 119 7 -2 5 3 19 11 29 13 17 23 18 117 12 113 -7 316 -59 400 -102 55
-28 73 -29 112 -9 15 8 34 15 40 15 15 0 52 41 54 61 1 8 5 57 8 109 3 52 9
98 13 102 4 4 21 2 39 -4 35 -13 35 -24 6 -102 -21 -55 -10 -56 16 -1 20 41
22 57 16 122 -6 78 -36 141 -59 126 -8 -5 -8 -8 1 -11 7 -2 12 -8 12 -14 0 -7
-4 -7 -12 0 -24 18 -204 119 -227 127 -41 13 -182 102 -248 157 -185 153 -286
337 -308 564 -4 38 -1 144 6 234 7 91 13 186 14 213 0 26 3 47 8 47 4 0 7 10
7 23 -1 21 -1 22 -12 2 -7 -11 -13 -33 -13 -50 -1 -16 -7 -79 -15 -138 l-13
-109 -13 39 c-8 21 -14 46 -14 56 0 9 -4 17 -8 17 -24 0 -62 -262 -56 -385 l3
-50 -29 32 c-35 39 -61 122 -63 201 -2 53 1 61 45 122 26 36 51 70 56 75 20
25 72 104 72 111 0 10 -117 -140 -163 -208 -65 -99 -107 -213 -107 -298 0 -25
-5 -52 -10 -60 -9 -13 -14 -10 -35 15 -56 67 -70 113 -70 220 0 88 4 109 29
170 34 82 110 194 214 319 41 49 71 87 66 84 -134 -65 -193 -76 -309 -60 -89
13 -185 40 -185 52 0 4 42 10 93 12 103 6 194 29 247 63 83 54 266 286 243
309 -4 3 -2 6 3 6 17 0 94 -125 94 -151 0 -14 4 -29 10 -35 6 -6 5 -36 -5 -88
-17 -90 -19 -142 -5 -151 14 -9 64 20 94 56 l27 32 23 -22 c12 -11 34 -21 47
-21 18 0 36 -12 57 -39 19 -24 44 -42 62 -46 24 -5 30 -11 25 -26 -3 -10 2
-35 11 -56 10 -20 17 -48 16 -62 -1 -17 6 -8 19 25 21 56 51 90 69 79 7 -4 21
-26 31 -49 l19 -41 0 48 c0 51 11 58 64 37 14 -5 26 -6 26 -2 0 4 14 13 32 20
27 10 35 9 50 -5 10 -9 37 -18 59 -19 39 -2 43 -5 68 -54 14 -29 38 -62 53
-73 24 -18 31 -19 52 -7 29 15 66 95 66 142 0 31 4 35 50 51 28 10 57 28 66
41 14 22 18 23 52 14 27 -7 46 -7 70 2 33 12 34 11 80 -40 36 -39 56 -52 84
-57 36 -5 39 -4 54 33 11 26 15 56 12 92 -5 54 -4 55 28 68 19 8 43 28 56 44
16 22 30 30 53 30 18 0 47 10 66 23 l34 23 48 -25 c27 -14 66 -25 90 -25 l42
-1 -3 35 c-2 19 -14 55 -27 80 l-23 45 24 28 c13 16 24 39 24 52 0 25 4 29 53
66 15 11 27 27 27 35 0 17 1 17 35 4 14 -5 48 -10 75 -11 53 -2 52 -2 65 -68
4 -18 18 -56 31 -85 l25 -51 -6 70 c-10 137 -60 270 -149 395 -27 37 -56 107
-56 133 0 4 12 13 28 21 20 10 28 11 32 3 3 -7 16 -30 30 -52z m-1266 44 c-5
-8 3 -10 27 -7 55 8 115 -39 154 -123 29 -64 31 -79 8 -78 -10 0 -13 3 -6 6
10 3 10 9 0 26 -7 12 -13 23 -14 25 0 2 -15 -4 -32 -13 -17 -8 -31 -13 -31 -9
0 4 -6 2 -12 -4 -19 -15 -78 -25 -78 -14 0 6 6 13 13 16 6 3 2 3 -10 1 -20 -5
-21 -3 -13 30 6 25 4 44 -6 63 -16 32 -19 92 -3 92 5 0 7 -5 3 -11z m-266
-283 c38 -20 63 -53 69 -92 5 -32 4 -34 -21 -34 -15 0 -25 -4 -21 -10 3 -5 13
-6 23 -3 14 5 15 4 6 -8 -6 -8 -14 -23 -16 -34 -3 -11 -9 -28 -13 -37 -5 -14
-2 -18 13 -18 27 0 52 -10 52 -21 0 -17 -63 -42 -80 -31 -13 8 -16 6 -16 -12
1 -32 -47 -34 -76 -3 -19 20 -26 22 -41 13 -23 -15 -71 11 -75 42 -2 12 -7 22
-12 22 -15 0 -42 60 -35 78 4 12 8 13 17 4 21 -21 44 -13 61 23 19 40 41 45
57 14 7 -11 14 -18 18 -15 8 9 -39 56 -49 50 -23 -14 -5 32 22 57 35 32 74 37
117 15z m1311 -66 c23 -36 31 -59 29 -82 l-3 -33 -77 0 c-42 0 -79 3 -82 6 -3
3 1 20 10 37 8 18 13 40 9 51 -4 14 2 21 24 31 17 7 36 18 42 26 6 8 12 14 14
14 1 0 16 -22 34 -50z m-183 -47 c7 -10 14 -26 14 -37 0 -15 -5 -17 -22 -11
-13 4 -41 10 -62 12 l-39 5 6 -56 c4 -37 2 -56 -5 -56 -23 0 -147 46 -145 53
1 5 32 20 67 34 36 15 83 36 105 49 50 27 64 29 81 7z m-298 -177 c5 -81 -2
-95 -31 -68 -13 12 -38 27 -56 33 -30 11 -36 10 -48 -6 -7 -11 -13 -36 -13
-57 0 -63 -37 -60 -110 9 -19 18 -38 33 -42 33 -5 0 -8 8 -8 19 0 14 10 19 48
24 27 3 82 22 123 41 45 22 86 35 104 34 29 -3 30 -5 33 -62z m218 -52 c4 -35
2 -65 -5 -81 -11 -23 -15 -25 -56 -19 -37 5 -116 36 -134 52 -3 3 5 11 17 20
12 8 29 28 37 43 12 25 20 29 61 29 26 1 49 4 52 7 14 14 21 1 28 -51z m-572
-3 c6 -10 -19 -113 -35 -143 l-14 -26 -49 44 c-28 24 -53 44 -56 44 -4 0 -19
-25 -35 -55 -15 -30 -29 -55 -31 -55 -6 0 -54 111 -54 124 1 30 19 37 98 41
61 2 88 8 108 23 25 18 58 19 68 3z m-510 -42 c14 -17 26 -37 26 -45 0 -10 5
-9 19 5 22 22 107 39 122 24 5 -5 -8 -31 -31 -65 -44 -62 -70 -79 -70 -47 0
33 -17 13 -29 -36 -9 -37 -18 -49 -46 -62 -31 -15 -36 -15 -60 1 -60 39 -60
152 -1 228 27 35 39 35 70 -3z m694 -84 c7 -6 -24 -74 -46 -97 -33 -36 -79
-31 -145 15 l-28 19 43 39 c43 39 43 39 108 33 36 -4 66 -7 68 -9z m-482 -70
c10 -8 28 -15 40 -15 11 0 23 -3 27 -6 11 -11 -71 -121 -95 -127 -41 -11 -85
34 -102 106 -6 23 -3 27 16 27 13 0 34 7 48 14 33 19 43 19 66 1z m2140 -1471
c10 15 12 14 16 -8 5 -22 2 -24 -58 -29 -48 -3 -79 -13 -131 -43 -144 -80
-136 -78 -201 -61 -39 10 -48 15 -29 16 17 1 27 7 27 16 0 11 11 15 38 15 31
0 44 8 84 49 53 55 114 83 129 60 7 -11 9 -10 9 4 0 15 5 15 52 -9 47 -24 53
-25 64 -10z m-2320 -46 c11 0 85 -37 102 -51 11 -8 11 -12 0 -19 -9 -7 -4 -8
13 -4 45 10 54 -49 17 -101 -13 -17 -30 -41 -38 -54 -35 -52 -111 -138 -149
-168 -40 -32 -43 -33 -89 -22 -26 7 -59 17 -74 23 l-28 10 57 62 c31 33 69 81
85 106 28 44 63 143 72 205 2 17 5 32 5 35 1 3 5 -1 10 -8 4 -8 12 -14 17 -14z
m959 -300 c3 -7 -8 -50 -24 -96 -17 -46 -29 -89 -27 -95 1 -7 1 -9 -1 -5 -3 4
-11 2 -18 -5 -16 -16 -14 -74 3 -102 11 -18 12 -17 10 10 -2 23 1 29 12 26 8
-2 29 -7 47 -10 31 -6 31 -6 14 -27 -9 -12 -32 -25 -50 -29 -26 -5 -32 -11
-28 -26 10 -36 -15 -31 -59 12 -31 30 -40 45 -31 51 8 5 7 8 -5 8 -22 0 -24
18 -3 26 8 4 15 15 15 25 0 11 -7 22 -15 25 -18 7 -19 38 -4 85 16 47 46 77
91 91 20 6 35 15 32 19 -8 13 5 29 22 29 8 0 17 -6 19 -12z m815 -8 c0 -5 5
-10 11 -10 14 0 31 -18 94 -101 30 -40 55 -80 55 -89 0 -9 4 -20 9 -25 28 -31
34 -111 7 -102 -6 2 -23 0 -39 -4 -24 -7 -30 -4 -51 29 -14 22 -27 61 -31 93
-5 46 -13 64 -41 95 -53 59 -64 77 -57 102 5 22 43 32 43 12z m-310 -30 c3 -4
23 -16 45 -28 73 -36 102 -121 70 -199 -20 -47 -19 -53 5 -53 51 0 140 -69
140 -109 0 -9 5 -23 11 -31 8 -11 9 -7 5 17 -7 41 -46 103 -66 103 -8 1 -1 7
16 14 52 23 49 34 -8 32 -29 -1 -60 -5 -69 -9 -13 -7 -15 4 -15 80 1 68 -3 94
-16 113 -10 13 -18 27 -18 30 0 8 56 27 104 36 l39 7 -5 -32 c-3 -20 -1 -30 6
-28 11 4 20 -2 66 -46 24 -23 30 -37 30 -72 0 -25 -6 -50 -14 -57 -11 -11 -6
-19 30 -51 44 -38 44 -39 44 -106 0 -84 -19 -147 -69 -233 -22 -37 -35 -70
-30 -73 5 -4 9 0 9 8 0 22 30 30 31 9 1 -9 2 -24 3 -32 1 -8 -4 -27 -11 -41
-11 -25 -16 -26 -60 -22 -56 6 -107 45 -97 75 8 25 -1 22 -20 -7 -13 -20 -14
-29 -4 -50 6 -14 16 -24 22 -21 6 2 33 -8 59 -22 42 -23 46 -27 33 -41 -14
-13 -21 -11 -67 13 -28 16 -63 29 -78 31 -19 1 -48 23 -92 66 -68 68 -188 152
-304 215 -38 21 -71 42 -73 46 -2 4 -8 8 -12 8 -13 0 -82 42 -77 47 2 2 17 -2
33 -8 34 -13 57 -18 142 -26 52 -5 66 -3 82 12 16 15 20 15 20 3 0 -8 24 -35
53 -60 50 -43 53 -48 49 -84 -2 -22 -1 -36 4 -31 4 4 18 -3 31 -15 13 -12 23
-19 23 -16 0 20 -57 127 -90 169 -22 28 -40 54 -40 59 0 4 10 15 23 24 l22 16
-30 -3 c-29 -2 -30 0 -38 53 -5 30 -8 98 -7 151 l1 97 -41 16 c-69 27 -43 56
58 64 37 2 69 6 71 8 6 5 65 -8 71 -16z m464 -478 c27 -30 48 -102 28 -102 -6
0 -14 -9 -17 -20 -3 -11 -13 -20 -21 -20 -8 0 -14 -3 -14 -7 0 -11 -57 -42
-64 -35 -11 10 -6 57 8 84 8 15 17 42 21 60 16 80 18 81 59 40z m-848 -110
c23 -17 74 -47 115 -67 58 -28 86 -35 132 -35 41 0 56 3 51 12 -4 7 -3 8 4 4
6 -4 9 -13 6 -21 -6 -15 29 -38 41 -27 5 4 5 1 1 -5 -4 -8 -1 -13 9 -13 9 0
13 -5 9 -11 -4 -8 -25 -9 -60 -5 -30 3 -54 2 -54 -2 0 -5 48 -28 108 -52 126
-51 233 -101 283 -132 20 -13 57 -36 83 -51 37 -23 46 -34 46 -55 -1 -32 14
-105 30 -146 6 -16 12 -71 13 -122 1 -53 6 -90 11 -86 5 3 6 -3 2 -13 -4 -10
-3 -21 2 -24 12 -9 44 -130 37 -142 -4 -5 -2 -9 3 -9 8 0 34 -121 27 -128 -2
-2 -19 30 -38 71 -52 109 -129 218 -241 342 -171 190 -237 254 -383 376 -79
66 -143 123 -143 127 0 4 9 13 21 20 18 11 35 6 142 -47 67 -32 154 -74 192
-91 169 -78 242 -114 266 -131 25 -17 39 -16 39 2 0 29 -263 176 -442 247
-156 62 -366 211 -413 292 -4 8 7 1 26 -16 19 -17 52 -45 75 -62z m-2828 -31
c2 -106 15 -144 77 -230 95 -132 181 -200 311 -244 60 -21 104 -2 122 50 12
36 9 68 -9 89 -8 10 -8 14 0 14 23 0 51 -64 51 -118 0 -103 -64 -172 -147
-159 -81 14 -212 122 -316 263 -66 89 -82 122 -101 209 -19 84 -20 148 -4 175
7 11 13 20 14 20 0 0 2 -31 2 -69z m-43 -368 c43 -66 146 -185 244 -283 89
-88 181 -202 181 -224 0 -16 -20 -3 -26 17 -4 12 -9 24 -13 27 -3 3 -24 27
-46 55 -46 57 -157 166 -164 160 -2 -3 2 -11 9 -20 9 -11 9 -15 1 -15 -6 0
-14 14 -17 30 -4 17 -11 30 -16 30 -6 0 -8 -11 -6 -25 3 -14 -1 -30 -8 -36
-19 -15 -17 -28 4 -36 24 -9 170 -161 178 -185 10 -32 -4 -33 -16 -2 -15 38
-75 99 -187 190 -51 42 -101 89 -110 105 -10 16 -20 29 -24 29 -3 0 -11 12
-18 28 -11 25 -10 24 17 -7 25 -30 31 -33 44 -21 8 8 13 22 10 32 -2 10 1 18
7 18 21 0 11 27 -31 85 -22 32 -44 72 -49 89 l-7 31 -1 -31 c-1 -17 -4 -34 -8
-38 -5 -4 -8 -12 -8 -17 0 -5 -4 -10 -10 -11 -26 -7 -10 101 27 190 11 24 12
19 18 -55 5 -53 14 -92 25 -110z m1518 -152 l25 -10 -33 -88 c-19 -48 -37 -88
-42 -88 -11 0 -157 37 -162 41 -5 5 30 104 38 104 4 0 27 -20 51 -45 24 -24
47 -42 51 -39 5 2 5 34 2 69 -6 65 -6 65 20 65 14 0 37 -4 50 -9z m1732 -269
c-10 -16 -25 -39 -35 -51 -17 -23 -17 -23 -40 -5 -13 11 -34 30 -47 43 l-23
24 33 59 32 59 48 -50 c48 -51 48 -51 32 -79z m165 88 c0 -5 -5 -10 -11 -10
-6 0 -8 -7 -5 -16 4 -9 2 -22 -2 -28 -5 -6 -12 -23 -16 -38 -3 -16 -13 -28
-21 -28 -19 0 -19 -7 0 -26 37 -37 6 -119 -49 -129 -38 -8 -86 9 -86 30 0 18
2 18 35 3 34 -16 75 3 75 35 0 34 -26 66 -49 60 -19 -5 -61 -43 -48 -43 4 0
-2 -15 -13 -32 -13 -21 -20 -50 -19 -78 0 -25 3 -38 6 -30 14 38 26 41 44 13
11 -15 19 -31 19 -34 0 -13 -30 -18 -52 -10 -14 5 -32 4 -46 -2 -31 -14 -35
-6 -17 36 23 54 20 76 -6 43 -42 -53 -132 -23 -133 45 0 19 3 44 7 56 6 16 4
22 -9 25 -10 2 -22 19 -29 38 -7 23 -22 40 -43 50 -17 8 -32 21 -32 29 0 11 5
10 20 -4 19 -18 20 -17 20 3 0 12 -8 26 -17 31 -17 10 -17 10 -1 11 11 0 24
-16 37 -44 11 -25 28 -47 40 -51 12 -3 24 -17 27 -31 5 -21 12 -24 54 -24 30
0 52 -6 60 -15 16 -19 70 -20 70 -1 0 22 49 56 81 56 21 0 27 4 23 15 -4 9 3
19 20 26 15 7 29 24 33 38 3 14 8 29 10 34 6 10 23 9 23 -3z m-1668 -185 c3
-3 -6 -42 -19 -86 -12 -45 -23 -105 -23 -133 0 -29 -5 -57 -12 -64 -9 -9 0
-16 36 -32 26 -11 59 -23 72 -26 l24 -6 -25 -30 c-14 -16 -25 -38 -25 -48 0
-10 -3 -25 -6 -34 -5 -12 1 -16 22 -16 32 0 111 -22 146 -41 58 -31 268 -224
268 -246 0 -24 -19 -13 -82 45 -95 87 -196 171 -226 186 -15 7 -58 24 -97 36
-38 13 -80 30 -92 38 -23 14 -31 42 -13 42 6 0 10 -7 10 -15 0 -8 5 -15 11
-15 5 0 8 4 5 9 -3 5 1 23 10 40 19 37 19 37 -21 45 -26 6 -31 4 -32 -14 -2
-25 -43 -92 -42 -70 0 22 26 127 34 141 5 7 7 42 6 79 -2 58 19 186 35 211 6
10 28 12 36 4z m1908 -372 c21 -40 45 -79 54 -88 22 -22 21 -74 -1 -82 -10 -4
-20 -10 -23 -14 -3 -4 -17 -9 -30 -11 -14 -2 -31 -7 -37 -11 -7 -5 -35 -8 -63
-9 -27 0 -50 -4 -50 -9 0 -18 -75 -10 -92 10 -14 17 -14 22 -3 38 8 10 15 35
15 56 0 36 8 52 38 80 7 7 38 36 70 65 31 29 63 51 71 50 8 -2 31 -35 51 -75z
m-491 20 c7 -12 10 -13 11 -4 0 9 6 11 18 6 9 -4 24 -7 32 -8 8 0 21 -4 28
-10 8 -6 12 -6 12 3 0 6 6 10 13 7 6 -2 17 3 24 12 10 14 12 12 18 -14 3 -17
17 -65 31 -108 13 -43 24 -82 24 -87 0 -13 -56 -22 -88 -16 -15 4 -36 20 -47
35 l-19 29 -41 -44 c-25 -26 -50 -44 -63 -44 -12 0 -22 -4 -22 -10 0 -5 14
-10 32 -10 22 0 29 -3 21 -11 -13 -13 -63 -1 -70 16 -2 7 9 32 26 56 29 39 31
48 31 131 0 86 8 106 29 71z m-1389 -181 c8 -7 9 -11 3 -7 -9 4 -11 1 -7 -9 3
-9 10 -13 15 -10 5 3 9 -2 9 -12 0 -49 141 -288 234 -396 75 -88 185 -110 361
-72 143 31 241 44 295 38 66 -7 78 -13 121 -61 28 -33 39 -38 76 -38 38 0 42
-2 37 -20 -11 -37 -52 -65 -97 -65 -31 0 -45 -5 -55 -20 -15 -25 -96 -28 -130
-4 -27 19 -22 32 13 32 56 0 75 60 32 100 -35 33 -96 36 -237 13 -182 -30
-270 -28 -345 8 -66 32 -114 77 -183 174 -26 35 -61 83 -78 106 -38 50 -118
246 -110 268 6 14 9 14 19 3 7 -8 19 -20 27 -28z m910 13 c22 -13 23 -14 5
-15 -30 -1 -51 -21 -59 -55 -4 -17 -12 -37 -19 -45 -14 -19 -82 -60 -117 -70
-14 -5 -63 -24 -110 -44 -46 -20 -89 -36 -95 -36 -6 0 -28 -12 -48 -26 -21
-14 -41 -24 -43 -21 -9 8 70 67 106 79 124 40 220 102 220 140 0 27 -39 39
-72 22 -16 -8 -28 -11 -28 -6 0 15 33 38 69 51 41 13 51 14 31 1 -13 -8 -12
-12 8 -25 12 -9 22 -25 22 -36 0 -11 4 -18 9 -15 4 3 6 17 4 30 -4 21 0 26 22
32 16 4 23 10 17 16 -5 5 -19 5 -35 -1 -17 -7 -27 -7 -27 -1 0 6 1 10 3 10 1
0 20 7 42 15 50 18 64 18 95 0z m-711 -996 c28 -10 31 -14 28 -48 -3 -38 15
-94 39 -118 8 -8 14 -32 14 -53 0 -32 -8 -45 -54 -92 -29 -29 -64 -58 -77 -65
-68 -32 -120 -53 -134 -53 -8 0 -15 -4 -15 -10 0 -5 -13 -10 -30 -10 -36 0
-37 6 -4 78 81 181 84 189 84 209 1 10 7 29 15 43 8 14 14 39 15 55 0 66 45
90 119 64z m345 -483 c-4 -19 -15 -29 -35 -33 -21 -4 -29 -11 -29 -27 0 -34
-26 -63 -63 -70 -28 -5 -36 -13 -43 -39 -8 -26 -15 -33 -42 -35 -26 -3 -36
-11 -52 -43 -18 -34 -25 -39 -55 -39 -46 0 -50 12 -16 49 20 21 38 31 58 31
24 0 32 7 44 33 10 23 22 33 43 37 22 4 32 13 39 35 13 42 23 52 56 58 23 5
31 13 36 37 4 19 16 35 28 40 29 11 40 -1 31 -34z m1201 -241 c9 -27 20 -138
30 -282 19 -297 19 -288 -6 -233 -67 147 -67 148 -72 404 l-5 238 19 -42 c10
-23 25 -61 34 -85z m-660 -45 c15 -58 45 -161 67 -229 l40 -124 -12 -101 c-13
-110 -23 -143 -34 -110 -3 10 -10 39 -15 64 -5 25 -23 99 -40 165 -64 243 -63
235 -57 334 6 85 12 118 21 109 2 -2 15 -50 30 -108z m375 3 c0 -11 15 -45
100 -228 51 -111 68 -150 75 -172 3 -13 11 -23 16 -23 5 0 9 -7 9 -15 0 -14
13 -38 89 -168 24 -41 25 -48 25 -247 0 -197 -1 -207 -25 -257 -15 -34 -30
-53 -41 -53 -10 0 -18 -6 -18 -12 0 -10 -2 -10 -8 -1 -8 12 -62 13 -62 0 0
-18 -71 41 -76 63 -3 14 -12 48 -19 75 -7 28 -18 91 -24 140 -5 50 -19 158
-31 240 -36 266 -39 297 -39 505 0 182 1 203 14 186 8 -11 15 -26 15 -33z
m-178 -86 c-4 -53 12 -59 20 -7 4 24 5 24 12 -5 4 -16 13 -43 22 -59 19 -37
33 -356 15 -356 -6 0 -11 -12 -11 -27 -1 -27 -1 -27 -15 -9 -8 11 -15 16 -15
11 0 -5 -16 14 -35 44 -35 53 -43 85 -25 96 10 6 7 45 -5 65 -3 5 2 23 12 40
14 24 15 37 8 67 -6 21 -9 78 -7 126 3 70 6 86 16 78 9 -8 12 -28 8 -64z
m-1457 -77 c2 -4 -3 -17 -12 -29 -13 -19 -22 -22 -53 -17 -24 4 -43 1 -56 -9
-10 -8 -29 -15 -41 -15 -12 0 -25 -4 -28 -10 -11 -19 -25 -10 -25 16 0 14 -4
23 -9 20 -5 -3 -6 -27 -4 -53 4 -35 12 -54 31 -69 32 -26 24 -38 -39 -59 -50
-17 -51 -17 -73 4 l-21 22 23 19 c24 20 30 65 10 74 -9 3 -7 10 7 22 17 14 17
16 2 11 -15 -6 -16 -4 -7 13 6 11 19 20 29 20 10 0 30 10 45 21 l27 21 6 -21
c6 -23 18 -27 29 -10 3 6 18 9 32 6 18 -4 35 2 54 18 26 22 61 24 73 5z m-339
-126 c-15 -11 -16 -17 -5 -54 7 -22 25 -53 40 -68 44 -43 97 -140 109 -198 18
-88 -23 -229 -88 -296 -30 -32 -48 -35 -60 -10 -11 20 2 62 19 62 7 0 9 3 6 6
-4 4 -13 2 -20 -5 -27 -22 -64 10 -50 44 3 9 23 25 44 36 44 22 52 33 13 18
-37 -13 -64 -3 -64 26 0 27 34 55 65 55 31 0 65 28 65 55 0 37 -35 110 -74
153 -39 43 -86 135 -86 170 0 19 5 22 39 22 22 0 43 5 47 12 6 9 9 9 12 -2 3
-7 -3 -19 -12 -26z m1515 -24 c5 0 9 -11 9 -25 0 -15 6 -38 14 -53 7 -15 17
-51 21 -79 4 -29 11 -55 16 -59 5 -3 9 -18 9 -33 0 -16 7 -34 15 -41 17 -14
20 -56 5 -65 -5 -3 -10 -17 -10 -31 0 -15 -6 -24 -15 -24 -9 0 -19 -8 -22 -17
-4 -10 -15 -24 -25 -31 -11 -8 -18 -26 -18 -48 0 -19 -5 -34 -10 -34 -6 0 -14
-10 -19 -22 -15 -40 -31 51 -51 284 -12 141 -8 183 26 233 8 11 14 27 14 35 0
9 6 22 13 29 10 10 13 9 15 -3 2 -9 8 -16 13 -16z m-1845 -295 c9 -22 -5 -72
-15 -56 -12 18 -51 -34 -51 -67 0 -25 1 -25 14 -6 14 18 15 18 22 1 3 -10 4
-36 0 -58 -7 -47 14 -95 68 -152 20 -20 36 -43 36 -50 0 -8 13 -26 30 -40 31
-28 45 -62 38 -94 -3 -13 -11 -17 -33 -15 -34 3 -71 42 -81 85 -3 16 -23 59
-44 96 -21 37 -45 84 -54 105 -19 45 -22 176 -5 209 28 53 63 73 75 42z m219
-36 c18 -19 18 -21 1 -54 -13 -23 -15 -38 -8 -50 8 -16 10 -16 24 4 l16 22 6
-27 c9 -33 -13 -59 -69 -86 -33 -16 -35 -19 -12 -15 26 4 27 3 14 -16 -7 -12
-28 -26 -46 -32 -33 -11 -33 -11 -10 -21 23 -10 22 -11 -13 -18 -44 -8 -81 12
-104 55 -20 39 -17 49 6 19 28 -36 24 -13 -10 50 -18 33 -30 69 -29 90 1 35 1
35 9 7 7 -23 32 -62 67 -106 2 -3 9 1 15 7 7 7 26 12 43 12 20 0 26 3 16 9
-18 11 0 22 39 23 16 1 27 5 24 10 -8 13 -71 10 -86 -4 -37 -35 -45 -39 -52
-23 -3 9 -2 14 3 10 5 -3 11 -2 13 3 1 4 20 18 41 31 53 33 73 65 59 96 -10
22 -9 25 7 25 10 0 26 -9 36 -21z m-671 -51 c-11 -120 -74 -298 -109 -312 -34
-12 -74 -6 -85 13 -13 26 -13 87 1 114 30 58 172 227 190 227 4 0 5 -19 3 -42z"/>
<path d="M3748 6543 c-21 -3 -30 -12 -36 -36 -8 -30 -11 -32 -68 -38 -66 -6
-63 -11 11 -13 28 -1 63 -8 79 -16 34 -17 54 -68 30 -77 -19 -7 -18 -16 10
-48 13 -15 27 -40 30 -55 18 -94 112 -223 174 -239 121 -32 337 -20 402 23 42
27 88 91 92 126 3 21 -1 25 -21 25 -18 0 -26 -7 -32 -27 -11 -42 -58 -97 -103
-121 -35 -19 -57 -22 -151 -22 -119 0 -164 15 -211 67 -42 45 -90 168 -66 168
6 0 12 -6 15 -12 3 -10 39 -13 138 -12 115 0 142 3 194 23 33 13 64 27 68 31
4 4 -77 9 -181 13 -234 7 -255 13 -270 84 -6 26 -10 55 -10 63 1 8 0 34 0 58
-2 41 -3 42 -34 41 -18 -1 -45 -4 -60 -6z"/>
<path d="M1855 4151 c-14 -24 43 -90 79 -91 12 0 16 -5 12 -16 -3 -8 -2 -13 3
-9 12 7 41 -4 41 -16 0 -4 -8 -6 -17 -3 -17 5 -17 5 0 -6 9 -6 29 -22 44 -36
31 -29 107 -64 137 -64 11 1 32 7 46 15 l25 14 -25 1 c-20 0 -22 2 -10 10 10
6 11 10 3 10 -7 0 -13 5 -13 10 0 15 16 12 34 -6 9 -8 16 -11 16 -5 0 5 -5 13
-10 16 -6 4 -8 9 -6 13 2 4 -16 5 -40 3 -24 -1 -56 1 -72 7 -20 7 -31 6 -40
-4 -7 -8 -18 -14 -25 -14 -7 1 -6 5 4 13 21 16 13 37 -15 37 -13 0 -34 11 -48
24 -27 24 -57 40 -71 37 -5 -1 -6 3 -2 9 4 6 -4 22 -18 36 -15 15 -28 21 -32
15z"/>
</g>
</svg>
