<?xml version="1.0" standalone="no"?>
<!DOCTYPE svg PUBLIC "-//W3C//DTD SVG 20010904//EN"
 "http://www.w3.org/TR/2001/REC-SVG-20010904/DTD/svg10.dtd">
<svg version="1.0" xmlns="http://www.w3.org/2000/svg"
 width="651.000000pt" height="863.000000pt" viewBox="0 0 651.000000 863.000000"
 preserveAspectRatio="xMidYMid meet">
<metadata>
Created by potrace 1.16, written by Peter Selinger 2001-2019
</metadata>
<g transform="translate(0.000000,863.000000) scale(0.100000,-0.100000)"
fill="#5d4a4a" stroke="none">
<path d="M1700 8246 c0 -13 13 -52 29 -87 36 -80 55 -146 81 -279 17 -92 20
-145 20 -435 0 -329 5 -390 38 -452 13 -24 0 -33 -49 -33 -41 0 -122 -26 -199
-63 -63 -31 -76 -39 -103 -63 -7 -6 -24 -15 -37 -18 -14 -4 -40 -14 -59 -23
-39 -18 -207 -15 -219 3 -4 6 -18 15 -32 19 -14 4 -27 11 -30 16 -3 4 -17 10
-32 14 -21 5 -29 2 -38 -15 -9 -17 -7 -27 9 -53 11 -18 28 -46 36 -62 20 -38
110 -105 140 -105 13 0 25 -4 27 -10 2 -5 26 -12 53 -16 28 -3 59 -10 70 -14
11 -5 36 -11 55 -12 l35 -3 0 -68 0 -67 44 -35 c49 -39 60 -44 40 -17 -7 9 8
-5 34 -33 26 -27 61 -77 77 -111 34 -69 55 -92 96 -103 16 -4 29 -12 29 -18 0
-13 -53 -72 -81 -91 -11 -7 -13 -10 -5 -6 9 4 12 3 8 -3 -4 -6 -23 -14 -42
-17 -19 -4 -35 -11 -35 -16 0 -6 -9 -10 -20 -10 -11 0 -20 -5 -20 -11 0 -6 8
-8 18 -5 9 3 44 10 77 15 33 6 93 27 132 47 60 30 75 34 88 24 22 -18 19 -35
-16 -75 -38 -43 -85 -57 -198 -60 l-85 -3 -199 -193 c-110 -107 -210 -208
-224 -225 -22 -30 -23 -34 -10 -72 15 -42 19 -48 84 -121 l42 -47 -77 -77
c-43 -43 -82 -74 -86 -70 -4 4 -6 3 -4 -2 2 -6 -8 -22 -21 -35 -13 -14 -20
-19 -16 -11 6 10 4 12 -4 7 -7 -5 -10 -11 -7 -14 8 -7 -15 -33 -24 -27 -4 3
-7 -3 -6 -12 0 -8 -12 -23 -29 -33 -16 -9 -30 -21 -30 -27 0 -13 -56 -73 -77
-81 -26 -11 -129 -162 -135 -199 -6 -37 1 -41 30 -15 13 10 17 11 12 3 -6 -11
-4 -13 8 -8 21 8 21 3 1 -17 -27 -27 -6 -37 73 -35 l75 2 15 -32 c9 -17 25
-37 35 -42 15 -8 18 -17 13 -37 -25 -96 -25 -111 -9 -150 13 -33 16 -34 55
-29 23 3 57 17 77 31 l35 25 48 -41 47 -41 -5 -76 c-3 -42 -9 -107 -14 -146
-5 -38 -9 -79 -10 -90 0 -45 -41 -299 -70 -430 -35 -161 -114 -425 -163 -546
-19 -46 -69 -156 -110 -244 -42 -87 -78 -175 -81 -195 -3 -19 -17 -57 -31 -85
-35 -67 -157 -251 -233 -350 -34 -44 -61 -86 -61 -93 0 -16 20 -6 38 20 7 10
19 15 25 12 7 -4 9 -3 4 1 -10 11 22 45 43 45 29 0 68 38 75 73 9 43 40 128
66 180 33 65 91 157 99 157 4 0 15 -23 24 -50 14 -44 15 -53 2 -78 -8 -15 -17
-44 -21 -65 -7 -34 -5 -37 16 -37 13 0 39 4 56 9 30 9 34 7 53 -23 31 -51 25
-77 -38 -171 l-59 -86 -99 -5 c-54 -3 -107 -7 -116 -10 -9 -3 -31 8 -51 26
l-35 30 -21 -26 c-23 -29 -27 -64 -11 -95 8 -13 7 -19 0 -19 -6 0 -9 -4 -5 -9
3 -5 -3 -12 -14 -16 -25 -8 -87 -123 -73 -137 18 -18 104 -20 156 -4 48 15 50
15 78 -9 31 -26 89 -33 118 -15 12 7 13 15 4 37 -13 34 -4 63 42 145 19 33 34
65 34 71 0 19 122 128 139 125 13 -3 17 -19 19 -87 3 -77 1 -86 -21 -110 -46
-49 -64 -111 -32 -111 44 0 -2 -35 -175 -135 -74 -43 -142 -83 -151 -88 -12
-7 -21 -5 -38 12 -42 42 -83 17 -91 -58 -3 -28 -9 -53 -13 -54 -5 -1 -52 -45
-106 -97 -143 -138 -180 -199 -263 -430 -60 -168 -69 -234 -39 -283 23 -38 51
-55 51 -32 0 7 -4 17 -10 20 -17 10 -11 63 11 108 38 73 109 155 186 212 91
68 286 184 386 230 41 19 94 51 118 70 66 54 69 57 134 99 33 22 119 99 190
173 102 105 146 159 203 251 122 198 142 244 251 607 28 95 76 329 83 405 3
30 7 35 38 43 19 4 46 11 59 14 23 6 23 5 16 -43 -14 -101 -8 -168 28 -313 20
-79 47 -214 58 -300 21 -147 25 -162 73 -261 79 -164 150 -223 290 -245 38 -6
71 -16 73 -22 2 -6 -12 -30 -33 -52 l-36 -41 -87 -1 c-146 -1 -197 -11 -232
-45 -47 -44 -59 -76 -59 -152 0 -62 3 -71 29 -96 l29 -28 53 28 c61 31 103 60
173 122 27 23 51 41 53 38 6 -6 -206 -268 -236 -292 -12 -9 -12 -12 1 -16 10
-4 40 26 93 93 44 54 83 99 88 99 5 0 1 -12 -9 -27 -10 -16 -39 -64 -65 -108
-88 -148 -136 -202 -213 -240 -38 -19 -72 -33 -74 -30 -3 3 8 30 23 61 21 42
37 60 62 70 18 8 33 21 33 29 0 8 9 24 20 35 16 16 17 20 4 20 -8 0 -20 -13
-25 -29 -7 -21 -25 -37 -56 -52 -32 -16 -43 -26 -40 -39 2 -9 -8 -35 -24 -58
-24 -36 -26 -42 -13 -53 15 -13 20 -12 87 16 31 13 18 -13 -18 -35 -19 -12
-35 -27 -35 -33 0 -7 -12 -20 -28 -29 -15 -10 -35 -23 -44 -30 -25 -18 -32 -4
-13 25 9 15 15 40 13 59 -3 30 -4 31 -14 13 -6 -11 -15 -46 -19 -78 l-7 -58
41 25 c47 30 61 32 61 10 0 -14 8 -16 41 -11 40 5 41 5 34 -21 -4 -15 -22 -69
-42 -120 -19 -52 -32 -96 -29 -99 3 -4 29 1 57 10 28 10 59 17 68 17 9 0 29 8
44 19 32 20 63 61 48 61 -5 0 -12 -8 -16 -19 -5 -17 -50 -42 -102 -56 -35 -10
-36 13 -1 31 33 17 59 44 53 54 -2 3 8 6 22 6 13 1 32 9 41 17 9 8 23 12 30
10 17 -6 90 25 117 50 11 10 28 23 38 29 17 9 18 7 14 -19 -3 -15 -9 -57 -12
-93 -11 -112 -61 -553 -71 -617 -4 -28 -2 -33 15 -33 24 0 20 -24 61 400 17
173 35 335 40 360 5 25 7 46 5 48 -7 7 -63 -28 -68 -42 -10 -26 -147 -88 -147
-67 0 13 24 31 42 31 9 0 32 18 49 40 18 22 41 40 51 40 10 0 18 5 18 11 0 5
-6 7 -12 4 -7 -4 3 8 22 25 19 17 49 36 66 42 20 7 38 24 48 44 9 20 25 36 39
39 14 4 32 22 43 43 11 21 33 44 51 52 32 15 43 30 23 30 -5 0 -10 7 -10 15 0
8 6 15 14 15 17 0 89 40 94 52 5 11 22 10 22 -1 0 -18 -54 -91 -72 -97 -26 -8
-22 -25 5 -19 18 5 31 -6 77 -67 30 -40 74 -94 97 -121 22 -27 57 -81 77 -120
l36 -72 -10 -260 c-5 -143 -10 -297 -10 -342 0 -82 0 -83 25 -83 l25 0 0 284
c0 263 8 353 24 257 9 -57 31 -59 55 -6 44 100 45 100 86 -26 20 -63 37 -128
38 -145 1 -18 5 -30 8 -28 5 3 37 -123 41 -163 2 -21 34 -15 35 6 2 26 104
389 181 645 34 114 32 115 81 -34 57 -173 71 -270 78 -542 6 -239 7 -248 26
-248 19 0 20 5 13 78 -3 42 -9 181 -12 307 -7 245 -4 277 48 468 l21 78 32
-93 c18 -51 48 -129 67 -173 112 -257 128 -297 122 -307 -4 -6 -3 -8 3 -5 9 6
53 -85 53 -111 0 -6 4 -12 10 -12 5 0 12 -11 16 -25 5 -20 9 -23 20 -14 13 11
18 6 15 -14 -1 -5 3 -6 9 -2 6 3 8 11 5 16 -4 5 1 16 9 25 9 8 16 30 16 47 1
86 21 292 29 300 5 5 16 3 27 -7 11 -8 30 -23 43 -34 l25 -19 -20 -103 c-10
-57 -25 -109 -32 -117 -7 -7 -11 -23 -8 -35 3 -13 3 -17 0 -10 -9 20 -26 14
-19 -8 3 -11 2 -28 -4 -37 -9 -16 -11 -15 -11 7 -1 14 -4 19 -7 12 -3 -7 -2
-25 2 -39 5 -22 8 -24 16 -12 7 9 7 5 3 -16 -4 -16 -15 -36 -25 -45 -15 -12
-17 -22 -10 -52 5 -22 5 -38 0 -38 -5 0 -9 5 -9 11 0 5 -5 7 -11 3 -8 -4 -7
-9 2 -15 18 -11 136 -12 143 -1 3 4 16 100 31 213 34 273 54 409 65 440 8 26
8 26 -57 32 -44 4 -80 15 -110 33 -24 14 -47 24 -50 21 -5 -6 -18 -166 -29
-359 -4 -65 -10 -118 -15 -118 -7 0 -60 119 -87 199 -12 36 -13 55 -3 110 15
90 31 248 31 318 0 32 3 69 7 83 6 21 12 12 48 -65 l41 -89 66 114 c82 144
153 275 195 363 20 43 38 67 49 67 18 0 140 -88 218 -157 27 -24 63 -53 80
-65 30 -21 30 -20 -6 18 -20 21 -45 55 -57 74 -20 33 -20 35 -2 55 31 34 54
75 42 75 -6 0 -11 -6 -11 -13 0 -16 -42 -57 -58 -57 -24 0 -184 232 -169 246
2 3 50 2 106 -2 l101 -7 -6 -33 c-8 -41 11 -52 118 -70 75 -14 79 -13 148 12
75 28 120 70 120 112 0 12 -14 37 -31 56 l-31 35 26 63 c18 48 23 74 19 106
-5 40 -3 45 36 82 60 57 61 80 9 166 -24 39 -54 84 -68 101 -26 33 -124 101
-203 143 -26 14 -45 29 -43 35 49 112 50 114 38 139 -20 45 -55 59 -164 64
l-100 5 30 30 c28 28 40 31 144 43 106 13 120 17 228 71 157 79 170 99 245
363 103 363 109 400 82 505 -14 53 -146 263 -175 279 -9 5 -34 25 -54 44 -41
39 -37 52 15 52 35 0 35 20 -1 62 -15 18 -39 51 -54 73 -14 22 -47 61 -73 87
l-48 47 23 58 c13 32 27 63 31 68 3 6 10 29 14 53 6 35 4 42 -9 42 -9 0 -16 5
-16 11 0 25 93 -31 237 -143 62 -49 82 -50 75 -5 -2 9 1 17 6 17 4 0 9 21 11
47 1 26 4 50 7 55 12 19 15 183 4 255 -12 81 -55 213 -70 213 -5 0 -15 12 -22
27 -12 25 -18 28 -75 28 -35 1 -59 -3 -56 -8 3 -5 -6 -7 -20 -5 -17 2 -32 -4
-42 -17 -16 -20 -16 -20 -5 2 5 12 15 25 21 29 24 14 82 174 70 191 -7 10 -27
11 -36 1 -4 -4 -14 -4 -22 -1 -9 4 -22 -2 -30 -13 -12 -16 -15 -17 -23 -4 -8
13 -10 12 -10 -2 0 -11 -11 -20 -27 -24 -16 -4 -36 -13 -45 -21 -9 -9 -22 -12
-30 -7 -7 4 -10 4 -6 -1 7 -8 -33 -45 -49 -45 -4 0 -1 5 7 10 13 8 13 10 -1
10 -12 0 -19 14 -24 53 -5 28 -10 61 -12 72 -3 11 -5 32 -6 47 -1 14 -5 30 -9
34 -4 4 -5 18 -2 30 4 16 2 24 -6 24 -8 0 -11 11 -8 29 3 18 0 27 -5 24 -6 -4
-7 4 -3 20 4 16 -3 54 -18 101 -23 74 -23 86 -2 86 6 0 4 -5 -4 -10 -9 -6 -10
-10 -3 -10 24 0 21 18 -10 62 -18 25 -47 74 -65 109 -18 35 -41 73 -51 84 -25
30 -75 72 -66 56 14 -25 55 -186 55 -218 0 -38 3 -37 -102 -19 -68 12 -82 19
-112 50 -18 20 -41 36 -51 36 -16 0 -17 7 -11 58 4 31 13 81 21 110 7 29 19
111 26 182 l13 128 -53 199 c-31 115 -70 236 -94 288 -102 224 -265 459 -368
530 l-39 27 41 30 42 30 -28 18 c-15 10 -48 24 -72 31 -32 9 -47 19 -54 37
-13 34 -7 37 38 16 74 -34 182 -114 260 -192 170 -170 289 -405 387 -762 33
-121 118 -342 190 -491 69 -145 116 -270 116 -312 0 -18 5 -39 11 -47 8 -11 9
0 5 42 -8 80 -57 212 -133 361 -13 26 -21 47 -17 47 4 0 0 8 -8 18 -37 42
-107 236 -128 350 -5 29 -14 68 -19 85 -6 18 -23 75 -40 128 -30 99 -44 134
-113 276 -33 71 -79 144 -155 253 -35 48 -139 146 -201 188 -34 23 -65 42 -68
42 -3 0 -12 7 -20 15 -9 8 -24 15 -35 15 -10 0 -19 4 -19 9 0 5 -11 12 -25 15
-30 8 -39 24 -54 106 -25 131 -117 252 -237 310 -33 17 -67 30 -75 30 -8 0
-21 6 -27 13 -10 9 -64 12 -202 12 -138 0 -192 -3 -201 -12 -7 -7 -22 -13 -34
-13 -11 0 -33 -7 -48 -15 -15 -8 -44 -17 -63 -21 -20 -4 -55 -17 -78 -29 -23
-12 -53 -26 -66 -30 -39 -12 -111 -61 -103 -69 4 -4 0 -4 -9 -1 -19 7 -80 -33
-72 -47 3 -5 2 -7 -3 -6 -19 5 -54 -15 -49 -28 3 -7 2 -13 -2 -13 -18 3 -32
-2 -29 -11 2 -10 -71 -80 -84 -80 -5 0 -8 35 -7 78 1 103 -28 157 -124 233
-18 15 -52 64 -77 110 -51 96 -128 213 -163 247 -45 44 -117 92 -137 92 -15 0
-21 -6 -21 -24z m754 -763 c11 -60 21 -130 22 -158 3 -48 1 -52 -40 -88 l-44
-38 -65 21 c-57 19 -71 28 -105 73 -68 89 -75 103 -63 126 6 11 47 39 90 61
44 23 101 57 128 76 26 19 50 34 53 34 3 0 14 -48 24 -107z m390 37 c10 -38
24 -77 32 -87 21 -29 16 -38 -22 -41 -67 -4 -124 -39 -221 -134 -66 -65 -96
-89 -102 -80 -38 62 86 337 173 384 20 11 73 24 107 27 11 1 20 -19 33 -69z
m531 -100 c-3 -5 -13 -10 -20 -10 -19 0 -127 -58 -220 -117 -53 -35 -74 -54
-73 -68 1 -11 -20 -63 -45 -116 -42 -88 -48 -96 -75 -97 -37 -1 -128 -27 -219
-63 -39 -16 -80 -29 -90 -29 -27 1 166 86 212 94 99 17 92 11 136 104 28 60
39 95 35 114 -4 22 -1 28 25 37 17 6 52 26 78 45 60 44 143 86 170 86 12 0 21
5 21 11 0 5 5 7 10 4 6 -3 10 -1 10 4 0 6 12 11 26 11 14 0 23 -4 19 -10z
m194 -142 c-26 -49 -57 -83 -124 -135 -97 -77 -227 -138 -574 -269 -80 -31
-163 -63 -185 -73 -65 -29 -96 -34 -41 -6 28 14 41 23 30 21 -11 -3 -31 -7
-45 -11 -56 -13 39 26 195 80 88 31 178 65 201 76 22 10 46 19 52 19 7 0 34
10 60 21 258 115 346 172 408 260 30 43 41 51 23 17z m-1256 -71 c18 -8 38
-21 46 -30 16 -20 1 -23 -18 -4 -11 9 -14 9 -18 0 -8 -21 1 -28 37 -28 31 0
37 -5 62 -50 34 -62 34 -72 0 -113 l-28 -34 -57 28 -57 28 0 76 c0 102 -2 104
-83 90 -37 -7 -70 -16 -73 -21 -8 -13 -24 -11 -24 4 0 6 19 24 43 39 48 31
116 37 170 15z m-47 -121 c2 -97 0 -94 132 -163 2 -1 -10 -22 -28 -47 -24 -36
-37 -46 -59 -46 -16 0 -34 7 -41 15 -8 10 -9 15 -2 15 6 0 9 6 6 14 -3 8 -1
17 5 21 8 4 6 12 -5 23 -15 15 -15 16 2 23 18 6 18 7 1 14 -27 11 -44 55 -40
100 4 46 -18 80 -54 82 -26 2 -50 -31 -32 -42 6 -4 13 -4 16 -1 4 3 1 6 -5 6
-6 0 -9 7 -6 15 8 20 24 19 25 -2 1 -17 2 -17 6 0 4 17 6 16 24 -4 22 -25 25
-69 6 -69 -8 0 -22 9 -31 19 -10 11 -28 22 -42 25 -13 4 -24 11 -24 16 0 20
41 50 68 50 15 0 34 5 42 10 27 18 33 5 36 -74z m301 -30 c21 -53 28 -78 20
-81 -7 -2 -36 -12 -65 -21 -30 -9 -56 -23 -59 -31 -7 -19 -47 -40 -41 -21 3 7
2 20 -3 29 -6 11 0 27 17 50 21 28 24 41 19 75 -5 39 -4 43 27 62 18 11 37 19
43 18 5 -2 24 -37 42 -80z m-358 -51 c25 -27 39 -51 35 -58 -22 -38 -39 -47
-86 -47 -41 0 -50 4 -59 24 -9 18 -7 31 6 57 19 38 44 69 55 69 4 0 26 -20 49
-45z m1519 6 c74 -43 154 -122 225 -222 68 -97 161 -286 187 -381 23 -85 51
-150 78 -181 25 -28 5 -32 -30 -5 -18 14 -101 93 -184 177 -83 83 -156 151
-162 151 -11 0 -22 -23 -22 -46 0 -8 5 -14 10 -14 6 0 10 7 10 15 0 25 13 17
69 -39 58 -59 56 -49 36 -156 l-7 -35 16 29 c9 15 16 38 16 50 0 39 12 37 60
-7 25 -23 72 -64 103 -90 65 -55 78 -87 78 -200 0 -40 1 -87 2 -104 0 -18 -3
-36 -6 -40 -4 -3 -28 -2 -55 3 l-47 9 -6 55 c-4 42 -6 29 -7 -55 -2 -137 -26
-292 -51 -325 -35 -49 -84 -63 -201 -57 -58 3 -123 11 -144 17 -43 13 -146
108 -146 135 0 9 3 15 8 13 4 -1 37 -18 73 -36 71 -36 187 -61 284 -62 67 0
125 27 125 58 0 14 -8 18 -42 18 -76 0 -382 25 -423 34 -24 5 -44 5 -51 -1
-15 -12 -44 15 -44 40 0 10 -19 31 -42 47 -24 16 -45 32 -48 35 -13 14 -40 16
-50 3 -7 -8 -17 -14 -22 -14 -20 0 -66 -58 -70 -86 -3 -25 -7 -29 -30 -26 -17
2 -28 -2 -28 -10 0 -24 -62 -114 -93 -134 -106 -69 -309 -78 -398 -18 -31 22
-101 124 -84 124 3 0 20 -7 37 -16 26 -13 55 -15 167 -11 140 5 229 22 278 54
26 17 20 18 -229 23 -175 3 -261 9 -269 17 -14 14 -38 125 -39 179 0 24 -6 47
-15 54 -20 16 -68 4 -100 -26 -23 -21 -27 -31 -21 -62 4 -29 1 -41 -16 -59
-12 -13 -18 -26 -14 -30 4 -5 20 7 35 25 15 17 32 32 38 32 6 0 18 -19 26 -42
8 -24 26 -76 40 -116 26 -74 77 -147 129 -183 47 -34 156 -43 285 -24 122 19
172 37 228 86 67 59 94 104 88 148 -5 37 -3 41 38 71 24 18 49 34 55 36 18 8
113 -59 113 -80 1 -35 56 -128 98 -166 45 -43 108 -65 208 -75 82 -8 105 -14
105 -25 0 -5 -18 -27 -40 -49 -22 -22 -40 -46 -40 -54 0 -15 30 -29 95 -43 47
-11 53 -25 54 -137 1 -57 -3 -85 -16 -105 -79 -125 -189 -203 -368 -259 -23
-7 -31 -16 -33 -39 -1 -16 -5 -57 -8 -91 l-5 -62 -52 -17 c-29 -9 -68 -25 -89
-35 -38 -19 -98 -84 -98 -106 0 -22 -15 -14 -33 16 -33 56 -93 99 -169 122
-40 12 -89 30 -109 40 l-36 18 -7 86 c-4 48 -10 93 -13 102 -6 15 -117 73
-140 73 -7 0 -13 -10 -13 -22 0 -13 -7 -41 -14 -63 -17 -47 -23 -36 -28 51 -3
41 -13 78 -32 115 -32 62 -89 123 -108 116 -8 -3 -6 -6 5 -6 9 -1 17 -5 17
-10 0 -5 -13 -4 -30 2 -20 7 -25 14 -17 19 8 5 7 8 -5 8 -10 0 -18 5 -18 10 0
6 6 10 14 10 8 0 18 -4 21 -10 3 -5 11 -10 18 -10 29 0 -24 31 -78 45 -75 19
-81 19 -64 -2 13 -15 12 -15 -10 -3 -21 11 -23 10 -18 -3 10 -26 -98 -49 -196
-43 -103 7 -95 4 74 -33 157 -34 202 -54 274 -122 48 -45 55 -58 90 -165 31
-97 37 -125 33 -179 -5 -81 -40 -136 -118 -183 -30 -19 -44 -31 -30 -27 31 9
107 52 115 65 9 14 35 12 35 -2 0 -48 -126 -251 -150 -243 -8 2 -49 16 -90 31
-51 18 -119 31 -210 40 -146 15 -265 18 -156 4 45 -6 64 -13 77 -31 10 -13 19
-27 19 -31 0 -15 -27 -8 -45 12 -10 11 -25 20 -33 20 -23 0 12 -35 50 -51 24
-10 31 -10 38 1 6 9 13 3 26 -21 23 -45 56 -92 71 -102 7 -4 13 -13 13 -19 0
-7 -22 -9 -67 -5 -42 3 -58 2 -43 -3 14 -4 40 -8 58 -9 l32 -1 0 -62 c0 -63
43 -218 60 -218 4 0 -3 27 -17 60 -33 82 -41 181 -19 216 17 25 17 27 -7 53
-14 14 -40 51 -57 81 -18 30 -40 61 -49 68 -12 9 -12 15 -3 24 9 9 22 9 57 0
25 -7 57 -12 71 -12 55 0 241 -66 277 -98 19 -17 24 -94 8 -146 -5 -17 -15
-59 -21 -94 -6 -35 -14 -71 -17 -80 -4 -9 16 5 43 31 l49 49 -2 78 c-1 54 -7
92 -22 124 -11 25 -17 46 -13 47 4 0 32 2 62 5 69 5 148 23 156 35 13 21 32 7
38 -28 18 -101 49 -133 130 -133 21 0 36 -5 36 -12 0 -6 -19 -29 -42 -52 -41
-38 -42 -39 -9 -21 18 11 44 34 57 51 14 18 37 34 53 37 16 3 42 9 57 12 27 6
27 5 -6 -12 l-35 -18 31 -3 c18 -2 53 7 79 19 40 19 45 24 29 30 -16 6 -16 8
-2 8 19 1 73 -62 57 -68 -6 -2 3 -12 20 -22 16 -10 47 -40 68 -67 21 -27 68
-69 105 -93 37 -24 67 -47 67 -50 3 -23 -157 -15 -225 12 -24 8 -24 8 -9 -15
19 -29 13 -59 -25 -136 -38 -76 -110 -171 -196 -260 -101 -105 -207 -249 -259
-354 -25 -48 -45 -94 -45 -101 0 -40 -26 -12 -93 103 -100 171 -123 217 -147
303 -37 136 -20 270 41 313 13 9 18 16 12 16 -7 0 -15 -4 -18 -10 -8 -13 -25
-13 -25 1 0 6 9 22 20 36 l20 26 -32 23 -32 24 -23 -101 c-20 -91 -53 -169
-72 -169 -13 0 -53 43 -82 88 -16 25 -29 40 -29 33 0 -18 19 -51 56 -96 l32
-40 -44 -50 -44 -49 -30 17 c-36 22 -37 18 -5 -29 20 -29 25 -49 25 -97 l0
-60 -42 40 c-24 21 -58 45 -76 52 l-33 14 24 26 c14 14 32 41 41 59 13 26 23
32 48 32 30 0 68 23 68 42 0 13 -78 9 -87 -5 -4 -7 -33 -27 -63 -44 l-56 -31
-21 24 c-16 18 -32 24 -62 24 -45 0 -69 -18 -96 -69 -18 -36 -40 -42 -32 -8
22 89 21 95 -17 137 -19 21 -38 35 -41 30 -3 -4 -8 -42 -11 -82 -6 -72 -6 -75
20 -95 29 -23 32 -38 13 -58 -7 -7 -19 -45 -27 -84 -7 -40 -17 -74 -22 -77
-10 -6 -12 43 -8 261 2 172 10 221 33 212 140 -61 290 -119 321 -124 l40 -6
-24 33 c-16 22 -47 43 -99 66 -42 19 -115 54 -163 80 -85 44 -108 48 -108 19
0 -8 -5 -17 -12 -21 -8 -5 -10 10 -5 58 9 96 53 183 134 263 65 63 66 64 94
49 23 -11 29 -22 30 -47 0 -17 4 -41 8 -51 4 -11 7 14 7 58 -1 58 -4 73 -12
61 -6 -8 -16 -15 -21 -15 -14 0 -143 135 -143 150 0 6 -5 8 -10 5 -6 -4 -30 5
-55 19 -28 17 -57 26 -82 25 l-38 -2 41 -6 c49 -8 132 -62 193 -125 l44 -45
-71 -73 c-48 -48 -79 -90 -94 -125 -12 -29 -25 -53 -29 -53 -15 0 -79 84 -80
104 0 12 -2 44 -3 73 l-3 52 44 -36 c23 -19 43 -32 43 -28 0 4 -23 32 -50 63
-54 60 -100 142 -100 177 0 12 8 30 19 39 15 14 19 33 20 114 1 53 4 119 8
146 l6 48 41 -6 c23 -4 47 -14 54 -24 61 -82 74 -87 102 -39 11 19 32 39 46
45 30 14 45 15 24 2 -13 -8 -13 -10 1 -10 9 0 19 -7 23 -15 8 -21 34 -19 41 4
5 17 -5 221 -21 404 l-5 62 39 -40 c65 -67 176 -142 295 -200 42 -21 77 -42
77 -47 0 -5 4 -7 9 -4 14 9 75 -37 90 -68 27 -58 25 -98 -8 -143 -34 -47 -40
-63 -15 -43 31 27 66 99 61 127 -18 94 -18 103 -2 103 20 0 19 6 -7 49 -58 96
-142 174 -238 220 -51 24 -63 26 -36 6 11 -8 20 -23 21 -34 1 -21 28 -51 45
-51 6 0 9 -3 7 -7 -3 -5 13 -19 35 -33 30 -19 35 -26 21 -28 -45 -8 -45 -13
-2 -34 24 -12 46 -26 47 -30 2 -4 11 -8 20 -9 10 0 12 -3 6 -5 -6 -3 -38 11
-72 30 -33 19 -71 38 -84 42 -88 27 -277 180 -324 260 -34 58 -63 152 -74 239
-5 39 -14 99 -20 134 -12 72 -6 149 18 229 15 50 17 52 45 46 69 -15 90 68 37
148 -35 52 -32 66 15 103 37 28 57 87 36 108 -8 8 -11 2 -11 -23 0 -19 -4 -40
-8 -46 -9 -13 -54 -44 -64 -44 -16 0 -78 63 -78 79 0 27 50 120 71 131 15 9
22 4 43 -28 17 -27 34 -41 55 -45 30 -6 31 -8 31 -66 0 -98 27 -94 64 9 20 55
27 64 60 75 20 7 42 17 49 23 6 6 33 8 59 5 42 -5 48 -9 63 -44 22 -47 48 -72
72 -67 24 4 62 100 63 155 0 36 4 44 34 62 19 12 41 33 51 47 12 19 23 24 46
22 26 -3 34 -10 52 -53 22 -53 86 -149 94 -141 3 3 -6 20 -20 38 -30 40 -77
132 -77 151 0 8 11 19 24 25 22 10 27 7 49 -22 16 -20 41 -37 67 -45 37 -11
44 -10 61 5 15 14 19 31 19 91 0 67 2 74 23 83 12 5 37 23 54 40 18 17 52 38
75 46 24 8 57 23 75 34 31 18 33 18 84 -1 30 -12 69 -19 93 -17 41 3 41 3 40
43 0 23 -7 55 -16 72 -15 30 -15 31 18 57 22 17 34 36 34 51 0 18 8 28 33 39
17 7 43 25 56 39 18 20 28 24 42 17 21 -12 169 -14 169 -2 0 4 -25 33 -55 66
-55 59 -61 67 -48 79 11 12 23 8 91 -32z m-308 -71 c24 -46 26 -83 5 -100 -14
-12 -151 -17 -162 -6 -3 3 4 17 16 32 11 15 21 35 21 45 0 11 6 19 14 19 8 0
28 11 43 25 15 13 31 25 35 25 4 0 17 -18 28 -40z m-212 -30 c34 -59 30 -74
-15 -65 -21 4 -51 8 -68 9 l-30 1 1 -57 c1 -32 -3 -58 -8 -58 -31 0 -138 36
-143 48 -8 21 11 40 48 48 17 3 54 28 81 54 45 43 67 55 101 59 6 0 20 -17 33
-39z m-1070 -66 c38 -45 43 -97 12 -137 -11 -14 -20 -28 -20 -31 0 -3 9 -6 20
-6 32 0 23 -22 -30 -75 -45 -44 -53 -48 -70 -37 -11 6 -37 12 -59 12 -33 0
-42 5 -62 35 -13 19 -32 38 -42 41 -21 7 -40 41 -33 60 3 8 16 14 28 15 13 0
17 3 11 6 -16 6 -17 38 -2 65 l11 21 19 -24 18 -24 11 30 c6 17 13 36 15 42 2
7 19 22 37 33 48 30 94 21 136 -26z m764 -103 c7 -6 -5 -107 -14 -116 -2 -3
-22 4 -43 15 -50 26 -70 14 -85 -51 -7 -28 -18 -53 -26 -56 -7 -3 -34 10 -59
28 -37 26 -45 38 -43 59 3 21 9 26 44 30 47 7 126 50 151 85 14 18 24 22 43
18 14 -3 28 -8 32 -12z m205 -75 c-3 -69 -25 -96 -78 -96 -32 0 -119 26 -119
35 0 11 86 85 99 86 9 0 32 7 51 14 19 7 38 14 42 14 4 1 6 -23 5 -53z m-517
-80 c0 -14 -12 -54 -37 -124 l-15 -43 -32 37 -33 38 -26 -45 c-15 -25 -27 -51
-27 -57 0 -7 -6 -12 -14 -12 -19 0 -32 91 -16 119 6 13 21 21 35 21 35 0 114
39 126 61 11 22 39 26 39 5z m-548 -73 c32 -35 45 -60 56 -111 9 -38 8 -42
-27 -76 -20 -20 -47 -36 -59 -36 -25 0 -88 53 -98 82 -13 41 51 168 85 168 9
0 29 -12 43 -27z m668 -63 c-41 -81 -86 -99 -143 -57 -18 12 -17 15 18 58 33
39 43 45 89 50 28 3 54 6 59 7 4 1 -6 -25 -23 -58z m-716 -482 c7 -12 2 -32
-18 -78 -15 -34 -26 -64 -23 -67 3 -2 14 16 26 41 11 25 24 46 29 46 14 0 52
-76 52 -104 0 -38 -40 -55 -75 -32 -24 16 -25 16 -25 -6 0 -12 -35 -83 -79
-157 -104 -181 -117 -206 -136 -282 -9 -35 -19 -66 -21 -68 -2 -2 -13 7 -25
20 -11 13 -17 17 -13 9 4 -8 14 -23 22 -32 10 -12 11 -18 3 -18 -6 0 -20 15
-31 33 -61 99 9 327 171 557 22 30 56 79 76 108 37 53 49 59 67 30z m1902
-981 c-54 -96 -105 -231 -131 -343 -28 -123 -38 -144 -70 -144 -23 0 -25 4
-25 41 0 24 4 38 10 34 6 -3 10 -13 10 -21 0 -9 5 -14 12 -12 6 2 13 25 14 50
2 24 10 74 18 109 14 61 13 86 -2 63 -4 -6 -15 -14 -26 -17 -13 -5 -17 -3 -13
7 3 8 0 20 -8 26 -16 14 -29 -17 -27 -68 1 -30 0 -31 -14 -18 -8 9 -13 20 -10
25 3 5 -3 7 -14 4 -11 -3 -20 -12 -20 -19 0 -8 -4 -14 -10 -14 -5 0 -10 7 -10
15 0 8 -7 15 -16 15 -12 0 -14 10 -12 51 l3 52 70 26 c98 36 170 80 239 145
33 31 61 56 63 56 2 0 -12 -28 -31 -63z m251 -264 c27 -32 62 -78 78 -103 17
-25 32 -47 36 -50 19 -18 39 -59 39 -82 0 -27 -2 -28 -50 -28 l-51 0 3 -37 c2
-21 8 -43 14 -50 6 -6 23 -46 38 -88 l27 -76 -100 -105 c-56 -58 -101 -112
-101 -120 0 -17 26 -18 69 -3 18 6 34 9 37 6 3 -2 -8 -26 -25 -52 l-30 -47 20
-36 c22 -42 25 -82 7 -82 -44 1 -153 53 -200 95 -37 33 -108 75 -233 137 -99
49 -169 86 -155 83 169 -39 245 -22 272 61 7 21 17 39 23 39 5 0 38 -43 72
-95 35 -52 70 -105 79 -117 13 -21 54 -33 54 -17 0 4 -10 27 -22 52 -15 29
-19 47 -12 49 6 2 20 11 30 19 15 12 12 12 -15 -1 l-34 -17 -83 83 c-46 46
-84 87 -84 91 0 16 92 60 195 93 116 37 169 62 105 49 -75 -14 -197 -57 -241
-85 -25 -16 -48 -29 -51 -29 -3 0 5 29 18 64 l23 63 -27 31 c-27 31 -95 72
-119 72 -17 0 -16 11 1 57 8 21 22 70 31 108 24 103 22 100 51 66 26 -31 76
-48 111 -37 11 3 46 26 79 50 32 25 62 45 66 45 3 1 28 -25 55 -56z m-502
-208 c0 -26 -7 -34 -49 -55 -27 -13 -80 -53 -117 -88 l-69 -64 -38 28 c-20 16
-41 28 -46 26 -12 -4 1 57 16 75 17 21 58 40 101 48 29 6 38 4 43 -9 3 -9 11
-16 17 -16 5 0 3 8 -6 18 -10 10 -17 22 -17 25 0 11 43 8 79 -4 37 -13 71 -5
53 13 -15 15 -16 55 -2 63 6 3 10 16 11 28 1 33 25 -52 24 -88z m-83 -572 c45
-22 95 -35 172 -47 61 -9 113 -21 117 -28 5 -7 11 -10 14 -7 3 4 -9 21 -27 39
-32 32 -32 33 -5 16 40 -24 67 -49 67 -60 0 -18 -164 0 -209 23 -24 13 -45 20
-48 17 -11 -11 53 -40 188 -85 79 -27 176 -62 214 -79 39 -17 78 -33 88 -36
10 -3 17 -15 17 -31 0 -27 -14 -34 -23 -12 -7 19 -197 102 -359 157 -167 57
-232 94 -320 184 -84 85 -89 107 -8 33 33 -29 88 -67 122 -84z m148 -158 c164
-56 434 -167 447 -184 16 -21 16 -52 -1 -134 -16 -74 -12 -99 34 -242 20 -62
37 -161 47 -275 6 -71 -6 -73 -25 -4 -25 88 -181 313 -307 444 -40 41 -115
123 -168 183 -52 59 -125 135 -162 170 l-68 62 39 12 c21 6 46 9 54 6 8 -3 58
-20 110 -38z m1470 -322 c0 -47 -40 -222 -95 -413 -59 -203 -65 -219 -89 -240
-20 -15 -20 -9 -2 34 8 18 24 73 35 122 12 49 38 139 58 199 39 123 56 241 32
233 -8 -2 -25 -21 -38 -41 -13 -20 -28 -34 -32 -31 -13 8 -11 61 5 97 14 35
56 78 56 58 0 -6 -7 -14 -16 -18 -8 -3 -13 -12 -10 -20 3 -8 2 -12 -3 -9 -5 3
-12 -1 -15 -10 -11 -30 -6 -37 14 -19 11 10 34 18 50 18 16 0 27 4 24 9 -9 13
7 69 17 62 5 -3 9 -17 9 -31z m-1611 -56 c28 -26 51 -50 51 -53 0 -3 -14 -26
-32 -50 -36 -51 -31 -70 10 -31 20 19 39 27 65 27 30 0 37 4 37 19 0 13 11 24
35 32 25 9 35 19 37 38 3 21 10 27 43 32 22 4 44 3 49 -1 15 -15 -22 -59 -57
-68 -20 -5 -33 -16 -36 -28 -4 -23 -21 -36 -39 -29 -9 3 -10 0 -2 -15 5 -10
15 -22 20 -25 6 -3 10 -20 10 -37 0 -54 -85 -112 -130 -88 -26 14 -30 13 -30
-8 0 -10 11 -25 25 -32 13 -7 27 -20 29 -29 2 -9 7 -26 10 -37 6 -18 3 -21
-19 -16 -20 3 -25 0 -25 -17 0 -24 -15 -28 -27 -6 -9 16 -61 23 -81 11 -7 -4
-12 -2 -12 7 0 18 50 37 96 37 18 0 36 5 39 10 4 6 -12 10 -40 10 -41 0 -46 2
-40 18 14 30 18 82 7 82 -6 0 -8 -8 -6 -18 7 -23 -23 -91 -42 -99 -24 -9 -27
3 -10 36 24 45 20 52 -19 35 -37 -15 -83 -18 -101 -6 -21 15 -44 57 -44 83 0
34 51 79 88 79 15 0 46 -9 69 -20 25 -11 45 -15 48 -9 4 5 1 9 -5 9 -7 0 -33
17 -58 37 -26 21 -49 39 -52 41 -2 1 1 11 8 20 6 9 23 39 37 65 14 27 30 47
35 45 4 -2 31 -25 59 -51z m-1346 -78 c35 -19 98 -71 95 -79 -7 -16 -110 -100
-123 -100 -10 0 -6 9 13 28 15 15 19 19 8 10 -20 -18 -21 -17 -37 42 -26 95
-11 127 44 99z m-1034 -379 c-12 -33 -24 -60 -28 -60 -3 0 -20 15 -37 33 l-32
32 28 86 c15 48 31 92 35 99 4 7 17 -17 32 -59 l24 -71 -22 -60z m2470 -35
c21 -6 23 -5 19 19 -3 14 -2 23 2 21 4 -2 12 -37 20 -77 7 -40 19 -90 27 -111
20 -48 66 -87 105 -87 22 0 29 -4 26 -17 -5 -26 -66 -64 -93 -57 -17 4 -25 1
-29 -14 -4 -11 -15 -27 -26 -37 -16 -14 -20 -31 -20 -82 0 -62 -8 -75 -36 -55
-21 15 -44 57 -44 83 0 20 -9 32 -36 49 -28 16 -34 24 -25 33 6 6 11 20 10 32
0 14 -2 16 -6 5 -18 -49 -60 -62 -113 -35 -38 19 -38 30 -1 43 51 18 66 54 67
162 1 52 2 100 3 107 0 7 20 13 44 15 36 3 42 6 46 28 l3 25 17 -21 c9 -12 28
-25 40 -29z m628 -181 c25 -19 69 -47 96 -61 l51 -25 -60 -34 c-32 -18 -85
-42 -117 -53 l-57 -20 5 71 c6 84 21 158 31 158 2 0 25 -16 51 -36z m-1312
-44 c4 -6 -8 -10 -29 -10 -27 0 -48 -10 -88 -43 -71 -58 -379 -197 -436 -197
-12 0 -67 41 -134 100 -79 71 -124 104 -153 111 -70 19 -69 19 -58 30 14 14
97 -7 148 -37 43 -25 146 -120 183 -168 16 -21 25 -26 34 -18 7 5 61 28 120
51 111 44 188 91 188 116 0 37 205 97 225 65z m-910 -127 c22 -107 73 -251
102 -291 41 -54 73 -65 182 -59 53 3 157 19 231 35 122 28 194 37 257 33 12 0
46 -22 74 -47 49 -44 55 -46 96 -40 52 7 55 -5 14 -54 -24 -29 -35 -34 -75
-36 -34 -1 -53 -8 -67 -23 -29 -31 -62 -35 -119 -16 -42 14 -49 19 -39 31 6 8
22 14 35 14 25 0 54 34 54 62 0 10 -9 27 -20 38 -27 27 -120 27 -232 0 -46
-11 -128 -23 -184 -26 -168 -11 -233 24 -284 152 -13 32 -27 64 -31 69 -8 12
-26 100 -35 178 -5 48 -4 57 9 57 11 0 20 -21 32 -77z m1511 -775 c4 -35 8
-70 9 -78 0 -10 10 -14 26 -13 14 1 26 -4 26 -10 0 -17 68 -185 103 -256 17
-33 30 -68 30 -78 -1 -10 -10 3 -21 29 -17 37 -24 44 -34 35 -7 -7 -11 -16 -8
-21 3 -4 9 -3 13 4 5 8 9 5 13 -9 3 -12 0 -19 -6 -18 -6 1 -11 -8 -11 -20 -1
-13 -5 -23 -11 -23 -24 -1 -23 -75 1 -165 4 -15 3 -17 -4 -5 -16 24 -136 487
-147 565 -4 28 -11 60 -16 72 -10 27 -2 53 16 53 8 0 15 -23 21 -62z m-146
-60 c-1 -130 -28 -440 -40 -452 -8 -8 -10 -5 -9 9 4 38 -1 55 -16 55 -8 0 -15
6 -15 13 -1 12 -34 57 -43 57 -12 0 -17 -34 -6 -41 6 -3 9 -13 7 -20 -3 -10
-8 -7 -16 8 -10 18 -7 43 17 135 16 62 35 152 41 201 11 78 15 89 39 102 14 8
29 14 34 15 4 0 7 -37 7 -82z m-1090 -195 c-1 -17 -309 -233 -332 -233 -14 0
-9 86 7 123 8 20 31 48 51 64 31 23 53 29 138 39 135 15 136 15 136 7z m186
-202 c-4 -5 2 -7 13 -4 12 3 24 -3 35 -18 25 -36 20 -65 -16 -92 -43 -32 -127
-71 -135 -63 -4 3 0 27 8 54 10 32 21 48 34 50 30 6 40 19 26 35 -15 19 -3 47
21 47 10 0 17 -4 14 -9z m965 -204 c-19 -133 -20 -137 -1 -184 10 -26 29 -76
41 -111 12 -34 24 -60 28 -57 5 6 39 131 60 225 l8 35 8 -28 c5 -20 -3 -72
-28 -175 -20 -81 -37 -156 -39 -167 -3 -13 -8 -5 -15 25 -6 25 -33 101 -58
170 l-48 124 16 71 c9 38 19 99 23 135 4 36 9 69 11 73 14 23 12 -13 -6 -136z
m-226 -222 c51 -200 54 -221 43 -259 -10 -35 -12 -38 -16 -16 -3 24 -67 279
-97 390 -16 58 -11 149 6 118 5 -9 33 -113 64 -233z m649 206 c7 -23 3 -91
-14 -232 -12 -109 -20 -218 -17 -241 l5 -43 -26 54 -25 55 16 105 c9 58 20
159 23 224 7 120 19 145 38 78z m-746 -129 c0 -21 5 -65 12 -97 16 -83 78
-328 90 -359 7 -19 2 -53 -21 -143 -17 -65 -34 -122 -39 -127 -5 -5 -11 8 -15
30 -3 22 -25 131 -47 244 -56 277 -55 261 -17 384 18 58 33 106 35 106 1 0 3
-17 2 -38z"/>
<path d="M3196 4001 c-10 -11 -50 -36 -89 -57 -58 -30 -85 -38 -144 -42 -58
-4 -78 -1 -99 13 -23 15 -26 22 -21 59 5 41 5 41 -9 14 -17 -33 -9 -74 16 -88
10 -6 57 -10 104 -10 64 0 86 -3 86 -13 0 -7 14 -24 31 -36 29 -21 38 -23 106
-17 55 5 80 13 99 28 l24 22 -25 26 c-14 15 -34 48 -44 74 -17 46 -18 46 -35
27z m52 -96 l34 -34 -33 -16 c-18 -10 -59 -20 -91 -23 -52 -4 -62 -2 -83 18
-14 13 -25 29 -25 36 0 7 35 30 78 51 70 35 77 37 82 21 3 -10 20 -34 38 -53z"/>
<path d="M4350 1353 c0 -7 7 -30 15 -50 8 -21 35 -137 60 -258 25 -121 68
-332 96 -470 64 -310 65 -319 32 -369 -14 -21 -36 -68 -49 -104 -13 -35 -31
-73 -40 -83 -17 -18 -15 -19 72 -19 49 0 126 3 172 7 82 6 82 6 82 34 0 44 17
43 45 -1 26 -40 65 -56 65 -25 0 25 -50 245 -70 310 -11 33 -38 125 -60 205
-56 197 -75 238 -240 525 -175 304 -180 313 -180 298z"/>
<path d="M5175 731 c-3 -6 -10 -9 -14 -6 -5 2 -13 -7 -19 -20 -6 -13 -25 -31
-41 -40 -19 -9 -33 -26 -37 -43 -4 -15 -11 -33 -17 -39 -12 -16 -30 -6 -23 12
2 7 -1 16 -9 19 -8 3 -11 13 -8 25 3 13 1 21 -7 21 -7 0 -10 6 -7 14 7 18 -18
40 -33 31 -7 -5 -9 -22 -4 -49 4 -29 37 -86 112 -196 58 -85 109 -159 115
-165 14 -13 -32 65 -51 87 -8 10 -12 26 -10 36 4 13 0 19 -10 18 -18 -1 -61
69 -49 80 4 4 20 3 35 -2 21 -8 34 -6 60 9 43 26 49 38 14 31 -44 -9 -47 17
-6 70 19 25 42 50 52 56 16 11 16 11 0 6 -12 -3 -18 0 -18 9 0 9 -6 12 -15 9
-8 -4 -15 -2 -15 4 0 6 6 12 13 15 6 2 9 7 6 11 -4 4 -10 2 -14 -3z"/>
<path d="M1290 599 c0 -6 -7 -8 -16 -5 -11 4 -18 -1 -21 -14 -3 -11 -9 -17
-14 -14 -5 3 -12 -2 -15 -10 -9 -22 -24 -20 -24 4 0 13 -5 18 -15 14 -8 -4
-15 -15 -15 -25 0 -10 -5 -19 -11 -19 -6 0 -8 9 -4 20 8 24 -20 29 -29 5 -8
-21 -36 -19 -36 3 0 13 -2 14 -9 3 -5 -7 -6 -22 -3 -33 3 -11 -3 -25 -14 -34
-17 -14 -17 -15 -1 -10 19 6 23 -4 7 -20 -12 -12 -16 -66 -6 -82 4 -7 2 -12
-3 -12 -6 0 -11 -7 -11 -17 0 -9 3 -13 6 -10 7 7 45 -37 43 -50 -4 -25 9 -37
91 -78 71 -35 100 -45 140 -45 27 0 50 5 50 10 0 6 -4 10 -10 10 -19 0 -10 15
23 37 41 28 58 30 26 3 -13 -10 -19 -19 -12 -20 6 0 13 4 15 9 2 4 14 11 28
15 25 7 25 7 -4 -18 -16 -13 -36 -22 -45 -19 -13 5 -14 3 -3 -8 10 -10 19 -11
42 -2 17 6 30 7 30 2 0 -5 -4 -9 -10 -9 -5 0 -21 -17 -35 -39 -31 -45 -69
-141 -57 -141 5 0 14 19 21 41 14 45 93 136 145 168 42 25 133 36 154 19 14
-11 15 -10 8 12 -4 14 -10 45 -13 70 -3 25 -11 48 -17 52 -8 5 -7 11 2 20 9 9
12 9 12 0 0 -7 5 -12 10 -12 6 0 10 11 10 25 0 30 20 33 27 5 6 -24 6 -24 44
-5 37 19 29 35 -17 35 -37 0 -39 5 -24 45 8 21 15 25 33 21 12 -3 16 -3 10 0
-7 3 -14 18 -14 32 -1 15 -3 20 -6 11 -5 -21 -70 -20 -83 1 -6 9 -13 11 -17 5
-9 -12 -63 -14 -63 -3 0 4 -7 8 -15 8 -8 0 -15 7 -15 16 0 12 -7 14 -27 10
-16 -3 -46 -8 -68 -10 -30 -4 -34 -3 -15 3 23 8 24 9 5 15 -11 4 -27 11 -36
16 -11 5 -19 2 -27 -11 -15 -23 -32 -25 -32 -3 0 12 -6 15 -25 10 -14 -4 -25
-2 -25 4 0 5 -4 10 -10 10 -5 0 -10 -5 -10 -11z"/>
<path d="M1947 506 c-19 -13 -45 -27 -57 -31 -25 -8 -43 -50 -35 -82 4 -19 -2
-25 -47 -45 -29 -13 -59 -21 -65 -20 -21 5 -15 -11 13 -33 21 -16 26 -31 31
-81 5 -58 -2 -86 -53 -200 -3 -8 12 -11 47 -10 l52 1 19 95 c17 90 64 288 76
320 8 23 9 28 11 49 0 10 16 28 34 40 17 11 27 21 21 21 -6 0 -27 -11 -47 -24z"/>
</g>
</svg>
