<?xml version="1.0" standalone="no"?>
<!DOCTYPE svg PUBLIC "-//W3C//DTD SVG 20010904//EN"
 "http://www.w3.org/TR/2001/REC-SVG-20010904/DTD/svg10.dtd">
<svg version="1.0" xmlns="http://www.w3.org/2000/svg"
 width="736.000000pt" height="414.000000pt" viewBox="0 0 736.000000 414.000000"
 preserveAspectRatio="xMidYMid meet">
<metadata>
Created by potrace 1.16, written by Peter Selinger 2001-2019
</metadata>
<g transform="translate(0.000000,414.000000) scale(0.100000,-0.100000)"
fill="#5d4a4a" stroke="none">
<path d="M3330 4115 c-36 -95 -36 -170 0 -238 l20 -37 -54 0 c-30 0 -83 -9
-118 -20 -124 -39 -223 -15 -320 78 -32 30 -58 50 -58 44 0 -24 38 -111 68
-154 48 -70 114 -132 158 -147 50 -17 86 -40 80 -50 -3 -4 16 -7 42 -6 105 2
139 -49 85 -128 -25 -36 -30 -38 -62 -33 -19 3 -40 1 -47 -5 -15 -12 -47 17
-40 37 3 8 1 14 -4 14 -5 0 -14 9 -20 19 -7 15 -6 23 6 35 8 9 12 16 8 16 -3
0 0 8 7 18 13 16 12 16 -6 1 -11 -8 -42 -24 -68 -33 -53 -20 -84 -56 -71 -83
4 -10 6 -36 5 -58 -2 -37 1 -42 33 -59 20 -11 36 -23 36 -28 0 -5 17 -8 38 -7
20 1 52 -5 70 -15 24 -12 37 -14 51 -6 13 7 22 7 26 0 8 -13 -37 -30 -78 -30
-18 0 -57 6 -87 14 -63 16 -76 15 -28 -4 18 -6 44 -16 58 -22 l25 -10 -39 -34
c-59 -51 -118 -75 -224 -91 -53 -8 -103 -17 -109 -19 -34 -9 -1 -139 53 -217
19 -26 34 -49 34 -51 0 -15 -127 -28 -215 -23 -181 11 -322 61 -423 152 -29
26 -56 45 -59 41 -17 -17 41 -140 85 -179 15 -14 19 -27 15 -51 -3 -18 0 -49
6 -71 9 -34 8 -41 -15 -68 -14 -16 -23 -35 -21 -41 3 -10 49 -27 107 -40 14
-3 34 -12 45 -20 19 -13 19 -16 3 -49 -14 -30 -22 -35 -66 -41 -41 -5 -54 -12
-78 -44 -35 -43 -58 -113 -48 -145 3 -12 16 -33 28 -45 l21 -24 -25 4 c-19 2
-27 12 -37 47 -17 58 -6 99 42 157 l36 44 -43 -1 c-33 0 -38 -2 -23 -9 11 -5
14 -9 8 -9 -7 -1 -25 -15 -40 -31 -14 -17 -29 -28 -31 -25 -3 3 -11 0 -19 -6
-24 -20 -14 -1 19 37 l32 36 -60 -7 c-122 -16 -340 -97 -347 -130 -1 -5 17
-16 41 -23 23 -8 42 -19 42 -25 0 -7 7 -24 14 -39 17 -32 16 -63 -3 -96 -14
-27 -8 -52 13 -52 8 0 22 -15 31 -32 21 -40 36 -108 24 -108 -5 0 -25 -22 -44
-49 -32 -45 -40 -50 -86 -56 -33 -5 -55 -3 -62 4 -6 6 -15 11 -19 11 -13 0 -9
-55 4 -68 9 -9 10 -17 2 -30 -7 -10 -15 -32 -19 -50 -8 -38 7 -48 47 -33 23 8
29 6 42 -15 21 -31 35 -31 28 1 -2 15 8 57 24 100 l29 75 39 0 c32 0 37 -3 31
-17 -49 -117 -49 -117 -50 -233 0 -176 37 -256 145 -310 67 -34 122 -38 173
-14 36 17 74 63 42 50 -9 -3 -41 -9 -71 -12 -53 -7 -57 -5 -91 27 -48 46 -73
102 -73 169 1 162 89 312 260 442 62 48 64 48 72 27 5 -13 17 -29 28 -36 31
-22 39 -71 19 -113 l-18 -35 30 -30 c16 -17 29 -34 29 -37 0 -4 -13 -9 -29
-13 -39 -8 -53 -42 -34 -79 14 -26 14 -30 -2 -39 -69 -38 -115 -109 -115 -176
l0 -24 26 24 c34 32 93 31 184 -6 56 -23 71 -33 79 -57 6 -16 14 -27 19 -24 5
3 12 -46 16 -109 7 -138 32 -213 79 -249 18 -13 78 -40 135 -59 56 -20 120
-50 141 -66 34 -27 75 -47 212 -104 18 -7 38 -7 60 -1 46 13 151 139 186 224
15 36 30 70 34 75 4 6 4 17 -1 25 -5 8 -6 18 -4 22 3 4 -1 8 -9 8 -8 0 -17 9
-20 20 -7 25 4 26 23 1 7 -11 16 -18 20 -16 24 15 -19 -194 -87 -423 -30 -102
-41 -126 -65 -143 -15 -11 -25 -25 -22 -31 4 -6 3 -8 -3 -5 -13 8 -85 -41 -78
-53 3 -5 0 -12 -6 -16 -8 -4 -9 -3 -5 4 8 14 -6 16 -20 3 -23 -23 -207 -117
-327 -168 -131 -55 -165 -72 -117 -58 14 4 23 5 20 3 -4 -4 -183 -82 -289
-126 -10 -3 -12 -1 -7 7 5 8 -4 6 -25 -4 -19 -10 -35 -18 -36 -19 -1 -1 13 -2
32 -3 19 -1 38 3 41 8 3 5 12 9 20 9 8 0 12 -4 9 -10 -8 -13 38 -8 48 5 4 6
10 5 16 -4 16 -24 396 117 571 212 52 29 103 55 112 59 18 7 19 10 -12 -67 -4
-11 -8 -23 -9 -28 0 -4 -10 -17 -20 -29 -11 -11 -18 -25 -14 -31 3 -5 -5 -19
-19 -31 -13 -11 -17 -16 -9 -11 10 7 10 2 -3 -17 -17 -25 -36 -42 -21 -18 14
23 -5 8 -24 -18 l-20 -28 48 -3 c48 -2 49 -2 83 51 20 29 55 87 79 129 l43 77
95 21 c89 20 94 20 107 3 19 -24 14 -33 -39 -67 -25 -16 -46 -35 -46 -41 -1
-7 -8 -15 -17 -18 -9 -4 -14 -9 -11 -12 3 -4 20 5 37 20 37 31 76 36 65 9 -5
-15 -4 -16 6 -5 25 24 28 12 6 -22 -12 -18 -25 -32 -30 -29 -4 2 -4 9 -1 15 4
7 2 8 -4 4 -15 -9 -15 -12 4 -30 9 -10 11 -16 4 -16 -18 0 -42 -29 -37 -45 3
-7 -1 -19 -9 -26 -12 -10 -13 -9 -8 5 4 11 2 16 -7 14 -8 -2 -13 4 -13 15 1 9
-3 17 -8 17 -6 0 -4 8 3 18 13 15 12 16 -3 3 -22 -17 -23 -44 -3 -61 8 -7 13
-16 10 -20 -3 -4 25 -7 60 -7 48 0 70 5 84 19 20 17 39 9 26 -12 -3 -5 3 -10
14 -10 23 0 25 12 21 87 -1 23 4 59 11 80 12 36 12 37 21 13 5 -13 7 -43 4
-65 -5 -39 -5 -39 5 -7 5 17 12 32 16 32 6 0 -2 -71 -13 -115 l-6 -25 181 0
c176 0 181 1 181 21 0 11 -4 17 -10 14 -5 -3 -10 0 -10 8 0 8 -16 44 -36 81
l-35 67 25 86 c14 47 27 87 28 89 2 1 18 -11 36 -27 l32 -29 -21 -45 c-12 -25
-25 -42 -30 -39 -5 3 -6 -2 -3 -10 3 -9 11 -16 18 -16 8 0 8 -2 -1 -8 -8 -5
-7 -12 4 -27 13 -16 15 -17 10 -2 -4 10 -1 17 6 17 10 0 12 -21 9 -90 l-4 -90
80 0 81 0 10 38 c9 33 33 189 34 220 0 15 -1 16 44 -7 21 -11 52 -23 68 -26
17 -3 7 3 -22 15 -53 22 -113 78 -113 107 0 11 -13 1 -36 -26 -35 -40 -125
-101 -152 -101 -8 0 -5 15 11 48 28 55 61 153 113 340 31 113 39 130 49 115 7
-10 72 -134 145 -277 149 -292 148 -286 85 -375 -38 -55 -38 -71 1 -71 19 0
24 5 24 23 0 32 28 56 69 59 20 1 40 11 51 25 l17 22 23 -24 c14 -15 35 -25
51 -25 42 0 58 -9 75 -46 9 -19 23 -34 30 -34 8 0 14 1 14 3 0 1 -9 36 -20 77
-10 41 -18 75 -17 76 3 2 151 -84 213 -124 55 -35 88 -45 39 -12 -16 12 -91
57 -165 102 -181 108 -202 124 -196 151 3 12 3 16 0 9 -4 -8 -29 22 -65 78
-91 140 -162 224 -262 307 -51 42 -93 80 -95 85 -5 11 18 10 218 -8 96 -8 224
-15 283 -15 l108 0 -32 -40 c-41 -52 -69 -70 -119 -76 -22 -3 -40 -8 -40 -12
1 -19 190 -274 198 -266 3 3 0 11 -6 17 -7 7 -12 17 -12 23 0 5 5 3 10 -5 7
-11 10 -11 10 -2 0 7 3 11 8 9 9 -6 10 49 0 58 -3 3 -6 0 -5 -7 1 -34 -4 -46
-19 -44 -21 3 -45 36 -37 49 3 6 1 7 -5 3 -13 -8 -56 50 -47 64 4 6 1 9 -7 8
-7 -2 -12 5 -12 14 1 10 -2 16 -6 13 -4 -3 -13 2 -19 9 -10 12 -2 13 51 9 55
-5 69 -11 111 -46 26 -22 46 -42 43 -44 -3 -3 2 -13 11 -21 10 -11 12 -17 4
-20 -6 -2 -9 -15 -6 -30 5 -26 5 -26 -5 -4 -10 24 -30 22 -30 -4 0 -8 5 -12
11 -9 6 4 5 -2 -3 -14 -7 -12 -14 -17 -16 -11 -7 19 -18 10 -17 -13 0 -27 26
-69 142 -224 l83 -113 55 0 c33 0 55 4 55 11 0 29 -67 198 -125 314 -60 120
-107 190 -209 310 l-39 46 21 29 c12 16 22 30 22 32 0 2 -24 2 -52 0 -44 -2
-58 2 -79 21 -30 27 -45 62 -30 72 6 3 8 0 5 -8 -3 -8 -2 -17 3 -20 5 -3 9 2
9 11 1 29 8 46 23 58 11 8 11 13 2 18 -9 6 -7 12 6 22 16 12 6 13 -77 14 -82
0 -179 14 -168 25 1 2 36 8 77 14 120 16 132 50 35 103 -48 26 -49 26 -56 7
-6 -16 -11 -18 -28 -9 -27 15 -26 33 3 25 17 -5 19 -4 7 4 -24 17 -70 13 -98
-10 -23 -18 -27 -19 -30 -5 -2 9 -7 14 -12 11 -5 -3 -7 -12 -4 -19 3 -8 1 -17
-4 -20 -31 -19 -9 93 34 176 8 15 14 29 14 32 0 7 -41 -2 -49 -10 -3 -4 2 -4
12 -1 17 6 23 -4 10 -17 -8 -7 -9 -11 -12 -38 -3 -24 -21 16 -21 45 0 33 49
187 60 187 4 0 25 -6 46 -13 22 -8 52 -17 69 -21 28 -7 29 -7 13 11 -8 10 -25
36 -37 58 -15 28 -19 32 -16 15 8 -39 -8 -56 -38 -43 -20 9 -24 17 -20 34 6
23 7 23 -40 4 -14 -6 -48 22 -72 59 -13 20 -12 33 10 130 13 60 25 110 27 111
2 2 19 -11 39 -30 30 -27 39 -45 52 -106 9 -42 14 -54 11 -29 -3 25 -8 56 -11
70 -6 24 -5 24 14 8 22 -20 38 -24 27 -6 -4 7 -3 8 5 4 6 -4 9 -12 5 -17 -3
-6 2 -16 12 -24 18 -12 17 -14 -6 -33 -20 -16 -22 -22 -10 -25 8 -3 38 -13 67
-22 45 -14 65 -31 160 -132 59 -64 145 -144 191 -179 l83 -62 333 2 c378 2
349 -4 438 95 47 52 131 190 141 231 6 23 11 25 73 28 37 1 73 7 79 12 10 8
19 -2 39 -42 29 -59 33 -118 11 -162 -24 -45 -18 -48 35 -21 27 14 49 31 47
38 -1 6 5 11 14 9 22 -3 123 90 139 128 7 17 10 50 8 75 -5 38 -3 45 12 45 9
0 25 8 34 19 27 29 95 43 193 39 71 -3 99 -9 146 -32 95 -46 102 1 10 60 -24
15 -42 29 -40 31 2 1 30 4 61 4 68 2 84 20 45 52 -21 17 -34 19 -99 14 l-75
-6 25 19 c14 11 40 25 58 32 37 14 40 23 13 38 -31 16 -68 12 -121 -15 -27
-14 -55 -25 -63 -25 -7 0 -29 -8 -49 -18 l-36 -19 -34 26 c-18 14 -53 47 -76
72 l-42 46 58 17 c32 9 68 25 80 36 29 27 55 78 48 96 -8 22 -35 17 -113 -21
-40 -19 -93 -37 -117 -40 -38 -4 -47 0 -72 26 -57 60 -181 104 -274 97 l-45
-3 32 -19 c17 -11 34 -29 37 -40 11 -41 5 -132 -12 -175 -14 -35 -22 -44 -44
-47 -15 -1 -30 2 -33 7 -13 20 -36 7 -56 -34 -12 -23 -22 -43 -23 -44 -1 -1
-29 9 -63 22 -125 51 -280 69 -348 41 -18 -8 -73 -53 -120 -100 -48 -47 -93
-86 -101 -86 -8 0 -27 -6 -42 -14 -26 -13 -31 -12 -86 25 -32 21 -69 39 -81
39 -13 0 -27 5 -31 12 -5 8 -2 9 11 4 25 -9 65 19 65 47 0 17 -10 28 -35 40
-23 11 -35 24 -35 37 0 23 -33 60 -54 60 -8 0 -24 -20 -36 -45 -12 -25 -25
-45 -29 -45 -4 0 -23 16 -42 36 -22 23 -40 33 -52 30 -11 -2 -16 -2 -13 1 3 4
-16 29 -42 57 -27 28 -51 57 -53 63 -2 6 -15 14 -29 18 -25 6 -26 3 -44 -75
-17 -76 -16 -130 3 -130 12 0 29 43 36 96 11 73 16 79 49 53 15 -12 25 -24 22
-27 -3 -2 -12 1 -21 8 -13 11 -13 8 -4 -19 6 -18 24 -38 40 -47 33 -17 35 -22
14 -50 -13 -19 -24 -21 -97 -20 -82 2 -128 -8 -128 -27 0 -5 18 -7 40 -5 l40
3 -6 -35 c-4 -27 -1 -40 11 -50 14 -12 18 -12 26 1 13 22 11 47 -8 76 -17 26
-17 27 2 19 11 -4 37 -10 58 -13 30 -5 37 -10 37 -28 0 -13 3 -30 6 -39 5 -12
0 -16 -20 -16 -15 0 -40 -7 -55 -15 -24 -12 -31 -12 -47 0 -16 12 -22 12 -42
-1 -22 -14 -26 -12 -100 55 -42 39 -81 71 -85 71 -4 0 4 -10 19 -23 l27 -24
-13 -82 c-7 -46 -18 -102 -25 -125 -12 -39 -11 -43 17 -83 15 -23 35 -46 43
-50 10 -6 -3 -26 -55 -83 -42 -46 -69 -69 -70 -58 0 9 5 18 10 20 18 6 -1 68
-24 79 -18 9 -19 8 -6 -3 9 -7 14 -21 12 -30 -2 -10 2 -18 9 -18 10 0 10 -3 2
-11 -13 -13 -33 -4 -33 15 0 8 -8 16 -18 18 -19 5 -45 51 -58 101 l-7 29 32
-16 c17 -9 31 -14 31 -12 0 3 -14 13 -30 21 -55 28 -58 53 -14 133 l38 69 -29
26 -30 25 30 12 c34 13 81 55 97 85 5 11 -4 4 -21 -16 -30 -36 -104 -75 -121
-64 -4 3 7 20 25 38 21 21 38 52 45 80 10 36 20 51 51 71 21 15 39 29 39 32 0
4 -12 -2 -27 -11 -24 -16 -26 -16 -20 -1 4 10 3 15 -3 11 -6 -3 -10 -13 -10
-21 0 -17 -17 -19 -22 -2 -3 7 -7 -10 -11 -39 -7 -63 -29 -107 -62 -129 -37
-24 -56 -5 -44 44 5 20 9 56 9 79 0 23 5 43 13 46 10 4 10 6 0 6 -14 1 -19
141 -5 141 4 0 7 18 8 41 0 30 6 46 25 62 14 12 18 18 10 12 -11 -8 -13 -6 -9
5 2 8 27 31 54 50 28 19 79 61 115 94 l64 59 -61 -46 c-59 -44 -61 -45 -73
-24 -13 20 -14 20 -26 -10 -23 -54 -91 -60 -136 -12 -37 40 -37 53 0 31 42
-24 47 -10 11 26 -31 32 -42 32 -13 0 9 -10 11 -18 5 -18 -10 0 -42 38 -42 50
0 3 14 14 30 23 27 16 30 16 30 2 0 -8 12 -21 26 -27 24 -11 29 -10 53 18 14
17 41 39 59 48 17 9 32 24 32 34 0 17 -30 49 -60 67 -13 8 -13 7 0 -9 13 -17
11 -21 -22 -50 -20 -17 -83 -55 -140 -85 l-104 -54 -50 28 c-27 16 -58 35 -68
44 -13 11 -17 11 -11 2 4 -7 34 -30 67 -51 46 -29 56 -39 42 -44 -9 -4 -19 -4
-22 -1 -3 3 1 5 9 5 11 0 11 2 -1 10 -28 18 -71 10 -116 -21 -25 -17 -48 -37
-51 -45 -4 -10 -13 -7 -40 14 -31 25 -34 30 -29 67 4 22 9 66 12 97 l6 58 32
-22 31 -22 -23 25 c-12 14 -19 29 -15 34 5 4 3 5 -4 1 -7 -4 -19 5 -30 19 -10
15 -28 39 -40 55 -13 15 -23 31 -23 35 0 3 10 4 23 1 12 -3 4 3 -18 13 -22 11
-49 19 -60 19 -15 0 -13 -2 8 -10 18 -6 26 -15 23 -24 -3 -8 0 -13 6 -11 7 1
27 -20 45 -47 27 -40 33 -58 33 -103 0 -95 -71 -173 -158 -173 -21 0 -43 5
-49 11 -6 6 -17 9 -25 6 -12 -4 9 -16 56 -31 18 -6 18 -7 0 -28 -44 -49 -164
-84 -192 -56 -6 6 -15 8 -19 3 -5 -4 -2 -10 5 -12 7 -3 23 -15 34 -27 12 -11
18 -16 15 -10 -5 8 6 9 39 3 26 -5 50 -6 55 -3 5 3 9 1 9 -4 0 -24 -108 -23
-138 1 -18 14 -47 71 -32 62 9 -5 10 -1 5 16 -13 44 -25 44 -25 0 0 -35 6 -49
33 -76 32 -32 88 -55 136 -55 20 0 22 -4 16 -22 -9 -30 -9 -49 -1 -69 5 -12
-4 -28 -31 -55 l-38 -38 35 24 c19 13 39 30 43 37 5 8 15 10 31 3 13 -5 26 -7
28 -5 2 3 41 15 85 28 l81 23 -18 -40 c-9 -23 -20 -59 -24 -81 -11 -56 -42
-70 -96 -42 -20 11 -29 11 -45 1 -11 -7 -40 -16 -65 -20 l-44 -7 17 26 c17 26
17 27 -2 27 -11 0 -22 6 -24 13 -4 7 -6 6 -6 -5 -1 -9 -7 -19 -13 -21 -8 -3
-7 -6 4 -6 9 -1 20 -6 24 -12 5 -8 -3 -10 -24 -7 -17 2 -29 1 -26 -4 3 -4 15
-8 27 -8 25 0 16 -10 -36 -39 -48 -27 -49 -27 -70 8 -16 27 -16 30 2 52 18 22
18 24 0 53 -11 17 -19 44 -19 60 0 26 2 28 34 24 32 -4 33 -3 23 19 -6 13 -12
21 -15 19 -2 -3 -22 2 -45 10 -48 17 -60 9 -54 -37 l4 -34 1 38 c2 41 5 42 72
14 l25 -11 -23 -4 c-13 -2 -25 -10 -28 -18 -14 -47 -14 -47 -28 -34 -33 27
-73 -58 -47 -99 7 -10 8 -2 5 25 -3 21 -1 45 5 53 15 22 59 5 77 -31 16 -31
16 -32 -8 -53 -23 -20 -23 -21 -6 -35 27 -22 28 -64 2 -68 -25 -4 -58 41 -51
69 3 10 1 17 -4 13 -16 -10 -9 -42 16 -72 13 -16 21 -32 17 -36 -3 -4 36 17
88 48 55 31 114 57 140 61 25 4 53 11 63 17 10 5 17 5 17 0 0 -5 -31 -26 -69
-46 -149 -78 -225 -155 -305 -307 -26 -49 -49 -89 -51 -89 -10 0 -35 62 -35
87 0 17 -3 23 -8 16 -5 -8 -16 1 -32 28 -33 54 -80 82 -140 83 l-48 1 -16 52
c-13 41 -34 69 -99 135 -45 47 -92 97 -105 112 -19 24 -25 26 -38 15 -10 -9
-15 -25 -12 -49 3 -34 1 -36 -21 -32 -23 5 -23 6 -6 18 10 8 13 14 7 14 -7 0
-11 6 -10 12 2 7 -7 14 -19 16 -13 2 -23 8 -23 13 0 6 13 8 29 6 23 -4 28 -2
24 10 -3 8 -12 12 -20 9 -8 -3 -21 -6 -29 -6 -8 0 -14 -8 -14 -18 0 -10 -11
-25 -25 -32 -21 -11 -29 -11 -52 0 -16 7 -39 12 -53 11 -19 -1 -22 0 -10 8 8
5 18 7 22 5 5 -3 6 5 3 18 -13 49 38 58 75 14 7 -9 18 -16 24 -16 6 0 4 5 -4
10 -15 10 -14 11 41 15 26 1 70 35 63 47 -4 7 -3 8 5 4 15 -10 128 81 221 177
61 64 74 73 99 69 16 -2 37 1 48 6 13 8 32 8 61 0 37 -9 42 -14 42 -39 0 -55
21 -40 59 43 40 85 94 244 106 311 8 41 27 48 61 22 10 -8 24 -14 29 -14 6 0
2 4 -8 10 -26 15 -47 70 -41 105 3 16 6 30 7 31 2 1 18 -10 36 -25 19 -14 44
-27 55 -27 19 -2 20 -1 2 9 -105 63 -156 148 -111 186 10 8 15 27 14 54 -1 23
6 59 15 81 l18 40 -34 -31 c-40 -38 -75 -56 -148 -77 -72 -21 -98 -41 -121
-91 l-19 -41 0 38 c0 70 51 132 151 183 l51 25 15 -20 c28 -41 84 -15 82 37
-1 27 -1 27 -8 -3 -5 -23 -12 -31 -32 -33 -15 -2 -32 4 -39 13 -12 15 -11 22
5 53 24 43 41 51 50 22 7 -22 7 -22 34 4 l28 27 10 -23 c10 -23 11 -23 47 15
32 34 36 36 36 17 l0 -22 18 21 c16 21 19 21 52 7 23 -9 41 -27 53 -50 9 -20
21 -36 27 -36 5 0 13 0 18 0 4 0 7 3 7 8 0 4 6 22 14 40 10 23 20 32 37 32 12
0 26 5 29 10 4 6 11 8 16 4 6 -4 6 -11 -2 -20 -8 -10 -8 -14 0 -14 6 0 11 4
11 9 0 9 41 23 48 16 3 -2 -10 -23 -29 -46 -29 -36 -34 -39 -40 -23 -5 15 -8
11 -14 -18 -4 -20 -4 -41 0 -47 3 -7 0 -8 -9 -5 -11 4 -16 0 -16 -10 0 -10
-15 -23 -32 -31 -18 -8 -27 -14 -20 -15 7 0 23 5 34 11 16 9 24 7 37 -6 9 -9
12 -15 6 -14 -5 1 -21 1 -35 0 l-25 -2 27 -14 c15 -8 29 -24 32 -35 3 -11 9
-30 12 -42 l6 -23 -26 24 c-14 14 -26 20 -26 13 0 -6 13 -20 29 -31 16 -12 31
-31 35 -44 8 -33 57 -76 95 -83 25 -5 32 -4 27 4 -4 7 -13 12 -21 12 -19 0
-75 67 -75 92 0 14 4 18 13 11 6 -5 26 -9 42 -10 17 -1 22 1 13 3 -21 6 -34
42 -20 56 7 7 19 2 36 -18 l26 -29 19 23 c29 34 50 24 42 -21 -1 -5 3 -6 9 -2
5 3 10 15 10 26 0 25 8 24 37 -3 32 -30 29 -10 -7 39 -28 38 -88 73 -125 73
-8 0 -24 10 -36 23 l-22 22 5 -22 c4 -16 0 -23 -17 -27 -13 -3 -26 -14 -29
-24 -3 -9 -3 5 -1 31 4 42 2 50 -14 54 -18 5 -17 9 16 59 37 55 47 62 59 42 5
-7 2 -8 -7 -3 -8 5 -11 4 -6 -1 5 -5 13 -10 18 -10 5 -1 13 -2 18 -3 6 0 22
-12 37 -26 28 -26 44 -32 44 -15 0 6 -4 10 -9 10 -23 0 -37 29 -33 69 3 31 8
41 22 41 10 0 20 9 23 20 3 13 14 20 30 20 14 0 28 4 32 10 11 17 52 -11 63
-44 8 -25 10 -27 11 -8 1 12 6 22 11 22 6 0 10 20 10 45 0 33 4 45 15 45 8 0
20 9 27 20 7 11 22 20 34 20 12 0 27 7 34 15 11 13 15 13 33 0 39 -27 55 -20
48 22 -7 40 16 105 34 99 6 -1 21 -19 34 -39 33 -50 39 -39 7 12 -29 46 -28
49 12 24 87 -54 118 -115 142 -282 7 -45 14 -80 17 -77 9 9 -17 187 -32 216
-9 18 -14 34 -12 36 7 7 42 -57 55 -97 12 -38 32 -166 32 -201 -1 -22 -1 -22
-15 -4 -8 11 -15 16 -15 10 0 -5 10 -22 23 -38 l23 -28 -4 43 c-15 204 -57
350 -124 439 -20 27 -32 50 -26 52 6 2 -1 17 -15 34 -16 18 -22 35 -18 43 18
29 140 -155 175 -264 20 -61 52 -84 131 -92 173 -18 269 141 166 271 -16 20
-42 47 -58 59 -19 15 -15 7 14 -25 57 -63 73 -98 73 -159 0 -44 -4 -55 -33
-84 -53 -53 -166 -67 -238 -30 -18 10 -32 32 -48 77 -13 35 -34 80 -48 101
-41 64 -21 51 49 -33 63 -74 145 -136 169 -128 6 2 -1 9 -15 16 -14 7 -37 17
-50 23 -12 6 -52 44 -87 86 -81 95 -234 243 -251 242 -7 0 -3 -7 10 -16 31
-22 28 -31 -14 -39 -43 -8 -55 3 -41 36 13 33 14 35 28 108 11 54 10 69 -5
118 -19 59 -71 126 -117 150 -20 10 -65 14 -161 14 l-133 0 -80 -39 c-44 -22
-80 -39 -81 -38 0 1 -5 18 -10 37 l-10 35 -122 3 -122 3 -10 -26z m206 -162
c0 -27 5 -77 10 -113 7 -50 6 -73 -4 -102 -13 -32 -16 -35 -29 -22 -8 8 -12
21 -9 29 3 8 0 14 -5 12 -14 -3 -99 131 -99 155 0 12 13 21 38 28 21 5 49 21
62 35 13 14 26 25 29 25 3 0 6 -21 7 -47z m158 -25 c-10 -29 -11 -63 -2 -105
7 -33 7 -33 -31 -33 -32 0 -44 -6 -68 -33 -51 -58 -65 -54 -27 8 7 11 20 47
30 80 18 64 52 105 85 105 17 0 19 -4 13 -22z m-268 -212 c19 -19 34 -40 34
-48 0 -8 -21 -35 -48 -61 -47 -46 -48 -46 -77 -31 l-29 15 20 -22 c19 -22 19
-22 -2 -11 -37 19 -54 56 -44 92 9 31 9 32 -20 28 -16 -2 -26 0 -23 5 3 5 21
7 39 5 19 -2 34 0 34 4 0 4 -12 8 -27 8 l-28 1 30 24 c46 38 98 34 141 -9z
m355 -1383 c-5 -10 -23 -34 -40 -53 -32 -38 -40 -27 -16 20 9 17 11 30 6 30
-15 0 -23 -18 -25 -62 -4 -77 -63 -91 -120 -28 -36 41 -46 57 -24 44 8 -5 9
-2 5 9 -4 11 -1 17 6 17 25 0 47 -25 56 -65 l9 -40 1 41 c1 47 18 67 77 88 56
21 77 20 65 -1z m286 -57 c1 -1 -9 -18 -22 -38 -14 -20 -34 -72 -46 -116 -19
-75 -20 -82 -4 -111 19 -37 15 -47 -24 -56 -22 -5 -35 -1 -50 14 -12 12 -21
25 -21 30 0 19 43 62 57 57 8 -3 11 -1 8 4 -12 19 -99 -10 -109 -36 -7 -19 8
-18 24 1 7 8 18 15 24 15 6 -1 1 -9 -11 -19 -20 -17 -20 -19 -5 -35 28 -28 -1
-17 -38 15 -19 16 -27 27 -17 23 9 -3 17 -3 17 0 0 4 -9 10 -21 14 -20 8 -19
10 18 45 21 21 43 35 50 32 7 -2 13 0 13 4 0 5 -7 11 -15 15 -17 6 -11 28 21
71 12 17 25 42 29 57 7 26 8 26 63 21 32 -3 58 -7 59 -7z m1973 -139 c57 -21
99 -46 110 -66 9 -17 5 -21 -28 -32 -20 -6 -42 -15 -48 -20 -6 -5 -15 -5 -19
-1 -5 4 -5 1 -1 -6 5 -8 -6 -28 -27 -52 -39 -42 -54 -43 -32 -1 24 47 28 96
11 130 -18 34 -16 39 9 15 9 -9 19 -13 23 -9 4 4 -6 18 -21 31 -32 27 -27 29
23 11z m145 -127 c-3 -5 -1 -11 4 -15 6 -3 8 -22 6 -43 -1 -20 -3 -43 -4 -49
-1 -7 -12 -13 -25 -13 -13 0 -26 -6 -28 -12 -4 -10 -10 -10 -32 0 -33 15 -66
16 -66 2 0 -5 10 -10 23 -10 40 0 67 -12 67 -29 0 -22 -43 -64 -55 -54 -4 5
-5 3 -1 -4 3 -6 2 -14 -4 -18 -6 -4 -7 -11 -4 -17 3 -5 -12 3 -35 18 -34 22
-40 31 -34 48 4 12 8 37 8 58 0 29 9 46 50 91 45 50 54 55 93 55 23 1 40 -3
37 -8z m-2339 -95 c28 -31 31 -39 24 -69 -15 -66 -54 -130 -136 -222 -45 -51
-85 -90 -89 -86 -3 3 -3 -1 0 -9 3 -9 -1 -21 -9 -28 -12 -10 -17 -8 -26 8 -6
12 -7 21 -3 21 4 0 -3 7 -15 16 -14 9 -21 22 -18 31 3 8 2 12 -3 8 -12 -7 -67
63 -86 109 -27 65 -14 122 45 189 30 35 67 55 40 22 -11 -13 -10 -14 3 -9 9 3
39 -10 74 -34 102 -70 118 -90 116 -149 -2 -49 81 58 87 112 5 43 -1 65 -26
94 -36 43 -18 39 22 -4z m-1123 -142 c2 -5 7 -21 11 -37 6 -26 5 -27 -8 -13
-9 9 -13 24 -10 34 5 17 5 17 -6 0 -9 -14 -7 -23 8 -45 26 -37 35 -78 22 -103
-11 -20 -21 -53 -22 -76 -2 -22 -35 10 -57 55 -15 31 -19 48 -11 56 5 7 7 16
3 19 -3 4 0 13 7 22 7 8 10 21 7 28 -3 7 4 19 14 25 10 7 19 19 19 27 0 16 16
21 23 8z m184 -125 c17 -13 17 -31 1 -22 -8 4 -10 3 -5 -2 5 -5 14 -9 20 -9
10 0 76 -108 77 -126 0 -6 -133 -21 -198 -22 -18 0 -28 -4 -21 -7 6 -5 3 -9
-10 -13 -14 -3 -19 -1 -14 6 3 7 -5 2 -18 -9 -30 -27 -75 -43 -64 -23 5 8 15
22 23 31 7 9 11 22 6 29 -4 7 -3 10 3 6 15 -9 66 48 69 78 1 14 0 23 -4 21 -4
-2 -6 13 -4 35 4 39 8 43 50 39 12 -1 22 3 22 9 0 12 45 -2 67 -21z m333 1 c0
-5 5 -7 11 -3 6 3 28 1 49 -6 34 -11 41 -11 55 4 20 20 35 20 60 2 18 -13 18
-16 5 -41 -19 -35 -47 -50 -66 -34 -11 9 -14 8 -14 -4 0 -9 5 -19 10 -22 19
-12 11 -26 -9 -15 -11 5 -22 22 -24 37 -4 26 -4 26 -6 -4 0 -18 -6 -33 -12
-33 -6 0 -8 8 -4 19 5 15 1 18 -20 13 -33 -6 -58 15 -52 45 2 13 0 23 -4 23
-5 0 -9 7 -9 15 0 8 7 15 15 15 8 0 15 -5 15 -11z m3018 -10 c25 -8 32 -18 37
-49 4 -27 1 -49 -10 -73 -16 -34 -89 -110 -109 -113 -7 -1 -11 26 -11 80 0 44
-4 94 -8 109 -6 21 -5 27 4 22 8 -6 8 -2 0 14 -11 20 -9 21 27 21 22 0 53 -5
70 -11z m-2928 -139 c-15 -28 -12 -48 9 -55 14 -4 20 -18 23 -62 4 -44 10 -60
29 -74 23 -19 23 -20 5 -34 -21 -16 -49 -7 -60 20 -6 17 9 21 19 5 3 -5 16
-10 28 -9 21 0 21 1 -3 10 -13 6 -32 17 -42 26 -15 13 -19 13 -40 -1 -15 -11
-18 -16 -8 -16 8 -1 3 -8 -12 -16 -38 -20 -35 -28 7 -21 34 6 35 5 29 -21 l-7
-27 23 20 24 20 -20 -26 c-18 -25 -64 -36 -64 -15 0 5 -6 17 -14 25 -26 31
-35 75 -20 102 7 13 13 43 14 66 0 56 15 92 42 102 33 12 50 3 38 -19z m1022
-77 c-44 -86 -65 -206 -41 -230 8 -8 7 -25 -6 -62 -9 -28 -20 -51 -23 -51 -13
1 -69 55 -75 73 -4 10 -10 16 -15 13 -14 -9 5 121 22 145 22 32 149 160 154
155 2 -2 -5 -21 -16 -43z m-692 -165 c0 -5 -4 -7 -10 -3 -5 3 -14 -12 -19 -33
-6 -21 -26 -60 -45 -87 -34 -47 -34 -49 -16 -62 11 -8 17 -20 13 -29 -5 -12
-7 -12 -20 3 -8 10 -11 11 -7 3 7 -13 5 -13 -9 -1 -9 7 -17 20 -17 28 0 9 -6
13 -15 9 -8 -3 -21 2 -30 10 -8 8 -19 12 -25 9 -16 -10 -11 -41 10 -60 22 -20
22 -20 38 10 11 19 11 18 12 -7 0 -14 -3 -33 -6 -42 -5 -14 -8 -14 -28 0 -13
8 -28 26 -34 40 -15 31 -16 88 -2 79 6 -3 7 1 4 9 -9 24 7 19 38 -11 28 -27
28 -27 28 -4 0 34 16 56 56 80 20 12 41 34 47 50 10 27 37 33 37 9z m-140
-829 l-11 -66 -55 -27 c-31 -15 -80 -33 -110 -39 -30 -6 -54 -15 -54 -19 0 -4
-7 -8 -15 -8 -9 0 -15 9 -15 21 0 15 5 19 16 15 8 -3 13 -2 9 3 -15 25 41 110
138 210 l102 106 3 -65 c2 -35 -2 -95 -8 -131z"/>
<path d="M4448 3234 c2 -114 0 -135 -13 -141 -18 -6 -58 27 -85 70 l-18 28 -6
-34 c-7 -38 -80 -138 -98 -134 -6 1 -13 -4 -15 -10 -9 -26 16 -12 55 31 l40
43 15 -31 16 -31 -6 47 c-3 26 -3 55 1 64 6 15 12 13 42 -17 31 -29 35 -39 31
-69 -3 -19 -10 -48 -17 -65 l-12 -30 -14 25 -14 25 7 -30 c9 -35 9 -115 0
-139 -9 -23 -35 -9 -40 22 -4 26 -4 26 -12 -6 l-8 -33 -28 27 c-20 19 -26 31
-19 39 14 17 -85 36 -131 26 -42 -10 -89 -39 -88 -55 0 -7 2 -6 6 2 7 19 43
15 45 -5 0 -10 2 -23 2 -30 1 -6 5 -14 9 -17 4 -3 5 -3 3 0 -2 3 7 17 20 31
28 30 48 21 42 -18 -2 -19 -8 -23 -27 -21 -14 1 -23 1 -20 -1 2 -2 17 -11 33
-21 25 -16 28 -16 23 -2 -3 8 2 34 12 56 17 38 19 39 34 22 22 -24 21 -31 -5
-61 l-23 -25 33 23 c41 29 49 23 21 -15 -18 -25 -17 -24 8 4 35 38 58 43 47
10 -14 -48 -23 -66 -34 -73 -14 -9 -70 14 -70 28 0 6 -3 7 -7 4 -3 -4 1 -15
11 -25 9 -11 14 -26 10 -36 -5 -13 -14 -15 -42 -10 -41 8 -69 37 -93 98 -20
49 -53 65 -40 18 20 -68 40 -91 111 -124 89 -42 146 -16 181 83 l18 54 -5 -45
c-3 -25 -10 -59 -16 -77 -10 -35 -59 -83 -86 -84 -11 0 -12 -2 -5 -6 19 -7 78
33 91 61 6 13 27 45 46 71 20 26 36 54 36 63 0 10 -6 5 -16 -13 -30 -58 -41
-61 -33 -8 13 79 36 175 53 222 9 24 16 54 16 66 0 40 28 38 54 -3 31 -50 57
-102 67 -132 5 -18 8 -20 8 -7 1 11 -19 58 -43 105 -43 87 -43 88 -44 197 0
61 -4 120 -9 132 -5 13 -7 -35 -5 -113z"/>
<path d="M3190 2751 c0 -35 18 -61 43 -61 12 -1 63 -22 112 -48 79 -41 93 -53
113 -92 32 -63 28 -139 -8 -157 -14 -7 -18 -13 -10 -13 20 1 43 19 63 50 21
33 32 121 18 148 -11 21 -117 76 -131 67 -13 -8 -81 25 -75 35 4 6 -1 7 -11 3
-11 -4 -15 -2 -11 4 4 6 -1 10 -11 9 -9 0 -16 4 -15 11 1 6 -4 17 -12 23 -8 7
-15 9 -15 4 0 -4 -11 3 -25 16 l-25 23 0 -22z"/>
<path d="M1554 2266 c-3 -14 -3 -30 1 -36 3 -6 -5 -24 -20 -42 -33 -39 -29
-62 12 -66 25 -3 34 -10 43 -35 12 -33 14 -32 24 15 4 15 19 42 35 60 31 37
55 77 48 84 -2 2 -26 7 -53 9 -27 3 -54 12 -60 20 -16 21 -23 19 -30 -9z"/>
</g>
</svg>
